<?xml version="1.0" encoding="utf-8"?>
<!-- Generator: Adobe Illustrator 24.1.3, SVG Export Plug-In . SVG Version: 6.00 Build 0)  -->
<svg version="1.1" id="Layer_1" xmlns="http://www.w3.org/2000/svg" xmlns:xlink="http://www.w3.org/1999/xlink" x="0px" y="0px"
	 viewBox="0 0 506.3 385" style="enable-background:new 0 0 506.3 385;" xml:space="preserve">
<style type="text/css">
	.st0{fill:#FFFFFF;}
	.st1{clip-path:url(#SVGID_2_);fill:#EBDFE8;stroke:#000000;stroke-width:1.2;}
	.st2{clip-path:url(#SVGID_4_);fill:#99CCCD;stroke:#000000;stroke-width:1.2;}
	
		.st3{clip-path:url(#SVGID_6_);fill:none;stroke:#B0B0B0;stroke-width:0.8;stroke-linejoin:round;stroke-opacity:0.5;stroke-dasharray:2.96,1.28;}
	.st4{stroke:#000000;stroke-width:0.8;stroke-linejoin:round;}
	
		.st5{clip-path:url(#SVGID_8_);fill:none;stroke:#B0B0B0;stroke-width:0.8;stroke-linejoin:round;stroke-opacity:0.5;stroke-dasharray:2.96,1.28;}
	
		.st6{clip-path:url(#SVGID_10_);fill:none;stroke:#B0B0B0;stroke-width:0.8;stroke-linejoin:round;stroke-opacity:0.5;stroke-dasharray:2.96,1.28;}
	
		.st7{clip-path:url(#SVGID_12_);fill:none;stroke:#B0B0B0;stroke-width:0.8;stroke-linejoin:round;stroke-opacity:0.5;stroke-dasharray:2.96,1.28;}
	
		.st8{clip-path:url(#SVGID_14_);fill:none;stroke:#B0B0B0;stroke-width:0.8;stroke-linejoin:round;stroke-opacity:0.5;stroke-dasharray:2.96,1.28;}
	
		.st9{clip-path:url(#SVGID_16_);fill:none;stroke:#B0B0B0;stroke-width:0.8;stroke-linejoin:round;stroke-opacity:0.5;stroke-dasharray:2.96,1.28;}
	
		.st10{clip-path:url(#SVGID_18_);fill:none;stroke:#B0B0B0;stroke-width:0.8;stroke-linejoin:round;stroke-opacity:0.5;stroke-dasharray:2.96,1.28;}
	
		.st11{clip-path:url(#SVGID_20_);fill:none;stroke:#B0B0B0;stroke-width:0.8;stroke-linejoin:round;stroke-opacity:0.5;stroke-dasharray:2.96,1.28;}
	.st12{fill:none;stroke:#000000;stroke-width:0.8;stroke-linecap:square;}
</style>
<g id="figure_1">
	<g id="patch_1">
		<path class="st0" d="M0,73.3l0,239.5l506.3,0l0-239.5L0,73.3z"/>
	</g>
	<g id="axes_1">
		<g id="patch_2">
			<path class="st0" d="M55.6,121l0,186.9l443.5,0l0-186.9L55.6,121z"/>
		</g>
		<g id="patch_3">
			<g>
				<defs>
					<rect id="SVGID_1_" x="55.6" y="121" width="443.5" height="186.9"/>
				</defs>
				<clipPath id="SVGID_2_">
					<use xlink:href="#SVGID_1_"  style="overflow:visible;"/>
				</clipPath>
				<path class="st1" d="M55.6,129.5l0,75.5l422.4,0l0-75.5L55.6,129.5z"/>
			</g>
		</g>
		<g id="patch_4">
			<g>
				<defs>
					<rect id="SVGID_3_" x="55.6" y="121" width="443.5" height="186.9"/>
				</defs>
				<clipPath id="SVGID_4_">
					<use xlink:href="#SVGID_3_"  style="overflow:visible;"/>
				</clipPath>
				<path class="st2" d="M55.6,223.9l0,75.5l327.7,0l0-75.5L55.6,223.9z"/>
			</g>
		</g>
		<g id="matplotlib.axis_1">
			<g id="xtick_1">
				<g id="text_1">
					<g transform="translate(144.722142 489.08) rotate(-90) scale(0.16 -0.16)">
						<g>
							<path id="DejaVuSans-43" d="M2058.6,409.5h-9.6c2.9,3.3,5,6.9,6.4,10.6c1.4,3.8,2.1,7.8,2.1,12c0,8.3-2.4,14.7-7.1,19.1
								c-4.7,4.4-11.5,6.6-20.5,6.6c-8.9,0-15.7-2.2-20.4-6.6c-4.7-4.4-7.1-10.8-7.1-19.1c0-4.2,0.7-8.2,2.1-12s3.6-7.3,6.4-10.6
								h-9.6c-2.2,3.4-3.8,7.1-4.9,11c-1.1,3.9-1.6,7.9-1.6,12.2c0,11,3.1,19.7,9.4,26.1c6.3,6.3,14.8,9.5,25.6,9.5
								c10.9,0,19.4-3.2,25.7-9.5c6.3-6.4,9.4-15.1,9.4-26.1c0-4.4-0.5-8.5-1.6-12.3C2062.4,416.5,2060.8,412.9,2058.6,409.5z"/>
						</g>
						<g>
							<path id="DejaVuSans-69" d="M2047,394.7v-9l-50.7,0v9L2047,394.7z M2066.7,394.7v-9l-10.6,0v9L2066.7,394.7z"/>
						</g>
						<g>
							<path id="DejaVuSans-74" d="M2061.4,358H2047v-18.5h-6.5V358l-27.5,0c-4.1,0-6.8-0.6-8-1.8c-1.2-1.2-1.8-3.7-1.8-7.5v-9.2h-7
								v9.2c0,6.9,1.2,11.7,3.6,14.4c2.4,2.6,6.8,4,13.1,4l27.5,0v6.6h6.5V367h14.4V358z"/>
						</g>
						<g>
							<path id="DejaVuSans-79" d="M1991.6,304.9c-6,2.5-10,5-11.8,7.4c-1.8,2.4-2.8,5.6-2.8,9.7v7.2h7v-5.3c0-2.5,0.5-4.4,1.6-5.8
								c1.1-1.4,3.6-2.9,7.7-4.5l3.8-1.6l49.8,22.1v-9.5l-39.6-17.1l39.6-17.1v-9.5L1991.6,304.9z"/>
						</g>
					</g>
				</g>
			</g>
			<g id="xtick_2">
				<g id="text_2">
					<g transform="translate(285.631233 499.085) rotate(-90) scale(0.16 -0.16)">
						<g>
							<path id="DejaVuSans-52" d="M1474,1333.1c-0.7-2.1-2.1-4.2-4.3-6.2c-2.2-2-5.2-4-9-6l-18.5-10v10.6l17.3,9.3
								c4.5,2.4,7.5,4.8,9,7c1.5,2.3,2.2,5.3,2.2,9.2v10.8h-28.5v9.9h67.5v-22.3c0-8.3-1.6-14.6-4.8-18.7c-3.2-4.1-8.1-6.2-14.6-6.2
								c-4.3,0-7.8,1.1-10.6,3.2C1477,1325.9,1475.1,1329,1474,1333.1z M1502.3,1357.8h-24v-12.4c0-4.8,1-8.3,3.1-10.8s5-3.6,9-3.6
								s6.9,1.2,8.9,3.6c2,2.4,3,6,3,10.8V1357.8z"/>
						</g>
						<g>
							<path id="DejaVuSans-75" d="M1462.3,1304h30.7v-9h-30.4c-4.8,0-8.4-1-10.8-3c-2.4-2-3.6-5.1-3.6-9.1c0-4.8,1.4-8.7,4.3-11.5
								c2.9-2.8,6.8-4.2,11.7-4.2h28.7v-9h-50.7v9h7.8c-3.1,2.2-5.4,4.7-6.9,7.6c-1.5,2.9-2.2,6.2-2.2,10c0,6.3,1.8,11.1,5.4,14.3
								C1450,1302.3,1455.3,1304,1462.3,1304z M1494.2,1281.4L1494.2,1281.4z"/>
						</g>
						<g>
							<path id="DejaVuSans-72" d="M1485.2,1208c0.5,1,0.9,2.1,1.2,3.3c0.3,1.2,0.4,2.5,0.4,3.9c0,5.1-1.5,9-4.6,11.7
								c-3.1,2.7-7.5,4.1-13.2,4.1h-26.7v9h50.7v-9h-7.9c3.1-1.9,5.4-4.4,6.8-7.4c1.5-3,2.2-6.7,2.2-11c0-0.6,0-1.3-0.1-2
								c-0.1-0.8-0.2-1.6-0.3-2.5L1485.2,1208z"/>
						</g>
						<g>
							<path id="DejaVuSans-61" d="M1467.8,1173.7c0,7.3-0.8,12.3-2.3,15.1c-1.5,2.8-4.2,4.2-7.9,4.2c-3,0-5.3-1.1-7-3.2
								c-1.7-2.1-2.6-5-2.6-8.6c0-5,1.6-9,4.9-12c3.3-3,7.6-4.5,13-4.5h1.9V1173.7z M1471.2,1155.8h-28.9v9h7.7
								c-3.1,2.1-5.3,4.6-6.8,7.7s-2.2,6.8-2.2,11.2c0,5.6,1.5,10,4.4,13.4c2.9,3.3,6.8,5,11.7,5c5.7,0,10-2.1,12.9-6.2
								c2.9-4.1,4.3-10.3,4.3-18.4v-12.6h0.8c3.8,0,6.8,1.4,8.9,4.1s3.1,6.5,3.1,11.5c0,3.1-0.3,6.2-1,9.1c-0.7,3-1.7,5.8-3.1,8.5
								h7.7c1.2-3.3,2.1-6.5,2.6-9.6c0.6-3.1,0.9-6.1,0.9-9c0-7.9-1.9-13.8-5.7-17.7C1484.7,1157.7,1478.9,1155.8,1471.2,1155.8z"/>
						</g>
						<g>
							<path id="DejaVuSans-6c" d="M1512.7,1137.3v-9h-70.4v9H1512.7z"/>
						</g>
					</g>
				</g>
			</g>
		</g>
		<g id="matplotlib.axis_2">
			<g id="ytick_1">
				<g id="line2d_3">
					<g>
						<defs>
							<rect id="SVGID_5_" x="55.6" y="121" width="443.5" height="186.9"/>
						</defs>
						<clipPath id="SVGID_6_">
							<use xlink:href="#SVGID_5_"  style="overflow:visible;"/>
						</clipPath>
						<path class="st3" d="M55.6,121l0,186.9"/>
					</g>
				</g>
				<g id="line2d_4">
					<g>
						<g>
							<path id="me4edaa8c95" class="st4" d="M55.6,121v-2.3"/>
						</g>
					</g>
				</g>
				<g id="text_3">
					<g transform="translate(60.934187 454.82125) rotate(-90) scale(0.16 -0.16)">
						<g>
							<path id="DejaVuSans-30" d="M2174,27.4c0,5.1-1.7,8.9-5,11.5c-3.3,2.6-8.4,3.8-15.1,3.8c-6.7,0-11.7-1.3-15.1-3.8
								c-3.3-2.6-5-6.4-5-11.5c0-5.1,1.7-8.9,5-11.5c3.3-2.6,8.4-3.8,15.1-3.8c6.7,0,11.8,1.3,15.1,3.8
								C2172.4,18.5,2174,22.3,2174,27.4z M2179.3,27.4c0-8.2-2.2-14.4-6.5-18.7c-4.3-4.3-10.6-6.5-18.9-6.5
								c-8.2,0-14.5,2.2-18.8,6.5c-4.3,4.3-6.5,10.6-6.5,18.7c0,8.2,2.2,14.4,6.5,18.7c4.3,4.3,10.6,6.5,18.8,6.5
								c8.2,0,14.5-2.2,18.9-6.5C2177.1,41.8,2179.3,35.6,2179.3,27.4z"/>
						</g>
					</g>
				</g>
			</g>
			<g id="ytick_2">
				<g id="line2d_5">
					<g>
						<defs>
							<rect id="SVGID_7_" x="55.6" y="121" width="443.5" height="186.9"/>
						</defs>
						<clipPath id="SVGID_8_">
							<use xlink:href="#SVGID_7_"  style="overflow:visible;"/>
						</clipPath>
						<path class="st5" d="M116.5,121l0,186.9"/>
					</g>
				</g>
				<g id="line2d_6">
					<g>
						<g>
							<path id="me4edaa8c95_1_" class="st4" d="M116.5,121v-2.3"/>
						</g>
					</g>
				</g>
				<g id="text_4">
					<g transform="translate(60.934187 414.272815) rotate(-90) scale(0.16 -0.16)">
						<g>
							<path id="DejaVuSans-32" d="M1881.7-213.4v-34.4l-5.6,0v46.3l5.6,0c2.6-3.7,6.1-8.8,10.4-15.3c4.4-6.5,7.2-10.5,8.5-12.2
								c2.4-3.2,4.4-5.4,6-6.6c1.6-1.3,3.3-1.9,4.9-1.9c2.6,0,4.7,1.4,6.3,4.1c1.6,2.7,2.5,6.3,2.5,10.6c0,3.1-0.4,6.4-1.1,9.8
								c-0.7,3.4-1.8,7.1-3.3,11l6.7,0c1.1-4,1.9-7.7,2.4-11.1c0.5-3.5,0.8-6.6,0.8-9.5c0-7.6-1.3-13.6-3.8-18.1
								c-2.5-4.5-5.9-6.7-10.1-6.7c-2,0-3.9,0.6-5.7,1.7c-1.8,1.1-3.9,3.2-6.4,6.1c-0.6,0.8-2.5,3.4-5.5,7.8
								C1891.3-227.5,1887.1-221.4,1881.7-213.4z"/>
						</g>
						<g>
							<path id="DejaVuSans-30_1_" d="M1920.6-289.6c0,5.1-1.7,8.9-5,11.5c-3.3,2.6-8.4,3.8-15.1,3.8c-6.7,0-11.7-1.3-15.1-3.8
								c-3.3-2.6-5-6.4-5-11.5c0-5.1,1.7-8.9,5-11.5c3.3-2.6,8.4-3.8,15.1-3.8c6.7,0,11.8,1.3,15.1,3.8
								C1918.9-298.6,1920.6-294.8,1920.6-289.6z M1925.9-289.6c0-8.2-2.2-14.4-6.5-18.7c-4.3-4.3-10.6-6.5-18.9-6.5
								c-8.2,0-14.5,2.2-18.8,6.5c-4.3,4.3-6.5,10.6-6.5,18.7c0,8.2,2.2,14.4,6.5,18.7c4.3,4.3,10.6,6.5,18.8,6.5
								c8.2,0,14.5-2.2,18.9-6.5C1923.7-275.2,1925.9-281.5,1925.9-289.6z"/>
						</g>
						<g>
							<path id="DejaVuSans-30_2_" d="M1920.6-353.3c0,5.1-1.7,8.9-5,11.5c-3.3,2.6-8.4,3.8-15.1,3.8c-6.7,0-11.7-1.3-15.1-3.8
								c-3.3-2.6-5-6.4-5-11.5c0-5.1,1.7-8.9,5-11.5c3.3-2.6,8.4-3.8,15.1-3.8c6.7,0,11.8,1.3,15.1,3.8
								C1918.9-362.2,1920.6-358.4,1920.6-353.3z M1925.9-353.3c0-8.2-2.2-14.4-6.5-18.7c-4.3-4.3-10.6-6.5-18.9-6.5
								c-8.2,0-14.5,2.2-18.8,6.5c-4.3,4.3-6.5,10.6-6.5,18.7c0,8.2,2.2,14.4,6.5,18.7c4.3,4.3,10.6,6.5,18.8,6.5
								c8.2,0,14.5-2.2,18.9-6.5C1923.7-338.9,1925.9-345.1,1925.9-353.3z"/>
						</g>
					</g>
				</g>
			</g>
			<g id="ytick_3">
				<g id="line2d_7">
					<g>
						<defs>
							<rect id="SVGID_9_" x="55.6" y="121" width="443.5" height="186.9"/>
						</defs>
						<clipPath id="SVGID_10_">
							<use xlink:href="#SVGID_9_"  style="overflow:visible;"/>
						</clipPath>
						<path class="st6" d="M177.4,121l0,186.9"/>
					</g>
				</g>
				<g id="line2d_8">
					<g>
						<g>
							<path id="me4edaa8c95_2_" class="st4" d="M177.4,121v-2.3"/>
						</g>
					</g>
				</g>
				<g id="text_5">
					<g transform="translate(60.934187 353.364379) rotate(-90) scale(0.16 -0.16)">
						<g>
							<path id="DejaVuSans-34" d="M1538.5-612.7l-26.1,24.9v-24.9H1538.5z M1544.3-610.1v-12.4h-31.8v-10.4h-5.5v10.4l-11.5,0v9.8
								h11.5v32.9l6.4,0L1544.3-610.1z"/>
						</g>
						<g>
							<path id="DejaVuSans-30_3_" d="M1539.9-670.3c0,5.1-1.7,8.9-5,11.5c-3.3,2.6-8.4,3.8-15.1,3.8c-6.7,0-11.7-1.3-15.1-3.8
								c-3.3-2.6-5-6.4-5-11.5c0-5.1,1.7-8.9,5-11.5c3.3-2.6,8.4-3.8,15.1-3.8c6.7,0,11.8,1.3,15.1,3.8
								C1538.3-679.3,1539.9-675.4,1539.9-670.3z M1545.2-670.3c0-8.2-2.2-14.4-6.5-18.7c-4.3-4.3-10.6-6.5-18.9-6.5
								c-8.2,0-14.5,2.2-18.8,6.5c-4.3,4.3-6.5,10.6-6.5,18.7c0,8.2,2.2,14.4,6.5,18.7c4.3,4.3,10.6,6.5,18.8,6.5
								c8.2,0,14.5-2.2,18.9-6.5C1543-655.9,1545.2-662.2,1545.2-670.3z"/>
						</g>
						<g>
							<path id="DejaVuSans-30_4_" d="M1539.9-733.9c0,5.1-1.7,8.9-5,11.5c-3.3,2.6-8.4,3.8-15.1,3.8c-6.7,0-11.7-1.3-15.1-3.8
								c-3.3-2.6-5-6.4-5-11.5c0-5.1,1.7-8.9,5-11.5c3.3-2.6,8.4-3.8,15.1-3.8c6.7,0,11.8,1.3,15.1,3.8
								C1538.3-742.9,1539.9-739.1,1539.9-733.9z M1545.2-733.9c0-8.2-2.2-14.4-6.5-18.7c-4.3-4.3-10.6-6.5-18.9-6.5
								c-8.2,0-14.5,2.2-18.8,6.5c-4.3,4.3-6.5,10.6-6.5,18.7c0,8.2,2.2,14.4,6.5,18.7c4.3,4.3,10.6,6.5,18.8,6.5
								c8.2,0,14.5-2.2,18.9-6.5C1543-719.5,1545.2-725.8,1545.2-733.9z"/>
						</g>
					</g>
				</g>
			</g>
			<g id="ytick_4">
				<g id="line2d_9">
					<g>
						<defs>
							<rect id="SVGID_11_" x="55.6" y="121" width="443.5" height="186.9"/>
						</defs>
						<clipPath id="SVGID_12_">
							<use xlink:href="#SVGID_11_"  style="overflow:visible;"/>
						</clipPath>
						<path class="st7" d="M238.3,121l0,186.9"/>
					</g>
				</g>
				<g id="line2d_10">
					<g>
						<g>
							<path id="me4edaa8c95_3_" class="st4" d="M238.3,121v-2.3"/>
						</g>
					</g>
				</g>
				<g id="text_6">
					<g transform="translate(60.934187 292.455944) rotate(-90) scale(0.16 -0.16)">
						<g>
							<path id="DejaVuSans-36" d="M1141.8-988.6c0,4.4-1,7.9-3,10.5c-2,2.6-4.8,3.9-8.3,3.9c-3.5,0-6.3-1.3-8.3-3.9
								c-2-2.6-3.1-6.1-3.1-10.5c0-4.4,1-7.9,3.1-10.5c2-2.6,4.8-3.9,8.3-3.9c3.5,0,6.3,1.3,8.3,3.9
								C1140.8-996.5,1141.8-993,1141.8-988.6z M1162.5-1008.2h-6c0.8,2.5,1.4,5,1.8,7.5c0.4,2.5,0.6,5,0.6,7.5
								c0,6.5-1.5,11.5-4.4,14.9c-2.9,3.4-7.4,5.4-13.3,5.9c1.9-1.9,3.4-4.3,4.4-7.2c1-2.9,1.5-6.1,1.5-9.6c0-7.3-1.5-13.1-4.5-17.4
								c-3-4.2-7-6.4-12.1-6.4c-5,0-9,2.2-12.1,6.6c-3,4.4-4.5,10.3-4.5,17.7c0,8.4,2.2,14.9,6.5,19.3c4.3,4.5,10.6,6.7,18.8,6.7
								c7.7,0,13.9-2.7,18.5-8.2s6.9-12.8,6.9-22c0-2.5-0.2-5-0.5-7.5C1163.7-1002.8,1163.2-1005.4,1162.5-1008.2z"/>
						</g>
						<g>
							<path id="DejaVuSans-30_5_" d="M1159.3-1051c0,5.1-1.7,8.9-5,11.5c-3.3,2.6-8.4,3.8-15.1,3.8c-6.7,0-11.7-1.3-15.1-3.8
								c-3.3-2.6-5-6.4-5-11.5c0-5.1,1.7-8.9,5-11.5c3.3-2.6,8.4-3.8,15.1-3.8c6.7,0,11.8,1.3,15.1,3.8
								C1157.6-1059.9,1159.3-1056.1,1159.3-1051z M1164.5-1051c0-8.2-2.2-14.4-6.5-18.7c-4.3-4.3-10.6-6.5-18.9-6.5
								c-8.2,0-14.5,2.2-18.8,6.5c-4.3,4.3-6.5,10.6-6.5,18.7c0,8.2,2.2,14.4,6.5,18.7c4.3,4.3,10.6,6.5,18.8,6.5
								c8.2,0,14.5-2.2,18.9-6.5C1162.3-1036.6,1164.5-1042.8,1164.5-1051z"/>
						</g>
						<g>
							<path id="DejaVuSans-30_6_" d="M1159.3-1114.6c0,5.1-1.7,8.9-5,11.5c-3.3,2.6-8.4,3.8-15.1,3.8c-6.7,0-11.7-1.3-15.1-3.8
								c-3.3-2.6-5-6.4-5-11.5c0-5.1,1.7-8.9,5-11.5c3.3-2.6,8.4-3.8,15.1-3.8c6.7,0,11.8,1.3,15.1,3.8
								C1157.6-1123.6,1159.3-1119.7,1159.3-1114.6z M1164.5-1114.6c0-8.2-2.2-14.4-6.5-18.7c-4.3-4.3-10.6-6.5-18.9-6.5
								c-8.2,0-14.5,2.2-18.8,6.5c-4.3,4.3-6.5,10.6-6.5,18.7c0,8.2,2.2,14.4,6.5,18.7c4.3,4.3,10.6,6.5,18.8,6.5
								c8.2,0,14.5-2.2,18.9-6.5C1162.3-1100.2,1164.5-1106.5,1164.5-1114.6z"/>
						</g>
					</g>
				</g>
			</g>
			<g id="ytick_5">
				<g id="line2d_11">
					<g>
						<defs>
							<rect id="SVGID_13_" x="55.6" y="121" width="443.5" height="186.9"/>
						</defs>
						<clipPath id="SVGID_14_">
							<use xlink:href="#SVGID_13_"  style="overflow:visible;"/>
						</clipPath>
						<path class="st8" d="M299.2,121l0,186.9"/>
					</g>
				</g>
				<g id="line2d_12">
					<g>
						<g>
							<path id="me4edaa8c95_4_" class="st4" d="M299.2,121v-2.3"/>
						</g>
					</g>
				</g>
				<g id="text_7">
					<g transform="translate(60.934187 231.547508) rotate(-90) scale(0.16 -0.16)">
						<g>
							<path id="DejaVuSans-38" d="M757.3-1368.1c0,4.7-0.8,8.4-2.5,11.1c-1.7,2.7-4,4-6.9,4c-2.9,0-5.3-1.3-6.9-4
								c-1.7-2.7-2.5-6.4-2.5-11.1s0.8-8.4,2.5-11.1c1.7-2.7,4-4.1,6.9-4.1c2.9,0,5.2,1.3,6.9,4
								C756.5-1376.5,757.3-1372.8,757.3-1368.1z M760.1-1358.2c0.7,4.2,2,7.5,4,9.9c1.9,2.4,4.3,3.5,7.1,3.5c3.9,0,7-2.1,9.3-6.2
								c2.3-4.2,3.4-9.8,3.4-17.1c0-7.3-1.1-13-3.4-17.1c-2.3-4.1-5.4-6.2-9.3-6.2c-2.8,0-5.2,1.2-7.1,3.5c-1.9,2.4-3.3,5.6-4,9.8
								c-0.7-4.8-2.2-8.4-4.4-11.1c-2.2-2.7-4.8-4-7.9-4c-4.7,0-8.4,2.2-10.9,6.5c-2.5,4.3-3.8,10.5-3.8,18.5c0,8,1.3,14.2,3.8,18.5
								c2.5,4.3,6.2,6.5,10.9,6.5c3.1,0,5.7-1.3,7.9-4C757.9-1349.7,759.4-1353.4,760.1-1358.2z M770.5-1354.6
								c-2.5,0-4.5-1.2-5.9-3.5c-1.4-2.4-2.1-5.7-2.1-9.9c0-4.2,0.7-7.6,2.1-9.9c1.4-2.4,3.4-3.6,5.9-3.6c2.5,0,4.5,1.2,5.9,3.6
								c1.4,2.4,2.1,5.7,2.1,9.9c0,4.3-0.7,7.6-2.1,9.9C775-1355.8,773.1-1354.6,770.5-1354.6z"/>
						</g>
						<g>
							<path id="DejaVuSans-30_7_" d="M778.6-1431.7c0,5.1-1.7,8.9-5,11.5c-3.3,2.6-8.4,3.8-15.1,3.8c-6.7,0-11.7-1.3-15.1-3.8
								c-3.3-2.6-5-6.4-5-11.5c0-5.1,1.7-8.9,5-11.5c3.3-2.6,8.4-3.8,15.1-3.8c6.7,0,11.8,1.3,15.1,3.8
								C776.9-1440.6,778.6-1436.8,778.6-1431.7z M783.8-1431.7c0-8.2-2.2-14.4-6.5-18.7c-4.3-4.3-10.6-6.5-18.9-6.5
								c-8.2,0-14.5,2.2-18.8,6.5c-4.3,4.3-6.5,10.6-6.5,18.7c0,8.2,2.2,14.4,6.5,18.7c4.3,4.3,10.6,6.5,18.8,6.5
								c8.2,0,14.5-2.2,18.9-6.5C781.7-1417.3,783.8-1423.5,783.8-1431.7z"/>
						</g>
						<g>
							<path id="DejaVuSans-30_8_" d="M778.6-1495.3c0,5.1-1.7,8.9-5,11.5c-3.3,2.6-8.4,3.8-15.1,3.8c-6.7,0-11.7-1.3-15.1-3.8
								c-3.3-2.6-5-6.4-5-11.5c0-5.1,1.7-8.9,5-11.5c3.3-2.6,8.4-3.8,15.1-3.8c6.7,0,11.8,1.3,15.1,3.8
								C776.9-1504.2,778.6-1500.4,778.6-1495.3z M783.8-1495.3c0-8.2-2.2-14.4-6.5-18.7c-4.3-4.3-10.6-6.5-18.9-6.5
								c-8.2,0-14.5,2.2-18.8,6.5c-4.3,4.3-6.5,10.6-6.5,18.7c0,8.2,2.2,14.4,6.5,18.7c4.3,4.3,10.6,6.5,18.8,6.5
								c8.2,0,14.5-2.2,18.9-6.5C781.7-1480.9,783.8-1487.1,783.8-1495.3z"/>
						</g>
					</g>
				</g>
			</g>
			<g id="ytick_6">
				<g id="line2d_13">
					<g>
						<defs>
							<rect id="SVGID_15_" x="55.6" y="121" width="443.5" height="186.9"/>
						</defs>
						<clipPath id="SVGID_16_">
							<use xlink:href="#SVGID_15_"  style="overflow:visible;"/>
						</clipPath>
						<path class="st9" d="M360.1,121l0,186.9"/>
					</g>
				</g>
				<g id="line2d_14">
					<g>
						<g>
							<path id="me4edaa8c95_5_" class="st4" d="M360.1,121l0-2.3"/>
						</g>
					</g>
				</g>
				<g id="text_8">
					<g transform="translate(60.934187 180.819073) rotate(-90) scale(0.16 -0.16)">
						<g>
							<path id="DejaVuSans-31" d="M422.6-1665.7v-16.1l37.3,0l-2.4,17.5l6,0l2.4-17.4v-9.9l-43.3,0l0-16.1H417l0,42H422.6z"/>
						</g>
						<g>
							<path id="DejaVuSans-30_9_" d="M461.5-1748.7c0,5.1-1.7,8.9-5,11.5c-3.3,2.6-8.4,3.8-15.1,3.8c-6.7,0-11.7-1.3-15.1-3.8
								c-3.3-2.6-5-6.4-5-11.5c0-5.1,1.7-8.9,5-11.5c3.3-2.6,8.4-3.8,15.1-3.8c6.7,0,11.8,1.3,15.1,3.8
								C459.9-1757.7,461.5-1753.8,461.5-1748.7z M466.8-1748.7c0-8.2-2.2-14.4-6.5-18.7c-4.3-4.3-10.6-6.5-18.9-6.5
								c-8.2,0-14.5,2.2-18.8,6.5c-4.3,4.3-6.5,10.6-6.5,18.7c0,8.2,2.2,14.4,6.5,18.7c4.3,4.3,10.6,6.5,18.8,6.5
								c8.2,0,14.5-2.2,18.9-6.5C464.6-1734.3,466.8-1740.6,466.8-1748.7z"/>
						</g>
						<g>
							<path id="DejaVuSans-30_10_" d="M461.5-1812.4c0,5.1-1.7,8.9-5,11.5c-3.3,2.6-8.4,3.8-15.1,3.8c-6.7,0-11.7-1.3-15.1-3.8
								c-3.3-2.6-5-6.4-5-11.5c0-5.1,1.7-8.9,5-11.5c3.3-2.6,8.4-3.8,15.1-3.8c6.7,0,11.8,1.3,15.1,3.8
								C459.9-1821.3,461.5-1817.5,461.5-1812.4z M466.8-1812.4c0-8.2-2.2-14.4-6.5-18.7c-4.3-4.3-10.6-6.5-18.9-6.5
								c-8.2,0-14.5,2.2-18.8,6.5c-4.3,4.3-6.5,10.6-6.5,18.7c0,8.2,2.2,14.4,6.5,18.7c4.3,4.3,10.6,6.5,18.8,6.5
								c8.2,0,14.5-2.2,18.9-6.5C464.6-1797.9,466.8-1804.2,466.8-1812.4z"/>
						</g>
						<g>
							<path id="DejaVuSans-30_11_" d="M461.5-1876c0,5.1-1.7,8.9-5,11.5c-3.3,2.6-8.4,3.8-15.1,3.8c-6.7,0-11.7-1.3-15.1-3.8
								c-3.3-2.6-5-6.4-5-11.5c0-5.1,1.7-8.9,5-11.5c3.3-2.6,8.4-3.8,15.1-3.8c6.7,0,11.8,1.3,15.1,3.8
								C459.9-1884.9,461.5-1881.1,461.5-1876z M466.8-1876c0-8.2-2.2-14.4-6.5-18.7c-4.3-4.3-10.6-6.5-18.9-6.5
								c-8.2,0-14.5,2.2-18.8,6.5c-4.3,4.3-6.5,10.6-6.5,18.7c0,8.2,2.2,14.4,6.5,18.7c4.3,4.3,10.6,6.5,18.8,6.5
								c8.2,0,14.5-2.2,18.9-6.5C464.6-1861.6,466.8-1867.8,466.8-1876z"/>
						</g>
					</g>
				</g>
			</g>
			<g id="ytick_7">
				<g id="line2d_15">
					<g>
						<defs>
							<rect id="SVGID_17_" x="55.6" y="121" width="443.5" height="186.9"/>
						</defs>
						<clipPath id="SVGID_18_">
							<use xlink:href="#SVGID_17_"  style="overflow:visible;"/>
						</clipPath>
						<path class="st10" d="M421,121l0,186.9"/>
					</g>
				</g>
				<g id="line2d_16">
					<g>
						<g>
							<path id="me4edaa8c95_6_" class="st4" d="M421,121v-2.3"/>
						</g>
					</g>
				</g>
				<g id="text_9">
					<g transform="translate(60.934187 119.910637) rotate(-90) scale(0.16 -0.16)">
						<g>
							<path id="DejaVuSans-31_1_" d="M41.9-2046.4l0-16.1h37.3l-2.4,17.5h6l2.4-17.4v-9.9H41.9l0-16.1h-5.6l0,42H41.9z"/>
						</g>
						<g>
							<path id="DejaVuSans-32_1_" d="M41.9-2116.8l0-34.4h-5.6l0,46.3h5.6c2.6-3.7,6.1-8.8,10.4-15.3c4.4-6.5,7.2-10.5,8.5-12.2
								c2.4-3.2,4.4-5.4,6-6.6c1.6-1.3,3.3-1.9,4.9-1.9c2.6,0,4.7,1.4,6.3,4.1c1.6,2.7,2.5,6.3,2.5,10.6c0,3.1-0.4,6.4-1.1,9.8
								c-0.7,3.4-1.8,7.1-3.3,11h6.7c1.1-4,1.9-7.7,2.4-11.1c0.5-3.5,0.8-6.6,0.8-9.5c0-7.6-1.3-13.6-3.8-18.1
								c-2.5-4.5-5.9-6.7-10.1-6.7c-2,0-3.9,0.6-5.7,1.7c-1.8,1.1-3.9,3.2-6.4,6.1c-0.6,0.8-2.5,3.4-5.5,7.8
								C51.6-2130.9,47.4-2124.8,41.9-2116.8z"/>
						</g>
						<g>
							<path id="DejaVuSans-30_12_" d="M80.9-2193c0,5.1-1.7,8.9-5,11.5c-3.3,2.6-8.4,3.8-15.1,3.8c-6.7,0-11.7-1.3-15.1-3.8
								c-3.3-2.6-5-6.4-5-11.5c0-5.1,1.7-8.9,5-11.5c3.3-2.6,8.4-3.8,15.1-3.8c6.7,0,11.8,1.3,15.1,3.8
								C79.2-2202,80.9-2198.1,80.9-2193z M86.1-2193c0-8.2-2.2-14.4-6.5-18.7c-4.3-4.3-10.6-6.5-18.9-6.5c-8.2,0-14.5,2.2-18.8,6.5
								c-4.3,4.3-6.5,10.6-6.5,18.7c0,8.2,2.2,14.4,6.5,18.7c4.3,4.3,10.6,6.5,18.8,6.5c8.2,0,14.5-2.2,18.9-6.5
								C83.9-2178.6,86.1-2184.9,86.1-2193z"/>
						</g>
						<g>
							<path id="DejaVuSans-30_13_" d="M80.9-2256.7c0,5.1-1.7,8.9-5,11.5c-3.3,2.6-8.4,3.8-15.1,3.8c-6.7,0-11.7-1.3-15.1-3.8
								c-3.3-2.6-5-6.4-5-11.5c0-5.1,1.7-8.9,5-11.5c3.3-2.6,8.4-3.8,15.1-3.8c6.7,0,11.8,1.3,15.1,3.8
								C79.2-2265.6,80.9-2261.8,80.9-2256.7z M86.1-2256.7c0-8.2-2.2-14.4-6.5-18.7c-4.3-4.3-10.6-6.5-18.9-6.5
								c-8.2,0-14.5,2.2-18.8,6.5c-4.3,4.3-6.5,10.6-6.5,18.7c0,8.2,2.2,14.4,6.5,18.7c4.3,4.3,10.6,6.5,18.8,6.5
								c8.2,0,14.5-2.2,18.9-6.5C83.9-2242.2,86.1-2248.5,86.1-2256.7z"/>
						</g>
					</g>
				</g>
			</g>
			<g id="ytick_8">
				<g id="line2d_17">
					<g>
						<defs>
							<rect id="SVGID_19_" x="55.6" y="121" width="443.5" height="186.9"/>
						</defs>
						<clipPath id="SVGID_20_">
							<use xlink:href="#SVGID_19_"  style="overflow:visible;"/>
						</clipPath>
						<path class="st11" d="M481.9,121l0,186.9"/>
					</g>
				</g>
				<g id="line2d_18">
					<g>
						<g>
							<path id="me4edaa8c95_7_" class="st4" d="M481.9,121v-2.3"/>
						</g>
					</g>
				</g>
				<g id="text_10">
					<g transform="translate(60.934187 59.002202) rotate(-90) scale(0.16 -0.16)">
						<g>
							<path id="DejaVuSans-31_2_" d="M-338.8-2427.1l0-16.1h37.3l-2.4,17.5h6l2.4-17.4v-9.9h-43.3v-16.1h-5.6l0,42H-338.8z"/>
						</g>
						<g>
							<path id="DejaVuSans-34_1_" d="M-301.2-2516.1l-26.1,24.9v-24.9H-301.2z M-295.5-2513.5v-12.4h-31.8l0-10.4h-5.5l0,10.4
								h-11.5v9.8h11.5v32.9h6.4L-295.5-2513.5z"/>
						</g>
						<g>
							<path id="DejaVuSans-30_14_" d="M-299.8-2573.7c0,5.1-1.7,8.9-5,11.5c-3.3,2.6-8.4,3.8-15.1,3.8c-6.7,0-11.7-1.3-15.1-3.8
								c-3.3-2.6-5-6.4-5-11.5c0-5.1,1.7-8.9,5-11.5c3.3-2.6,8.4-3.8,15.1-3.8c6.7,0,11.8,1.3,15.1,3.8
								C-301.5-2582.7-299.8-2578.8-299.8-2573.7z M-294.6-2573.7c0-8.2-2.2-14.4-6.5-18.7c-4.3-4.3-10.6-6.5-18.9-6.5
								c-8.2,0-14.5,2.2-18.8,6.5c-4.3,4.3-6.5,10.6-6.5,18.7c0,8.2,2.2,14.4,6.5,18.7c4.3,4.3,10.6,6.5,18.8,6.5
								c8.2,0,14.5-2.2,18.9-6.5C-296.8-2559.3-294.6-2565.5-294.6-2573.7z"/>
						</g>
						<g>
							<path id="DejaVuSans-30_15_" d="M-299.8-2637.3c0,5.1-1.7,8.9-5,11.5c-3.3,2.6-8.4,3.8-15.1,3.8c-6.7,0-11.7-1.3-15.1-3.8
								c-3.3-2.6-5-6.4-5-11.5c0-5.1,1.7-8.9,5-11.5c3.3-2.6,8.4-3.8,15.1-3.8c6.7,0,11.8,1.3,15.1,3.8
								C-301.5-2646.3-299.8-2642.4-299.8-2637.3z M-294.6-2637.3c0-8.2-2.2-14.4-6.5-18.7c-4.3-4.3-10.6-6.5-18.9-6.5
								c-8.2,0-14.5,2.2-18.8,6.5c-4.3,4.3-6.5,10.6-6.5,18.7c0,8.2,2.2,14.4,6.5,18.7c4.3,4.3,10.6,6.5,18.8,6.5
								c8.2,0,14.5-2.2,18.9-6.5C-296.8-2622.9-294.6-2629.2-294.6-2637.3z"/>
						</g>
					</g>
				</g>
			</g>
			<g id="text_11">
				<g transform="translate(20.877188 280.503281) rotate(-90) scale(0.18 -0.18)">
					<g>
						<path id="DejaVuSans-42" d="M1117.2-1158h-27.6v-15.8c0-5.3,1.1-9.2,3.4-11.8c2.3-2.6,5.8-3.8,10.4-3.8
							c4.7,0,8.2,1.3,10.4,3.8c2.2,2.6,3.4,6.5,3.4,11.8V-1158z M1148.2-1158h-22.7v-14.6c0-4.8,0.9-8.4,2.8-10.8
							c1.9-2.4,4.7-3.5,8.6-3.5c3.8,0,6.7,1.2,8.5,3.5c1.9,2.4,2.8,5.9,2.8,10.8V-1158z M1156.6-1148.2v-25.2
							c0-7.5-1.6-13.3-4.9-17.4c-3.2-4.1-7.8-6.1-13.8-6.1c-4.6,0-8.3,1-11,3.1s-4.4,5.1-5.1,9.2c-1.1-4.9-3.3-8.6-6.8-11.3
							c-3.4-2.7-7.7-4-12.8-4c-6.7,0-11.9,2.2-15.6,6.6c-3.7,4.4-5.5,10.7-5.5,18.9v26.2H1156.6z"/>
					</g>
					<g>
						<path id="DejaVuSans-69_1_" d="M1137.8-1216.4v-9h-56.6v9H1137.8z M1159.8-1216.4v-9H1148v9H1159.8z"/>
					</g>
					<g>
						<path id="DejaVuSans-72_1_" d="M1129.1-1275.9c0.6,1,1,2.1,1.3,3.3c0.3,1.2,0.4,2.5,0.4,3.9c0,5.1-1.7,9-5.1,11.7
							c-3.4,2.7-8.3,4.1-14.7,4.1h-29.8v9h56.6v-9h-8.8c3.4-1.9,6-4.4,7.6-7.4c1.7-3,2.5-6.7,2.5-11c0-0.6,0-1.3-0.1-2
							c-0.1-0.8-0.2-1.6-0.4-2.5L1129.1-1275.9z"/>
					</g>
					<g>
						<path id="DejaVuSans-74_1_" d="M1153.8-1294.2h-16.1v-18.5h-7.2v18.5h-30.7c-4.6,0-7.6-0.6-8.9-1.8c-1.3-1.2-2-3.7-2-7.5
							l0-9.2h-7.8v9.2c0,6.9,1.3,11.7,4,14.4c2.7,2.6,7.6,4,14.6,4h30.7v6.6h7.2v-6.6h16.1V-1294.2z"/>
					</g>
					<g>
						<path id="DejaVuSans-68" d="M1115.3-1370h-34.2v9h33.9c5.4,0,9.4,1,12,3c2.7,2,4,5,4,9.1c0,4.9-1.6,8.7-4.8,11.5
							c-3.2,2.8-7.6,4.2-13.1,4.2h-32v9h78.6l0-9H1129c3.4-2.2,5.9-4.7,7.6-7.6c1.7-2.9,2.5-6.3,2.5-10.1c0-6.3-2-11-6-14.2
							C1129.1-1368.3,1123.2-1370,1115.3-1370z"/>
					</g>
					<g>
						<path id="DejaVuSans-20" d="M1081.2-1378.4"/>
					</g>
					<g>
						<path id="DejaVuSans-70" d="M1089.7-1428.3h-30v9h78.1v-9h-8.6c3.4-1.9,5.9-4.3,7.5-7.2c1.6-2.9,2.5-6.3,2.5-10.3
							c0-6.6-2.7-12-8.2-16.2c-5.5-4.2-12.6-6.2-21.5-6.2c-8.9,0-16.1,2.1-21.5,6.2c-5.5,4.1-8.2,9.5-8.2,16.2c0,4,0.8,7.4,2.5,10.3
							C1083.8-1432.6,1086.3-1430.2,1089.7-1428.3z M1109.4-1458.9c6.8,0,12.2,1.4,16.1,4.1s5.8,6.5,5.8,11.2
							c0,4.8-1.9,8.5-5.8,11.2s-9.3,4.1-16.1,4.1c-6.8,0-12.2-1.4-16.1-4.1c-3.9-2.7-5.8-6.5-5.8-11.2c0-4.8,1.9-8.5,5.8-11.2
							S1102.6-1458.9,1109.4-1458.9z"/>
					</g>
					<g>
						<path id="DejaVuSans-6c_1_" d="M1159.8-1483.1l0-9h-78.6v9H1159.8z"/>
					</g>
					<g>
						<path id="DejaVuSans-61_1_" d="M1109.6-1535.8c0,7.3-0.9,12.3-2.6,15.1c-1.7,2.8-4.6,4.2-8.8,4.2c-3.3,0-5.9-1.1-7.9-3.2
							c-1.9-2.1-2.9-5-2.9-8.6c0-5,1.8-9,5.5-12c3.7-3,8.5-4.5,14.6-4.5h2.1V-1535.8z M1113.5-1553.7h-32.3v9h8.6
							c-3.4,2.1-6,4.6-7.6,7.7s-2.5,6.8-2.5,11.2c0,5.6,1.6,10,4.9,13.4c3.3,3.3,7.6,5,13.1,5c6.4,0,11.2-2.1,14.4-6.2
							c3.2-4.1,4.9-10.3,4.9-18.4v-12.6h0.9c4.3,0,7.6,1.4,9.9,4.1s3.5,6.5,3.5,11.5c0,3.1-0.4,6.2-1.2,9.1c-0.8,3-1.9,5.8-3.5,8.5
							h8.6c1.3-3.3,2.3-6.5,2.9-9.6c0.7-3.1,1-6.1,1-9c0-7.9-2.1-13.8-6.4-17.7C1128.5-1551.7,1122.1-1553.7,1113.5-1553.7z"/>
					</g>
					<g>
						<path id="DejaVuSans-63" d="M1135.6-1611.6h-8.7c1.5,2.5,2.5,5.1,3.3,7.6s1.1,5.1,1.1,7.7c0,5.8-1.9,10.4-5.7,13.6
							c-3.8,3.2-9.2,4.8-16.1,4.8s-12.3-1.6-16.1-4.8c-3.8-3.2-5.7-7.8-5.7-13.6c0-2.6,0.4-5.2,1.1-7.7c0.7-2.6,1.8-5.1,3.3-7.6
							h-8.6c-1.2,2.5-2.1,5.1-2.7,7.8c-0.6,2.7-0.9,5.5-0.9,8.6c0,8.2,2.7,14.8,8,19.6c5.4,4.8,12.6,7.3,21.7,7.3
							c9.2,0,16.5-2.4,21.8-7.3c5.3-4.9,7.9-11.6,7.9-20.2c0-2.8-0.3-5.5-0.9-8.1C1137.7-1606.5,1136.8-1609.1,1135.6-1611.6z"/>
					</g>
					<g>
						<path id="DejaVuSans-65" d="M1111.8-1674h-4.5v41.3c-6.4-0.4-11.3-2.3-14.6-5.6c-3.4-3.3-5-8-5-13.9c0-3.4,0.4-6.8,1.3-10
							c0.9-3.2,2.2-6.5,3.9-9.7h-8.8c-1.4,3.2-2.5,6.5-3.2,9.9c-0.7,3.4-1.1,6.8-1.1,10.3c0,8.7,2.6,15.6,7.9,20.7
							c5.3,5.1,12.4,7.6,21.3,7.6c9.3,0,16.6-2.4,22-7.2c5.4-4.8,8.2-11.4,8.2-19.6c0-7.4-2.5-13.2-7.4-17.5
							C1126.9-1671.8,1120.2-1674,1111.8-1674z M1114.5-1665c5.1,0.1,9.1,1.4,12.2,4.1c3,2.7,4.6,6.2,4.6,10.7c0,5-1.5,9-4.4,12
							c-2.9,3-7.1,4.7-12.4,5.2L1114.5-1665z"/>
					</g>
					<g>
						<path id="DejaVuSans-20_1_" d="M1081.2-1679.3"/>
					</g>
				</g>
				<g transform="translate(41.03325 228.96) rotate(-90) scale(0.18 -0.18)">
				</g>
			</g>
		</g>
		<g id="patch_5">
			<path class="st12" d="M55.6,121l443.5,0"/>
		</g>
		<g id="patch_6">
			<path class="st12" d="M55.6,307.9l443.5,0"/>
		</g>
		<g id="patch_7">
			<path class="st12" d="M55.6,121l0,186.9"/>
		</g>
		<g id="patch_8">
			<path class="st12" d="M499.1,121l0,186.9"/>
		</g>
	</g>
</g>
</svg>
