<?xml version="1.0" encoding="utf-8"?>
<!-- Generator: Adobe Illustrator 24.1.3, SVG Export Plug-In . SVG Version: 6.00 Build 0)  -->
<svg version="1.1" id="Layer_1" xmlns="http://www.w3.org/2000/svg" xmlns:xlink="http://www.w3.org/1999/xlink" x="0px" y="0px"
	 viewBox="0 0 526.8 393.8" style="enable-background:new 0 0 526.8 393.8;" xml:space="preserve">
<style type="text/css">
	.st0{fill:#FFFFFF;}
	.st1{clip-path:url(#SVGID_2_);fill:#EBDFE8;stroke:#000000;stroke-width:1.2;}
	.st2{clip-path:url(#SVGID_4_);fill:#99CCCD;stroke:#000000;stroke-width:1.2;}
	.st3{clip-path:url(#SVGID_6_);fill:#EDC0E3;stroke:#000000;stroke-width:1.2;}
	.st4{stroke:#000000;stroke-width:0.8;stroke-linejoin:round;}
	
		.st5{clip-path:url(#SVGID_8_);fill:none;stroke:#B0B0B0;stroke-width:0.8;stroke-linejoin:round;stroke-opacity:0.5;stroke-dasharray:2.96,1.28;}
	
		.st6{clip-path:url(#SVGID_10_);fill:none;stroke:#B0B0B0;stroke-width:0.8;stroke-linejoin:round;stroke-opacity:0.5;stroke-dasharray:2.96,1.28;}
	
		.st7{clip-path:url(#SVGID_12_);fill:none;stroke:#B0B0B0;stroke-width:0.8;stroke-linejoin:round;stroke-opacity:0.5;stroke-dasharray:2.96,1.28;}
	
		.st8{clip-path:url(#SVGID_14_);fill:none;stroke:#B0B0B0;stroke-width:0.8;stroke-linejoin:round;stroke-opacity:0.5;stroke-dasharray:2.96,1.28;}
	
		.st9{clip-path:url(#SVGID_16_);fill:none;stroke:#B0B0B0;stroke-width:0.8;stroke-linejoin:round;stroke-opacity:0.5;stroke-dasharray:2.96,1.28;}
	
		.st10{clip-path:url(#SVGID_18_);fill:none;stroke:#B0B0B0;stroke-width:0.8;stroke-linejoin:round;stroke-opacity:0.5;stroke-dasharray:2.96,1.28;}
	
		.st11{clip-path:url(#SVGID_20_);fill:none;stroke:#B0B0B0;stroke-width:0.8;stroke-linejoin:round;stroke-opacity:0.5;stroke-dasharray:2.96,1.28;}
	.st12{fill:none;stroke:#000000;stroke-width:0.8;stroke-linecap:square;}
</style>
<g id="figure_1">
	<g id="axes_1">
		<g id="patch_2">
			<path class="st0" d="M40,85.2l0,279l443.5,0l0-279L40,85.2z"/>
		</g>
		<g id="patch_3">
			<g>
				<defs>
					<rect id="SVGID_1_" x="40" y="85.2" width="443.5" height="279"/>
				</defs>
				<clipPath id="SVGID_2_">
					<use xlink:href="#SVGID_1_"  style="overflow:visible;"/>
				</clipPath>
				<path class="st1" d="M40,97.9l0,72.5l422.4,0l0-72.5L40,97.9z"/>
			</g>
		</g>
		<g id="patch_4">
			<g>
				<defs>
					<rect id="SVGID_3_" x="40" y="85.2" width="443.5" height="279"/>
				</defs>
				<clipPath id="SVGID_4_">
					<use xlink:href="#SVGID_3_"  style="overflow:visible;"/>
				</clipPath>
				<path class="st2" d="M40,188.5l0,72.5l411.5,0l0-72.5L40,188.5z"/>
			</g>
		</g>
		<g id="patch_5">
			<g>
				<defs>
					<rect id="SVGID_5_" x="40" y="85.2" width="443.5" height="279"/>
				</defs>
				<clipPath id="SVGID_6_">
					<use xlink:href="#SVGID_5_"  style="overflow:visible;"/>
				</clipPath>
				<path class="st3" d="M40,279.1l0,72.5h18l0-72.5H40z"/>
			</g>
		</g>
		<g id="matplotlib.axis_1">
			<g id="xtick_1">
				<g id="line2d_1">
					<g>
						<g>
							<path id="m3553660210" class="st4" d="M373.5,134.2H370"/>
						</g>
					</g>
				</g>
				<g id="text_1">
					<g transform="translate(124.592272 741.3) rotate(-90) scale(0.16 -0.16)">
						<g>
							<path id="DejaVuSans-49" d="M3839.8,250.9v-9.9l-72.9,0v9.9L3839.8,250.9z"/>
						</g>
						<g>
							<path id="DejaVuSans-20" d="M3766.9,231.3"/>
						</g>
						<g>
							<path id="DejaVuSans-68" d="M3799.9,144.6l-33,0v9l32.7,0c5.2,0,9,1,11.6,3c2.6,2,3.9,5,3.9,9.1c0,4.9-1.5,8.7-4.6,11.5
								c-3.1,2.8-7.3,4.2-12.6,4.2l-30.9,0v9l76,0v-9l-29.8,0c3.3-2.2,5.8-4.7,7.4-7.6c1.6-2.9,2.4-6.3,2.4-10.1
								c0-6.3-1.9-11-5.8-14.2C3813.2,146.2,3807.4,144.6,3799.9,144.6z"/>
						</g>
						<g>
							<path id="DejaVuSans-61" d="M3794.4,101.8c0,7.3-0.8,12.3-2.5,15.1c-1.7,2.8-4.5,4.2-8.5,4.2c-3.2,0-5.7-1.1-7.6-3.2
								c-1.9-2.1-2.8-5-2.8-8.6c0-5,1.8-9,5.3-12c3.5-3,8.2-4.5,14.1-4.5h2V101.8z M3798.1,83.9l-31.2,0v9h8.3
								c-3.3,2.1-5.8,4.6-7.3,7.7c-1.6,3.1-2.4,6.8-2.4,11.2c0,5.6,1.6,10,4.7,13.4c3.1,3.3,7.4,5,12.6,5c6.1,0,10.8-2.1,13.9-6.2
								c3.1-4.1,4.7-10.3,4.7-18.4V92.9h0.9c4.1,0,7.3,1.4,9.6,4.1c2.3,2.7,3.4,6.5,3.4,11.5c0,3.1-0.4,6.2-1.1,9.1
								c-0.8,3-1.9,5.8-3.4,8.5h8.3c1.3-3.3,2.2-6.5,2.8-9.6c0.6-3.1,1-6.1,1-9c0-7.9-2.1-13.8-6.2-17.7
								C3812.6,85.8,3806.4,83.9,3798.1,83.9z"/>
						</g>
						<g>
							<path id="DejaVuSans-76" d="M3821.6,71.8v-9.5l-45.9-17.1l45.9-17.1v-9.5l-54.7,20.5v12.2L3821.6,71.8z"/>
						</g>
						<g>
							<path id="DejaVuSans-65" d="M3796.5-40.6h-4.4V0.7c-6.2-0.4-10.9-2.3-14.1-5.6c-3.2-3.3-4.9-8-4.9-13.9c0-3.4,0.4-6.8,1.3-10
								c0.8-3.2,2.1-6.5,3.8-9.7l-8.5,0c-1.4,3.2-2.4,6.5-3.1,9.9s-1.1,6.8-1.1,10.3c0,8.7,2.5,15.6,7.6,20.7
								c5.1,5.1,12,7.6,20.6,7.6c8.9,0,16-2.4,21.3-7.2c5.3-4.8,7.9-11.4,7.9-19.6c0-7.4-2.4-13.2-7.1-17.5
								C3811-38.4,3804.6-40.6,3796.5-40.6z M3799.1-31.6c4.9,0.1,8.8,1.4,11.8,4.1c2.9,2.7,4.4,6.2,4.4,10.7c0,5-1.4,9-4.2,12
								c-2.8,3-6.8,4.7-12,5.2L3799.1-31.6z"/>
						</g>
						<g>
							<path id="DejaVuSans-20_1_" d="M3766.9-45.9"/>
						</g>
						<g>
							<path id="DejaVuSans-6d" d="M3811.1-129.7c4-2.2,7-4.9,8.9-8.1c1.9-3.1,2.9-6.8,2.9-11c0-5.7-2-10.1-6-13.2
								c-4-3.1-9.6-4.6-17-4.6l-33,0v9l32.7,0c5.2,0,9.1,0.9,11.7,2.8c2.5,1.9,3.8,4.7,3.8,8.5c0,4.7-1.5,8.3-4.6,11
								c-3.1,2.7-7.3,4-12.6,4l-30.9,0v9l32.7,0c5.3,0,9.2,0.9,11.7,2.8c2.5,1.9,3.8,4.7,3.8,8.6c0,4.6-1.6,8.2-4.7,11
								c-3.1,2.7-7.3,4-12.6,4l-30.9,0v9l54.7,0v-9h-8.5c3.4-2.1,5.8-4.5,7.4-7.4s2.4-6.3,2.4-10.2c0-4-1-7.4-3-10.1
								C3817.8-126.3,3814.9-128.3,3811.1-129.7z"/>
						</g>
						<g>
							<path id="DejaVuSans-6f" d="M3815.3-205.7c0,4.8-1.9,8.6-5.6,11.4c-3.8,2.8-8.9,4.2-15.5,4.2c-6.5,0-11.7-1.4-15.5-4.2
								c-3.8-2.8-5.6-6.6-5.6-11.5c0-4.8,1.9-8.6,5.7-11.4c3.8-2.8,8.9-4.2,15.4-4.2c6.5,0,11.6,1.4,15.4,4.2
								C3813.4-214.3,3815.3-210.5,3815.3-205.7z M3822.9-205.7c0-7.8-2.5-13.9-7.6-18.4c-5.1-4.5-12.1-6.7-21.1-6.7
								c-8.9,0-16,2.2-21.1,6.7c-5.1,4.5-7.6,10.6-7.6,18.4c0,7.8,2.5,14,7.6,18.4c5.1,4.4,12.1,6.7,21.1,6.7c9,0,16-2.2,21.1-6.7
								C3820.3-191.7,3822.9-197.9,3822.9-205.7z"/>
						</g>
						<g>
							<path id="DejaVuSans-64" d="M3813.3-281.7h29.6v-9l-76,0v9h8.2c-3.2,1.9-5.7,4.3-7.2,7.2c-1.6,2.9-2.4,6.3-2.4,10.4
								c0,6.6,2.6,12,7.9,16.1c5.3,4.1,12.2,6.2,20.8,6.2s15.5-2.1,20.8-6.2c5.3-4.2,7.9-9.5,7.9-16.1c0-4-0.8-7.5-2.4-10.4
								C3818.9-277.4,3816.5-279.8,3813.3-281.7z M3794.2-251.1c-6.6,0-11.8-1.4-15.5-4.1c-3.8-2.7-5.6-6.5-5.6-11.2
								s1.9-8.5,5.6-11.2c3.8-2.7,8.9-4.1,15.5-4.1c6.6,0,11.8,1.4,15.5,4.1c3.8,2.7,5.6,6.5,5.6,11.2s-1.9,8.5-5.6,11.2
								C3806-252.4,3800.8-251.1,3794.2-251.1z"/>
						</g>
						<g>
							<path id="DejaVuSans-65_1_" d="M3796.5-355.9l-4.4,0l0,41.3c-6.2-0.4-10.9-2.3-14.1-5.6c-3.2-3.3-4.9-8-4.9-13.9
								c0-3.4,0.4-6.8,1.3-10c0.8-3.2,2.1-6.5,3.8-9.7h-8.5c-1.4,3.2-2.4,6.5-3.1,9.9s-1.1,6.8-1.1,10.3c0,8.7,2.5,15.6,7.6,20.7
								c5.1,5.1,12,7.6,20.6,7.6c8.9,0,16-2.4,21.3-7.2c5.3-4.8,7.9-11.4,7.9-19.6c0-7.4-2.4-13.2-7.1-17.5
								C3811-353.8,3804.6-355.9,3796.5-355.9z M3799.1-347c4.9,0.1,8.8,1.4,11.8,4.1c2.9,2.7,4.4,6.2,4.4,10.7c0,5-1.4,9-4.3,12
								c-2.8,3-6.8,4.7-12,5.2L3799.1-347z"/>
						</g>
						<g>
							<path id="DejaVuSans-72" d="M3813.2-402.4c0.6,1,1,2.1,1.3,3.3c0.3,1.2,0.4,2.5,0.4,3.9c0,5.1-1.7,9-5,11.7
								c-3.3,2.7-8,4.1-14.2,4.1l-28.8,0v9l54.7,0v-9h-8.5c3.3-1.9,5.8-4.4,7.4-7.4c1.6-3,2.4-6.7,2.4-11c0-0.6,0-1.3-0.1-2
								c-0.1-0.8-0.2-1.6-0.4-2.5L3813.2-402.4z"/>
						</g>
						<g>
							<path id="DejaVuSans-61_1_" d="M3794.4-436.7c0,7.3-0.8,12.3-2.5,15.1c-1.7,2.8-4.5,4.2-8.5,4.2c-3.2,0-5.7-1.1-7.6-3.2
								c-1.9-2.1-2.8-5-2.8-8.6c0-5,1.8-9,5.3-12c3.5-3,8.2-4.5,14.1-4.5h2V-436.7z M3798.1-454.6l-31.2,0v9h8.3
								c-3.3,2.1-5.8,4.6-7.3,7.7c-1.6,3.1-2.4,6.8-2.4,11.2c0,5.6,1.6,10,4.7,13.4c3.1,3.3,7.4,5,12.6,5c6.1,0,10.8-2.1,13.9-6.2
								c3.1-4.1,4.7-10.3,4.7-18.4v-12.6h0.9c4.1,0,7.3,1.4,9.6,4.1c2.3,2.7,3.4,6.5,3.4,11.5c0,3.1-0.4,6.2-1.1,9.1
								c-0.8,3-1.9,5.8-3.4,8.5h8.3c1.3-3.3,2.2-6.5,2.8-9.6c0.6-3.1,1-6.1,1-9c0-7.9-2.1-13.8-6.2-17.7
								C3812.6-452.6,3806.4-454.6,3798.1-454.6z"/>
						</g>
						<g>
							<path id="DejaVuSans-74" d="M3837.1-482h-15.5v-18.5h-7v18.5l-29.7,0c-4.5,0-7.3-0.6-8.6-1.8s-1.9-3.7-1.9-7.5v-9.2h-7.5v9.2
								c0,6.9,1.3,11.7,3.9,14.4c2.6,2.6,7.3,4,14.1,4l29.7,0v6.6h7v-6.6h15.5V-482z"/>
						</g>
						<g>
							<path id="DejaVuSans-65_2_" d="M3796.5-559.1h-4.4v41.3c-6.2-0.4-10.9-2.3-14.1-5.6c-3.2-3.3-4.9-8-4.9-13.9
								c0-3.4,0.4-6.8,1.3-10s2.1-6.5,3.8-9.7h-8.5c-1.4,3.2-2.4,6.5-3.1,9.9s-1.1,6.8-1.1,10.3c0,8.7,2.5,15.6,7.6,20.7
								c5.1,5.1,12,7.6,20.6,7.6c8.9,0,16-2.4,21.3-7.3c5.3-4.8,7.9-11.4,7.9-19.6c0-7.4-2.4-13.2-7.1-17.5
								C3811-556.9,3804.6-559.1,3796.5-559.1z M3799.1-550.1c4.9,0.1,8.8,1.4,11.8,4.1c2.9,2.7,4.4,6.2,4.4,10.7c0,5-1.4,9-4.2,12
								c-2.8,3-6.8,4.7-12,5.2L3799.1-550.1z"/>
						</g>
						<g>
							<path id="DejaVuSans-20_2_" d="M3766.9-564.4"/>
						</g>
						<g>
							<path id="DejaVuSans-70" d="M3775.1-614.3h-29v9l75.5,0v-9h-8.3c3.2-1.9,5.7-4.3,7.2-7.2c1.6-2.9,2.4-6.3,2.4-10.3
								c0-6.6-2.6-12-7.9-16.2c-5.3-4.2-12.2-6.2-20.8-6.2s-15.5,2.1-20.8,6.2c-5.3,4.1-7.9,9.5-7.9,16.2c0,4,0.8,7.4,2.4,10.3
								C3769.4-618.6,3771.8-616.2,3775.1-614.3z M3794.2-644.9c6.6,0,11.8,1.4,15.5,4.1c3.8,2.7,5.6,6.5,5.6,11.2
								c0,4.8-1.9,8.5-5.6,11.2c-3.8,2.7-8.9,4.1-15.5,4.1s-11.8-1.4-15.5-4.1s-5.6-6.5-5.6-11.2c0-4.8,1.9-8.5,5.6-11.2
								C3782.4-643.5,3787.6-644.9,3794.2-644.9z"/>
						</g>
						<g>
							<path id="DejaVuSans-61_2_" d="M3794.4-693.9c0,7.3-0.8,12.3-2.5,15.1c-1.7,2.8-4.5,4.2-8.5,4.2c-3.2,0-5.7-1.1-7.6-3.2
								c-1.9-2.1-2.8-5-2.8-8.6c0-5,1.8-9,5.3-12c3.5-3,8.2-4.5,14.1-4.5h2V-693.9z M3798.1-711.9h-31.2v9h8.3
								c-3.3,2.1-5.8,4.6-7.3,7.7c-1.6,3.1-2.4,6.8-2.4,11.2c0,5.6,1.6,10,4.7,13.4c3.1,3.3,7.4,5,12.6,5c6.1,0,10.8-2.1,13.9-6.2
								c3.1-4.1,4.7-10.3,4.7-18.4v-12.6h0.9c4.1,0,7.3,1.4,9.6,4.1c2.3,2.7,3.4,6.5,3.4,11.5c0,3.1-0.4,6.2-1.1,9.1
								c-0.8,3-1.9,5.8-3.4,8.5h8.3c1.3-3.3,2.2-6.5,2.8-9.6c0.6-3.1,1-6.1,1-9c0-7.9-2.1-13.8-6.2-17.7
								C3812.6-709.9,3806.4-711.9,3798.1-711.9z"/>
						</g>
						<g>
							<path id="DejaVuSans-69" d="M3821.6-730.4v-9l-54.7,0v9L3821.6-730.4z M3842.9-730.4v-9h-11.4v9H3842.9z"/>
						</g>
						<g>
							<path id="DejaVuSans-6e" d="M3799.9-803.6h-33v9h32.7c5.2,0,9,1,11.6,3c2.6,2,3.9,5,3.9,9.1c0,4.9-1.5,8.7-4.6,11.5
								c-3.1,2.8-7.3,4.2-12.6,4.2h-30.9v9l54.7,0v-9h-8.5c3.3-2.2,5.8-4.7,7.4-7.6c1.6-2.9,2.4-6.3,2.4-10.1c0-6.3-1.9-11-5.8-14.2
								C3813.2-802,3807.4-803.6,3799.9-803.6z"/>
						</g>
						<g>
							<path id="DejaVuSans-20_3_" d="M3766.9-812.1"/>
						</g>
						<g>
							<path id="DejaVuSans-6f_1_" d="M3815.3-874.5c0,4.8-1.9,8.6-5.6,11.4c-3.8,2.8-8.9,4.2-15.5,4.2c-6.5,0-11.7-1.4-15.5-4.2
								c-3.8-2.8-5.6-6.6-5.6-11.5c0-4.8,1.9-8.6,5.7-11.4c3.8-2.8,8.9-4.2,15.4-4.2c6.5,0,11.6,1.4,15.4,4.2
								C3813.4-883.1,3815.3-879.3,3815.3-874.5z M3822.9-874.5c0-7.8-2.5-13.9-7.6-18.4c-5.1-4.5-12.1-6.7-21.1-6.7
								c-8.9,0-16,2.2-21.1,6.7c-5.1,4.5-7.6,10.6-7.6,18.4c0,7.8,2.5,14,7.6,18.4c5.1,4.4,12.1,6.7,21.1,6.7c9,0,16-2.2,21.1-6.7
								C3820.3-860.5,3822.9-866.7,3822.9-874.5z"/>
						</g>
						<g>
							<path id="DejaVuSans-72_1_" d="M3813.2-946.2c0.6,1,1,2.1,1.3,3.3c0.3,1.2,0.4,2.5,0.4,3.9c0,5.1-1.7,9-5,11.7
								c-3.3,2.7-8,4.1-14.2,4.1h-28.8v9l54.7,0v-9h-8.5c3.3-1.9,5.8-4.4,7.4-7.4c1.6-3,2.4-6.7,2.4-11c0-0.6,0-1.3-0.1-2
								c-0.1-0.8-0.2-1.6-0.4-2.5L3813.2-946.2z"/>
						</g>
						<g>
							<path id="DejaVuSans-20_4_" d="M3766.9-946.2"/>
						</g>
						<g>
							<path id="DejaVuSans-64_1_" d="M3813.3-1023.4h29.6v-9h-76v9h8.2c-3.2,1.9-5.7,4.3-7.2,7.2c-1.6,2.9-2.4,6.3-2.4,10.4
								c0,6.6,2.6,12,7.9,16.1c5.3,4.1,12.2,6.2,20.8,6.2c8.6,0,15.5-2.1,20.8-6.2c5.3-4.2,7.9-9.5,7.9-16.1c0-4-0.8-7.5-2.4-10.4
								C3818.9-1019.1,3816.5-1021.5,3813.3-1023.4z M3794.2-992.8c-6.6,0-11.8-1.4-15.5-4.1s-5.6-6.5-5.6-11.2s1.9-8.5,5.6-11.2
								c3.8-2.7,8.9-4.1,15.5-4.1c6.6,0,11.8,1.4,15.5,4.1c3.8,2.7,5.6,6.5,5.6,11.2s-1.9,8.5-5.6,11.2S3800.8-992.8,3794.2-992.8z"
								/>
						</g>
						<g>
							<path id="DejaVuSans-69_1_" d="M3821.6-1050.9v-9h-54.7v9H3821.6z M3842.9-1050.9v-9h-11.4v9H3842.9z"/>
						</g>
						<g>
							<path id="DejaVuSans-73" d="M3819.9-1113.5h-8.5c1.3,2.5,2.3,5.2,2.9,7.9c0.7,2.7,1,5.6,1,8.5c0,4.5-0.7,7.8-2,10
								c-1.4,2.2-3.4,3.3-6.2,3.3c-2.1,0-3.7-0.8-4.9-2.4s-2.3-4.8-3.4-9.6l-0.7-3.1c-1.4-6.4-3.3-10.9-5.8-13.6
								c-2.5-2.7-6-4-10.4-4c-5.1,0-9.1,2-12.1,6c-3,4-4.4,9.5-4.4,16.6c0,2.9,0.3,6,0.9,9.2s1.4,6.5,2.6,10h9.3
								c-1.7-3.3-3-6.6-3.9-9.8c-0.9-3.2-1.3-6.4-1.3-9.6c0-4.2,0.7-7.5,2.2-9.8c1.4-2.3,3.5-3.4,6.1-3.4c2.4,0,4.3,0.8,5.6,2.5
								c1.3,1.6,2.6,5.2,3.8,10.8l0.7,3.1c1.2,5.6,3,9.6,5.4,12.1c2.4,2.5,5.8,3.7,10,3.7c5.1,0,9.1-1.8,11.9-5.5
								c2.8-3.6,4.2-8.8,4.2-15.5c0-3.3-0.2-6.4-0.7-9.4C3821.7-1108.3,3820.9-1111,3819.9-1113.5z"/>
						</g>
						<g>
							<path id="DejaVuSans-63" d="M3819.5-1170.1h-8.4c1.4,2.5,2.5,5.1,3.2,7.6c0.7,2.6,1,5.1,1,7.7c0,5.8-1.8,10.4-5.5,13.6
								c-3.7,3.2-8.9,4.8-15.5,4.8c-6.7,0-11.9-1.6-15.6-4.8c-3.7-3.2-5.5-7.8-5.5-13.6c0-2.6,0.3-5.2,1-7.7
								c0.7-2.6,1.8-5.1,3.2-7.6h-8.3c-1.2,2.5-2,5.1-2.6,7.8c-0.6,2.7-0.9,5.5-0.9,8.6c0,8.2,2.6,14.8,7.8,19.6
								c5.2,4.8,12.2,7.3,21,7.3c8.9,0,15.9-2.4,21-7.3c5.1-4.9,7.7-11.6,7.7-20.2c0-2.8-0.3-5.5-0.9-8.1
								C3821.4-1165.1,3820.6-1167.6,3819.5-1170.1z"/>
						</g>
						<g>
							<path id="DejaVuSans-6f_2_" d="M3815.3-1206.9c0,4.8-1.9,8.6-5.6,11.4c-3.8,2.8-8.9,4.2-15.5,4.2c-6.5,0-11.7-1.4-15.5-4.2
								c-3.8-2.8-5.6-6.6-5.6-11.5c0-4.8,1.9-8.6,5.7-11.4c3.8-2.8,8.9-4.2,15.4-4.2c6.5,0,11.6,1.4,15.4,4.2
								C3813.4-1215.5,3815.3-1211.7,3815.3-1206.9z M3822.9-1206.9c0-7.8-2.5-13.9-7.6-18.4c-5.1-4.5-12.1-6.7-21.1-6.7
								c-8.9,0-16,2.2-21.1,6.7c-5.1,4.5-7.6,10.6-7.6,18.4c0,7.8,2.5,14,7.6,18.4c5.1,4.4,12.1,6.7,21.1,6.7c9,0,16-2.2,21.1-6.7
								C3820.3-1192.9,3822.9-1199.1,3822.9-1206.9z"/>
						</g>
						<g>
							<path id="DejaVuSans-6d_1_" d="M3811.1-1289.5c4-2.2,7-4.9,8.9-8.1c1.9-3.1,2.9-6.8,2.9-11c0-5.7-2-10.1-6-13.2
								c-4-3.1-9.6-4.6-17-4.6h-33v9h32.7c5.2,0,9.1,0.9,11.7,2.8c2.5,1.9,3.8,4.7,3.8,8.5c0,4.7-1.5,8.3-4.6,11
								c-3.1,2.7-7.3,4-12.6,4h-30.9v9h32.7c5.3,0,9.2,0.9,11.7,2.8c2.5,1.9,3.8,4.7,3.8,8.6c0,4.6-1.6,8.2-4.7,11
								c-3.1,2.7-7.3,4-12.6,4h-30.9v9h54.7l0-9h-8.5c3.4-2.1,5.8-4.5,7.4-7.4c1.6-2.9,2.4-6.3,2.4-10.2c0-4-1-7.4-3-10.1
								C3817.8-1286.1,3814.9-1288.2,3811.1-1289.5z"/>
						</g>
						<g>
							<path id="DejaVuSans-66" d="M3842.9-1372l-7.5,0v8.6c0,3.2-0.7,5.5-2,6.7c-1.3,1.2-3.6,1.9-7,1.9h-4.8v-14.8h-7v14.8h-47.7v9
								h47.7v8.6h7v-8.6h3.8c6.1,0,10.5-1.4,13.3-4.2c2.8-2.8,4.2-7.3,4.2-13.5V-1372z"/>
						</g>
						<g>
							<path id="DejaVuSans-6f_3_" d="M3815.3-1400.7c0,4.8-1.9,8.6-5.6,11.4c-3.8,2.8-8.9,4.2-15.5,4.2c-6.5,0-11.7-1.4-15.5-4.2
								c-3.8-2.8-5.6-6.6-5.6-11.5c0-4.8,1.9-8.6,5.7-11.4c3.8-2.8,8.9-4.2,15.4-4.2c6.5,0,11.6,1.4,15.4,4.2
								C3813.4-1409.3,3815.3-1405.5,3815.3-1400.7z M3822.9-1400.7c0-7.8-2.5-13.9-7.6-18.4c-5.1-4.5-12.1-6.7-21.1-6.7
								c-8.9,0-16,2.2-21.1,6.7c-5.1,4.5-7.6,10.6-7.6,18.4c0,7.8,2.5,14,7.6,18.4c5.1,4.4,12.1,6.7,21.1,6.7c9,0,16-2.2,21.1-6.7
								C3820.3-1386.7,3822.9-1392.9,3822.9-1400.7z"/>
						</g>
						<g>
							<path id="DejaVuSans-72_2_" d="M3813.2-1472.4c0.6,1,1,2.1,1.3,3.3c0.3,1.2,0.4,2.5,0.4,3.9c0,5.1-1.7,9-5,11.7
								s-8,4.1-14.2,4.1h-28.8v9h54.7v-9h-8.5c3.3-1.9,5.8-4.4,7.4-7.4c1.6-3,2.4-6.7,2.4-11c0-0.6,0-1.3-0.1-2
								c-0.1-0.8-0.2-1.6-0.4-2.5L3813.2-1472.4z"/>
						</g>
						<g>
							<path id="DejaVuSans-74_1_" d="M3837.1-1490.7l-15.5,0v-18.5h-7v18.5h-29.7c-4.5,0-7.3-0.6-8.6-1.8s-1.9-3.7-1.9-7.5v-9.2
								h-7.5v9.2c0,6.9,1.3,11.7,3.9,14.4c2.6,2.6,7.3,4,14.1,4h29.7v6.6h7v-6.6l15.5,0V-1490.7z"/>
						</g>
					</g>
				</g>
			</g>
			<g id="xtick_2">
				<g id="line2d_2">
					<g>
						<g>
							<path id="m3553660210_1_" class="st4" d="M373.5,224.8H370"/>
						</g>
					</g>
				</g>
				<g id="text_2">
					<g transform="translate(215.176687 683.3525) rotate(-90) scale(0.16 -0.16)">
						<g>
							<path id="DejaVuSans-49_1_" d="M2911.5,454.9v-9.9l-72.9,0v9.9L2911.5,454.9z"/>
						</g>
						<g>
							<path id="DejaVuSans-20_5_" d="M2838.5,435.2"/>
						</g>
						<g>
							<path id="DejaVuSans-68_1_" d="M2871.6,348.6l-33,0v9l32.7,0c5.2,0,9,1,11.6,3c2.6,2,3.9,5,3.9,9.1c0,4.9-1.5,8.7-4.6,11.5
								c-3.1,2.8-7.3,4.2-12.6,4.2l-30.9,0v9l76,0v-9l-29.8,0c3.3-2.2,5.8-4.7,7.4-7.6c1.6-2.9,2.4-6.3,2.4-10.1
								c0-6.3-1.9-11-5.8-14.2C2884.8,350.2,2879.1,348.6,2871.6,348.6z"/>
						</g>
						<g>
							<path id="DejaVuSans-61_3_" d="M2866,305.8c0,7.3-0.8,12.3-2.5,15.1s-4.5,4.2-8.5,4.2c-3.2,0-5.7-1.1-7.6-3.2
								c-1.9-2.1-2.8-5-2.8-8.6c0-5,1.8-9,5.3-12c3.5-3,8.2-4.5,14.1-4.5h2V305.8z M2869.7,287.9l-31.2,0v9l8.3,0
								c-3.3,2.1-5.8,4.6-7.3,7.7c-1.6,3.1-2.4,6.8-2.4,11.2c0,5.6,1.6,10,4.7,13.4c3.1,3.3,7.4,5,12.6,5c6.1,0,10.8-2.1,13.9-6.2
								c3.1-4.1,4.7-10.3,4.7-18.4v-12.6h0.9c4.1,0,7.3,1.4,9.6,4.1c2.3,2.7,3.4,6.5,3.4,11.5c0,3.1-0.4,6.2-1.1,9.1
								c-0.8,3-1.9,5.8-3.4,8.5h8.3c1.3-3.3,2.2-6.5,2.8-9.6c0.6-3.1,1-6.1,1-9c0-7.9-2.1-13.8-6.2-17.7
								C2884.3,289.8,2878.1,287.9,2869.7,287.9z"/>
						</g>
						<g>
							<path id="DejaVuSans-76_1_" d="M2893.2,275.8v-9.5l-45.9-17.1l45.9-17.1v-9.5l-54.7,20.5v12.2L2893.2,275.8z"/>
						</g>
						<g>
							<path id="DejaVuSans-65_3_" d="M2868.1,163.4h-4.4v41.3c-6.2-0.4-10.9-2.3-14.1-5.6c-3.2-3.3-4.9-8-4.9-13.9
								c0-3.4,0.4-6.8,1.3-10c0.8-3.2,2.1-6.5,3.8-9.7l-8.5,0c-1.4,3.2-2.4,6.5-3.1,9.9s-1.1,6.8-1.1,10.3c0,8.7,2.5,15.6,7.6,20.7
								c5.1,5.1,12,7.6,20.6,7.6c8.9,0,16-2.4,21.3-7.2c5.3-4.8,7.9-11.4,7.9-19.6c0-7.4-2.4-13.2-7.1-17.5
								C2882.7,165.6,2876.3,163.4,2868.1,163.4z M2870.8,172.4c4.9,0.1,8.8,1.4,11.8,4.1c2.9,2.7,4.4,6.2,4.4,10.7
								c0,5-1.4,9-4.2,12c-2.8,3-6.8,4.7-12,5.2L2870.8,172.4z"/>
						</g>
						<g>
							<path id="DejaVuSans-20_6_" d="M2838.5,158.1"/>
						</g>
						<g>
							<path id="DejaVuSans-6e_1_" d="M2871.6,71.4l-33,0v9l32.7,0c5.2,0,9,1,11.6,3c2.6,2,3.9,5,3.9,9.1c0,4.9-1.5,8.7-4.6,11.5
								c-3.1,2.8-7.3,4.2-12.6,4.2l-30.9,0v9l54.7,0v-9h-8.5c3.3-2.2,5.8-4.7,7.4-7.6c1.6-2.9,2.4-6.3,2.4-10.1
								c0-6.3-1.9-11-5.8-14.2C2884.8,73,2879.1,71.4,2871.6,71.4z"/>
						</g>
						<g>
							<path id="DejaVuSans-6f_4_" d="M2886.9,32.3c0,4.8-1.9,8.6-5.6,11.4c-3.8,2.8-8.9,4.2-15.5,4.2c-6.5,0-11.7-1.4-15.5-4.2
								c-3.8-2.8-5.6-6.6-5.6-11.5c0-4.8,1.9-8.6,5.7-11.4c3.8-2.8,8.9-4.2,15.4-4.2c6.5,0,11.6,1.4,15.4,4.2
								C2885,23.7,2886.9,27.5,2886.9,32.3z M2894.5,32.3c0-7.8-2.5-13.9-7.6-18.4c-5.1-4.5-12.1-6.7-21.1-6.7
								c-8.9,0-16,2.2-21.1,6.7c-5.1,4.5-7.6,10.6-7.6,18.4c0,7.8,2.5,14,7.6,18.4c5.1,4.4,12.1,6.7,21.1,6.7c9,0,16-2.2,21.1-6.7
								C2892,46.3,2894.5,40.2,2894.5,32.3z"/>
						</g>
						<g>
							<path id="DejaVuSans-20_7_" d="M2838.5,1.7"/>
						</g>
						<g>
							<path id="DejaVuSans-70_1_" d="M2846.7-48.2l-29,0v9l75.5,0v-9l-8.3,0c3.2-1.9,5.7-4.3,7.2-7.2c1.6-2.9,2.4-6.3,2.4-10.3
								c0-6.6-2.6-12-7.9-16.2c-5.3-4.2-12.2-6.2-20.8-6.2c-8.6,0-15.5,2.1-20.8,6.2c-5.3,4.1-7.9,9.5-7.9,16.2
								c0,4,0.8,7.4,2.4,10.3C2841.1-52.4,2843.5-50,2846.7-48.2z M2865.8-78.7c6.6,0,11.8,1.4,15.5,4.1s5.6,6.5,5.6,11.2
								c0,4.8-1.9,8.5-5.6,11.2c-3.8,2.7-8.9,4.1-15.5,4.1c-6.6,0-11.8-1.4-15.5-4.1c-3.8-2.7-5.6-6.5-5.6-11.2
								c0-4.8,1.9-8.5,5.6-11.2C2854.1-77.4,2859.2-78.7,2865.8-78.7z"/>
						</g>
						<g>
							<path id="DejaVuSans-61_4_" d="M2866-127.8c0,7.3-0.8,12.3-2.5,15.1c-1.7,2.8-4.5,4.2-8.5,4.2c-3.2,0-5.7-1.1-7.6-3.2
								c-1.9-2.1-2.8-5-2.8-8.6c0-5,1.8-9,5.3-12s8.2-4.5,14.1-4.5l2,0V-127.8z M2869.7-145.7l-31.2,0v9h8.3
								c-3.3,2.1-5.8,4.6-7.3,7.7c-1.6,3.1-2.4,6.8-2.4,11.2c0,5.6,1.6,10,4.7,13.4c3.1,3.3,7.4,5,12.6,5c6.1,0,10.8-2.1,13.9-6.2
								c3.1-4.1,4.7-10.3,4.7-18.4v-12.6h0.9c4.1,0,7.3,1.4,9.6,4.1s3.4,6.5,3.4,11.5c0,3.1-0.4,6.2-1.1,9.1c-0.8,3-1.9,5.8-3.4,8.5
								l8.3,0c1.3-3.3,2.2-6.5,2.8-9.6c0.6-3.1,1-6.1,1-9c0-7.9-2.1-13.8-6.2-17.7C2884.3-143.8,2878.1-145.7,2869.7-145.7z"/>
						</g>
						<g>
							<path id="DejaVuSans-69_2_" d="M2893.2-164.2v-9l-54.7,0v9L2893.2-164.2z M2914.5-164.2v-9h-11.4v9H2914.5z"/>
						</g>
						<g>
							<path id="DejaVuSans-6e_2_" d="M2871.6-237.5l-33,0v9l32.7,0c5.2,0,9,1,11.6,3c2.6,2,3.9,5,3.9,9.1c0,4.9-1.5,8.7-4.6,11.5
								c-3.1,2.8-7.3,4.2-12.6,4.2l-30.9,0v9l54.7,0v-9l-8.5,0c3.3-2.2,5.8-4.7,7.4-7.6c1.6-2.9,2.4-6.3,2.4-10.1
								c0-6.3-1.9-11-5.8-14.3C2884.8-235.9,2879.1-237.5,2871.6-237.5z"/>
						</g>
						<g>
							<path id="DejaVuSans-20_8_" d="M2838.5-246"/>
						</g>
						<g>
							<path id="DejaVuSans-6f_5_" d="M2886.9-308.4c0,4.8-1.9,8.6-5.6,11.4c-3.8,2.8-8.9,4.2-15.5,4.2c-6.5,0-11.7-1.4-15.5-4.2
								c-3.8-2.8-5.6-6.6-5.6-11.5c0-4.8,1.9-8.6,5.7-11.4c3.8-2.8,8.9-4.2,15.4-4.2c6.5,0,11.6,1.4,15.4,4.2
								C2885-316.9,2886.9-313.1,2886.9-308.4z M2894.5-308.4c0-7.8-2.5-13.9-7.6-18.4c-5.1-4.5-12.1-6.7-21.1-6.7
								c-8.9,0-16,2.2-21.1,6.7c-5.1,4.5-7.6,10.6-7.6,18.4c0,7.8,2.5,14,7.6,18.4c5.1,4.4,12.1,6.7,21.1,6.7c9,0,16-2.2,21.1-6.7
								C2892-294.4,2894.5-300.5,2894.5-308.4z"/>
						</g>
						<g>
							<path id="DejaVuSans-72_3_" d="M2884.8-380c0.6,1,1,2.1,1.3,3.3c0.3,1.2,0.4,2.5,0.4,3.9c0,5.1-1.7,9-5,11.7
								c-3.3,2.7-8,4.1-14.2,4.1h-28.8v9l54.7,0v-9h-8.5c3.3-1.9,5.8-4.4,7.4-7.4c1.6-3,2.4-6.7,2.4-11c0-0.6,0-1.3-0.1-2
								c-0.1-0.8-0.2-1.6-0.4-2.5L2884.8-380z"/>
						</g>
						<g>
							<path id="DejaVuSans-20_9_" d="M2838.5-380"/>
						</g>
						<g>
							<path id="DejaVuSans-64_2_" d="M2884.9-457.2h29.6v-9l-76,0v9h8.2c-3.2,1.9-5.7,4.3-7.2,7.2c-1.6,2.9-2.4,6.3-2.4,10.4
								c0,6.6,2.6,12,7.9,16.1c5.3,4.1,12.2,6.2,20.8,6.2c8.6,0,15.5-2.1,20.8-6.2c5.3-4.2,7.9-9.5,7.9-16.1c0-4-0.8-7.5-2.4-10.4
								C2890.6-453,2888.2-455.4,2884.9-457.2z M2865.8-426.6c-6.6,0-11.8-1.4-15.5-4.1c-3.8-2.7-5.6-6.5-5.6-11.2s1.9-8.5,5.6-11.2
								c3.8-2.7,8.9-4.1,15.5-4.1c6.6,0,11.8,1.4,15.5,4.1c3.8,2.7,5.6,6.5,5.6,11.2s-1.9,8.5-5.6,11.2
								C2877.6-428,2872.4-426.6,2865.8-426.6z"/>
						</g>
						<g>
							<path id="DejaVuSans-69_3_" d="M2893.2-484.7v-9l-54.7,0v9L2893.2-484.7z M2914.5-484.7v-9h-11.4v9H2914.5z"/>
						</g>
						<g>
							<path id="DejaVuSans-73_1_" d="M2891.6-547.4l-8.5,0c1.3,2.5,2.3,5.2,2.9,7.9c0.7,2.7,1,5.6,1,8.5c0,4.5-0.7,7.8-2,10
								c-1.4,2.2-3.4,3.3-6.2,3.3c-2.1,0-3.7-0.8-4.9-2.4s-2.3-4.8-3.4-9.6l-0.7-3.1c-1.4-6.4-3.3-10.9-5.8-13.6s-6-4-10.4-4
								c-5.1,0-9.1,2-12.1,6c-3,4-4.4,9.5-4.4,16.6c0,2.9,0.3,6,0.9,9.2s1.4,6.5,2.6,10h9.3c-1.7-3.3-3-6.6-3.9-9.8
								c-0.9-3.2-1.3-6.4-1.3-9.6c0-4.2,0.7-7.5,2.2-9.8c1.4-2.3,3.5-3.4,6.1-3.4c2.4,0,4.3,0.8,5.6,2.5c1.3,1.6,2.6,5.2,3.8,10.8
								l0.7,3.1c1.2,5.6,3,9.6,5.4,12.1c2.4,2.5,5.8,3.7,10,3.7c5.1,0,9.1-1.8,11.9-5.5c2.8-3.6,4.2-8.8,4.2-15.5
								c0-3.3-0.2-6.4-0.7-9.4C2893.3-542.2,2892.6-544.9,2891.6-547.4z"/>
						</g>
						<g>
							<path id="DejaVuSans-63_1_" d="M2891.1-604l-8.4,0c1.4,2.5,2.5,5.1,3.2,7.6c0.7,2.6,1,5.1,1,7.7c0,5.8-1.8,10.4-5.5,13.6
								c-3.7,3.2-8.9,4.8-15.5,4.8s-11.9-1.6-15.6-4.8c-3.7-3.2-5.5-7.8-5.5-13.6c0-2.6,0.3-5.2,1-7.7s1.8-5.1,3.2-7.6h-8.3
								c-1.2,2.5-2,5.1-2.6,7.8c-0.6,2.7-0.9,5.5-0.9,8.6c0,8.2,2.6,14.8,7.8,19.6c5.2,4.8,12.2,7.3,21,7.3c8.9,0,15.9-2.4,21-7.3
								c5.1-4.9,7.7-11.6,7.7-20.2c0-2.8-0.3-5.5-0.9-8.1C2893.1-598.9,2892.3-601.5,2891.1-604z"/>
						</g>
						<g>
							<path id="DejaVuSans-6f_6_" d="M2886.9-640.8c0,4.8-1.9,8.6-5.6,11.4c-3.8,2.8-8.9,4.2-15.5,4.2c-6.5,0-11.7-1.4-15.5-4.2
								c-3.8-2.8-5.6-6.6-5.6-11.5c0-4.8,1.9-8.6,5.7-11.4c3.8-2.8,8.9-4.2,15.4-4.2c6.5,0,11.6,1.4,15.4,4.2
								C2885-649.4,2886.9-645.6,2886.9-640.8z M2894.5-640.8c0-7.8-2.5-13.9-7.6-18.4c-5.1-4.5-12.1-6.7-21.1-6.7
								c-8.9,0-16,2.2-21.1,6.7c-5.1,4.5-7.6,10.6-7.6,18.4c0,7.8,2.5,14,7.6,18.4c5.1,4.4,12.1,6.7,21.1,6.7c9,0,16-2.2,21.1-6.7
								C2892-626.8,2894.5-632.9,2894.5-640.8z"/>
						</g>
						<g>
							<path id="DejaVuSans-6d_2_" d="M2882.7-723.4c4-2.2,7-4.9,8.9-8.1c1.9-3.1,2.9-6.8,2.9-11c0-5.7-2-10.1-6-13.2
								c-4-3.1-9.6-4.6-17-4.6h-33v9h32.7c5.2,0,9.1,0.9,11.7,2.8c2.5,1.9,3.8,4.7,3.8,8.5c0,4.7-1.5,8.3-4.6,11
								c-3.1,2.7-7.3,4-12.6,4h-30.9v9h32.7c5.3,0,9.2,0.9,11.7,2.8c2.5,1.9,3.8,4.7,3.8,8.6c0,4.6-1.6,8.2-4.7,11
								c-3.1,2.7-7.3,4-12.6,4h-30.9v9l54.7,0v-9l-8.5,0c3.4-2.1,5.8-4.5,7.4-7.4c1.6-2.9,2.4-6.3,2.4-10.2c0-4-1-7.4-3-10.1
								C2889.5-720,2886.6-722,2882.7-723.4z"/>
						</g>
						<g>
							<path id="DejaVuSans-66_1_" d="M2914.5-805.9h-7.5v8.6c0,3.2-0.7,5.5-2,6.7c-1.3,1.2-3.6,1.9-7,1.9h-4.8v-14.8h-7v14.8
								l-47.7,0v9l47.7,0l0,8.6h7l0-8.6h3.8c6.1,0,10.5-1.4,13.3-4.2c2.8-2.8,4.2-7.3,4.2-13.5V-805.9z"/>
						</g>
						<g>
							<path id="DejaVuSans-6f_7_" d="M2886.9-834.6c0,4.8-1.9,8.6-5.6,11.4c-3.8,2.8-8.9,4.2-15.5,4.2c-6.5,0-11.7-1.4-15.5-4.2
								c-3.8-2.8-5.6-6.6-5.6-11.5c0-4.8,1.9-8.6,5.7-11.4c3.8-2.8,8.9-4.2,15.4-4.2c6.5,0,11.6,1.4,15.4,4.2
								C2885-843.2,2886.9-839.4,2886.9-834.6z M2894.5-834.6c0-7.8-2.5-13.9-7.6-18.4c-5.1-4.5-12.1-6.7-21.1-6.7
								c-8.9,0-16,2.2-21.1,6.7c-5.1,4.5-7.6,10.6-7.6,18.4c0,7.8,2.5,14,7.6,18.4c5.1,4.4,12.1,6.7,21.1,6.7c9,0,16-2.2,21.1-6.7
								C2892-820.6,2894.5-826.7,2894.5-834.6z"/>
						</g>
						<g>
							<path id="DejaVuSans-72_4_" d="M2884.8-906.3c0.6,1,1,2.1,1.3,3.3c0.3,1.2,0.4,2.5,0.4,3.9c0,5.1-1.7,9-5,11.7
								c-3.3,2.7-8,4.1-14.2,4.1h-28.8v9l54.7,0v-9h-8.5c3.3-1.9,5.8-4.4,7.4-7.4c1.6-3,2.4-6.7,2.4-11c0-0.6,0-1.3-0.1-2
								c-0.1-0.8-0.2-1.6-0.4-2.5L2884.8-906.3z"/>
						</g>
						<g>
							<path id="DejaVuSans-74_2_" d="M2908.8-924.6h-15.5v-18.5h-7v18.5l-29.7,0c-4.5,0-7.3-0.6-8.6-1.8s-1.9-3.7-1.9-7.5v-9.2
								h-7.5v9.2c0,6.9,1.3,11.7,3.9,14.4c2.6,2.6,7.3,4,14.1,4l29.7,0v6.6h7v-6.6h15.5V-924.6z"/>
						</g>
					</g>
				</g>
			</g>
			<g id="xtick_3">
				<g id="line2d_3">
					<g>
						<g>
							<path id="m3553660210_2_" class="st4" d="M373.5,315.4H370"/>
						</g>
					</g>
				</g>
				<g id="text_3">
					<g transform="translate(305.761103 757.4275) rotate(-90) scale(0.16 -0.16)">
						<g>
							<path id="DejaVuSans-49_2_" d="M2808.3,1484v-9.9h-72.9v9.9H2808.3z"/>
						</g>
						<g>
							<path id="DejaVuSans-20_10_" d="M2735.4,1464.4"/>
						</g>
						<g>
							<path id="DejaVuSans-68_2_" d="M2768.4,1377.7h-33v9h32.7c5.2,0,9,1,11.6,3c2.6,2,3.9,5,3.9,9.1c0,4.9-1.5,8.7-4.6,11.5
								c-3.1,2.8-7.3,4.2-12.6,4.2h-30.9v9h76v-9h-29.8c3.3-2.2,5.8-4.7,7.4-7.6c1.6-2.9,2.4-6.3,2.4-10.1c0-6.3-1.9-11-5.8-14.2
								C2781.6,1379.3,2775.9,1377.7,2768.4,1377.7z"/>
						</g>
						<g>
							<path id="DejaVuSans-61_5_" d="M2762.8,1334.9c0,7.3-0.8,12.3-2.5,15.1c-1.7,2.8-4.5,4.2-8.5,4.2c-3.2,0-5.7-1.1-7.6-3.2
								c-1.9-2.1-2.8-5-2.8-8.6c0-5,1.8-9,5.3-12c3.5-3,8.2-4.5,14.1-4.5h2V1334.9z M2766.6,1317h-31.2v9h8.3
								c-3.3,2.1-5.8,4.6-7.3,7.7s-2.4,6.8-2.4,11.2c0,5.6,1.6,10,4.7,13.4c3.1,3.3,7.4,5,12.6,5c6.1,0,10.8-2.1,13.9-6.2
								c3.1-4.1,4.7-10.3,4.7-18.4V1326h0.9c4.1,0,7.3,1.4,9.6,4.1s3.4,6.5,3.4,11.5c0,3.1-0.4,6.2-1.1,9.1c-0.8,3-1.9,5.8-3.4,8.5
								h8.3c1.3-3.3,2.2-6.5,2.8-9.6c0.6-3.1,1-6.1,1-9c0-7.9-2.1-13.8-6.2-17.7C2781.1,1318.9,2774.9,1317,2766.6,1317z"/>
						</g>
						<g>
							<path id="DejaVuSans-76_2_" d="M2790,1304.9v-9.5l-45.9-17.1l45.9-17.1v-9.5l-54.7,20.5v12.2L2790,1304.9z"/>
						</g>
						<g>
							<path id="DejaVuSans-65_4_" d="M2765,1192.5h-4.4v41.3c-6.2-0.4-10.9-2.3-14.1-5.6c-3.2-3.3-4.9-8-4.9-13.9
								c0-3.4,0.4-6.8,1.3-10c0.8-3.2,2.1-6.5,3.8-9.7h-8.5c-1.4,3.2-2.4,6.5-3.1,9.9c-0.7,3.4-1.1,6.8-1.1,10.3
								c0,8.7,2.5,15.6,7.6,20.7c5.1,5.1,12,7.6,20.6,7.6c8.9,0,16-2.4,21.3-7.2c5.3-4.8,7.9-11.4,7.9-19.6c0-7.4-2.4-13.2-7.1-17.5
								C2779.5,1194.7,2773.1,1192.5,2765,1192.5z M2767.6,1201.5c4.9,0.1,8.8,1.4,11.8,4.1c2.9,2.7,4.4,6.2,4.4,10.7
								c0,5-1.4,9-4.2,12c-2.8,3-6.8,4.7-12,5.2L2767.6,1201.5z"/>
						</g>
						<g>
							<path id="DejaVuSans-20_11_" d="M2735.4,1187.2"/>
						</g>
						<g>
							<path id="DejaVuSans-76_3_" d="M2790,1152.4v-9.5l-45.9-17.1l45.9-17.1v-9.5l-54.7,20.5v12.2L2790,1152.4z"/>
						</g>
						<g>
							<path id="DejaVuSans-65_5_" d="M2765,1040h-4.4v41.3c-6.2-0.4-10.9-2.3-14.1-5.6c-3.2-3.3-4.9-8-4.9-13.9
								c0-3.4,0.4-6.8,1.3-10c0.8-3.2,2.1-6.5,3.8-9.7h-8.5c-1.4,3.2-2.4,6.5-3.1,9.9c-0.7,3.4-1.1,6.8-1.1,10.3
								c0,8.7,2.5,15.6,7.6,20.7c5.1,5.1,12,7.6,20.6,7.6c8.9,0,16-2.4,21.3-7.2c5.3-4.8,7.9-11.4,7.9-19.6c0-7.4-2.4-13.2-7.1-17.5
								C2779.5,1042.2,2773.1,1040,2765,1040z M2767.6,1049c4.9,0.1,8.8,1.4,11.8,4.1c2.9,2.7,4.4,6.2,4.4,10.7c0,5-1.4,9-4.2,12
								c-2.8,3-6.8,4.7-12,5.2L2767.6,1049z"/>
						</g>
						<g>
							<path id="DejaVuSans-72_5_" d="M2781.7,993.6c0.6,1,1,2.1,1.3,3.3c0.3,1.2,0.4,2.5,0.4,3.9c0,5.1-1.7,9-5,11.7
								s-8,4.1-14.2,4.1l-28.8,0v9h54.7v-9h-8.5c3.3-1.9,5.8-4.4,7.4-7.4c1.6-3,2.4-6.7,2.4-11c0-0.6,0-1.3-0.1-2
								c-0.1-0.8-0.2-1.6-0.4-2.5L2781.7,993.6z"/>
						</g>
						<g>
							<path id="DejaVuSans-79" d="M2730.3,961.4c-6.5,2.5-10.8,5-12.7,7.4c-2,2.4-3,5.6-3,9.7v7.2h7.5v-5.3c0-2.5,0.6-4.4,1.8-5.8
								c1.2-1.4,3.9-2.9,8.3-4.5l4.1-1.6l53.8,22.1v-9.5l-42.8-17.1l42.8-17.1v-9.5L2730.3,961.4z"/>
						</g>
						<g>
							<path id="DejaVuSans-20_12_" d="M2735.4,934.4"/>
						</g>
						<g>
							<path id="DejaVuSans-73_2_" d="M2788.4,858.4h-8.5c1.3,2.5,2.3,5.2,2.9,7.9c0.7,2.7,1,5.6,1,8.5c0,4.5-0.7,7.8-2,10
								s-3.4,3.3-6.2,3.3c-2.1,0-3.7-0.8-4.9-2.4s-2.3-4.8-3.4-9.6l-0.7-3.1c-1.4-6.4-3.3-10.9-5.8-13.6c-2.5-2.7-6-4-10.4-4
								c-5.1,0-9.1,2-12.1,6c-3,4-4.4,9.5-4.4,16.6c0,2.9,0.3,6,0.9,9.2c0.6,3.2,1.4,6.5,2.6,10l9.3,0c-1.7-3.3-3-6.6-3.9-9.8
								c-0.9-3.2-1.3-6.4-1.3-9.6c0-4.2,0.7-7.5,2.2-9.8c1.4-2.3,3.5-3.4,6.1-3.4c2.4,0,4.3,0.8,5.6,2.5c1.3,1.6,2.6,5.2,3.8,10.8
								l0.7,3.1c1.2,5.6,3,9.6,5.4,12.1c2.4,2.5,5.8,3.7,10,3.7c5.1,0,9.1-1.8,11.9-5.5c2.8-3.6,4.2-8.8,4.2-15.5
								c0-3.3-0.2-6.4-0.7-9.4C2790.1,863.5,2789.4,860.8,2788.4,858.4z"/>
						</g>
						<g>
							<path id="DejaVuSans-65_6_" d="M2765,794.3h-4.4v41.3c-6.2-0.4-10.9-2.3-14.1-5.6c-3.2-3.3-4.9-8-4.9-13.9
								c0-3.4,0.4-6.8,1.3-10c0.8-3.2,2.1-6.5,3.8-9.7h-8.5c-1.4,3.2-2.4,6.5-3.1,9.9c-0.7,3.4-1.1,6.8-1.1,10.3
								c0,8.7,2.5,15.6,7.6,20.7c5.1,5.1,12,7.6,20.6,7.6c8.9,0,16-2.4,21.3-7.2c5.3-4.8,7.9-11.4,7.9-19.6c0-7.4-2.4-13.2-7.1-17.5
								C2779.5,796.5,2773.1,794.3,2765,794.3z M2767.6,803.3c4.9,0.1,8.8,1.4,11.8,4.1c2.9,2.7,4.4,6.2,4.4,10.7c0,5-1.4,9-4.2,12
								c-2.8,3-6.8,4.7-12,5.2L2767.6,803.3z"/>
						</g>
						<g>
							<path id="DejaVuSans-76_4_" d="M2790,786v-9.5l-45.9-17.1l45.9-17.1v-9.5l-54.7,20.5v12.2L2790,786z"/>
						</g>
						<g>
							<path id="DejaVuSans-65_7_" d="M2765,673.6h-4.4l0,41.3c-6.2-0.4-10.9-2.3-14.1-5.6c-3.2-3.3-4.9-8-4.9-13.9
								c0-3.4,0.4-6.8,1.3-10c0.8-3.2,2.1-6.5,3.8-9.7h-8.5c-1.4,3.2-2.4,6.5-3.1,9.9c-0.7,3.4-1.1,6.8-1.1,10.3
								c0,8.7,2.5,15.6,7.6,20.7c5.1,5.1,12,7.6,20.6,7.6c8.9,0,16-2.4,21.3-7.2c5.3-4.8,7.9-11.4,7.9-19.6c0-7.4-2.4-13.2-7.1-17.5
								C2779.5,675.8,2773.1,673.6,2765,673.6z M2767.6,682.6c4.9,0.1,8.8,1.4,11.8,4.1c2.9,2.7,4.4,6.2,4.4,10.7c0,5-1.4,9-4.3,12
								c-2.8,3-6.8,4.7-12,5.2L2767.6,682.6z"/>
						</g>
						<g>
							<path id="DejaVuSans-72_6_" d="M2781.7,627.2c0.6,1,1,2.1,1.3,3.3c0.3,1.2,0.4,2.5,0.4,3.9c0,5.1-1.7,9-5,11.7
								c-3.3,2.7-8,4.1-14.2,4.1h-28.8v9h54.7v-9h-8.5c3.3-1.9,5.8-4.4,7.4-7.4c1.6-3,2.4-6.7,2.4-11c0-0.6,0-1.3-0.1-2
								c-0.1-0.8-0.2-1.6-0.4-2.5L2781.7,627.2z"/>
						</g>
						<g>
							<path id="DejaVuSans-65_8_" d="M2765,573.2h-4.4v41.3c-6.2-0.4-10.9-2.3-14.1-5.6c-3.2-3.3-4.9-8-4.9-13.9
								c0-3.4,0.4-6.8,1.3-10c0.8-3.2,2.1-6.5,3.8-9.7h-8.5c-1.4,3.2-2.4,6.5-3.1,9.9c-0.7,3.4-1.1,6.8-1.1,10.3
								c0,8.7,2.5,15.6,7.6,20.7c5.1,5.1,12,7.6,20.6,7.6c8.9,0,16-2.4,21.3-7.2c5.3-4.8,7.9-11.4,7.9-19.6c0-7.4-2.4-13.2-7.1-17.5
								C2779.5,575.4,2773.1,573.2,2765,573.2z M2767.6,582.2c4.9,0.1,8.8,1.4,11.8,4.1c2.9,2.7,4.4,6.2,4.4,10.7c0,5-1.4,9-4.2,12
								c-2.8,3-6.8,4.7-12,5.2L2767.6,582.2z"/>
						</g>
						<g>
							<path id="DejaVuSans-20_13_" d="M2735.4,567.9"/>
						</g>
						<g>
							<path id="DejaVuSans-70_2_" d="M2743.6,518l-29,0v9l75.5,0v-9h-8.3c3.2-1.9,5.7-4.3,7.2-7.2c1.6-2.9,2.4-6.3,2.4-10.3
								c0-6.6-2.6-12-7.9-16.2c-5.3-4.2-12.2-6.2-20.8-6.2s-15.5,2.1-20.8,6.2c-5.3,4.1-7.9,9.5-7.9,16.2c0,4,0.8,7.4,2.4,10.3
								C2737.9,513.8,2740.3,516.1,2743.6,518z M2762.7,487.5c6.6,0,11.8,1.4,15.5,4.1s5.6,6.5,5.6,11.2c0,4.8-1.9,8.5-5.6,11.2
								s-8.9,4.1-15.5,4.1s-11.8-1.4-15.5-4.1c-3.8-2.7-5.6-6.5-5.6-11.2c0-4.8,1.9-8.5,5.6-11.2S2756.1,487.5,2762.7,487.5z"/>
						</g>
						<g>
							<path id="DejaVuSans-61_6_" d="M2762.8,438.4c0,7.3-0.8,12.3-2.5,15.1c-1.7,2.8-4.5,4.2-8.5,4.2c-3.2,0-5.7-1.1-7.6-3.2
								c-1.9-2.1-2.8-5-2.8-8.6c0-5,1.8-9,5.3-12c3.5-3,8.2-4.5,14.1-4.5h2V438.4z M2766.6,420.5l-31.2,0v9h8.3
								c-3.3,2.1-5.8,4.6-7.3,7.7s-2.4,6.8-2.4,11.2c0,5.6,1.6,10,4.7,13.4c3.1,3.3,7.4,5,12.6,5c6.1,0,10.8-2.1,13.9-6.2
								c3.1-4.1,4.7-10.3,4.7-18.4v-12.6h0.9c4.1,0,7.3,1.4,9.6,4.1s3.4,6.5,3.4,11.5c0,3.1-0.4,6.2-1.1,9.1c-0.8,3-1.9,5.8-3.4,8.5
								h8.3c1.3-3.3,2.2-6.5,2.8-9.6c0.6-3.1,1-6.1,1-9c0-7.9-2.1-13.8-6.2-17.7C2781.1,422.4,2774.9,420.5,2766.6,420.5z"/>
						</g>
						<g>
							<path id="DejaVuSans-69_4_" d="M2790,402v-9l-54.7,0v9L2790,402z M2811.3,402v-9l-11.4,0v9L2811.3,402z"/>
						</g>
						<g>
							<path id="DejaVuSans-6e_3_" d="M2768.4,328.7l-33,0v9l32.7,0c5.2,0,9,1,11.6,3c2.6,2,3.9,5,3.9,9.1c0,4.9-1.5,8.7-4.6,11.5
								c-3.1,2.8-7.3,4.2-12.6,4.2l-30.9,0v9l54.7,0v-9h-8.5c3.3-2.2,5.8-4.7,7.4-7.6c1.6-2.9,2.4-6.3,2.4-10.1
								c0-6.3-1.9-11-5.8-14.2C2781.6,330.3,2775.9,328.7,2768.4,328.7z"/>
						</g>
						<g>
							<path id="DejaVuSans-20_14_" d="M2735.4,320.2"/>
						</g>
						<g>
							<path id="DejaVuSans-6f_8_" d="M2783.8,257.8c0,4.8-1.9,8.6-5.6,11.4c-3.8,2.8-8.9,4.2-15.5,4.2c-6.5,0-11.7-1.4-15.5-4.2
								c-3.8-2.8-5.6-6.6-5.6-11.5c0-4.8,1.9-8.6,5.7-11.4c3.8-2.8,8.9-4.2,15.4-4.2c6.5,0,11.6,1.4,15.4,4.2
								C2781.9,249.2,2783.8,253,2783.8,257.8z M2791.4,257.8c0-7.8-2.5-13.9-7.6-18.4c-5.1-4.5-12.1-6.7-21.1-6.7
								c-8.9,0-16,2.2-21.1,6.7c-5.1,4.5-7.6,10.6-7.6,18.4c0,7.8,2.5,14,7.6,18.4c5.1,4.4,12.1,6.7,21.1,6.7c9,0,16-2.2,21.1-6.7
								C2788.8,271.8,2791.4,265.7,2791.4,257.8z"/>
						</g>
						<g>
							<path id="DejaVuSans-72_7_" d="M2781.7,186.1c0.6,1,1,2.1,1.3,3.3c0.3,1.2,0.4,2.5,0.4,3.9c0,5.1-1.7,9-5,11.7
								c-3.3,2.7-8,4.1-14.2,4.1l-28.8,0v9l54.7,0v-9l-8.5,0c3.3-1.9,5.8-4.4,7.4-7.4c1.6-3,2.4-6.7,2.4-11c0-0.6,0-1.3-0.1-2
								c-0.1-0.8-0.2-1.6-0.4-2.5L2781.7,186.1z"/>
						</g>
						<g>
							<path id="DejaVuSans-20_15_" d="M2735.4,186.1"/>
						</g>
						<g>
							<path id="DejaVuSans-64_3_" d="M2781.8,108.9l29.6,0v-9l-76,0v9l8.2,0c-3.2,1.9-5.7,4.3-7.2,7.2c-1.6,2.9-2.4,6.3-2.4,10.4
								c0,6.6,2.6,12,7.9,16.1c5.3,4.1,12.2,6.2,20.8,6.2s15.5-2.1,20.8-6.2c5.3-4.2,7.9-9.5,7.9-16.1c0-4-0.8-7.5-2.4-10.4
								C2787.4,113.2,2785,110.8,2781.8,108.9z M2762.7,139.6c-6.6,0-11.8-1.4-15.5-4.1c-3.8-2.7-5.6-6.5-5.6-11.2s1.9-8.5,5.6-11.2
								c3.8-2.7,8.9-4.1,15.5-4.1c6.6,0,11.8,1.4,15.5,4.1c3.8,2.7,5.6,6.5,5.6,11.2c0,4.8-1.9,8.5-5.6,11.2
								C2774.4,138.2,2769.3,139.6,2762.7,139.6z"/>
						</g>
						<g>
							<path id="DejaVuSans-69_5_" d="M2790,81.5v-9l-54.7,0v9L2790,81.5z M2811.3,81.5v-9H2800v9H2811.3z"/>
						</g>
						<g>
							<path id="DejaVuSans-73_3_" d="M2788.4,18.8l-8.5,0c1.3,2.5,2.3,5.2,2.9,7.9c0.7,2.7,1,5.6,1,8.5c0,4.5-0.7,7.8-2,10
								c-1.4,2.2-3.4,3.3-6.2,3.3c-2.1,0-3.7-0.8-4.9-2.4s-2.3-4.8-3.4-9.6l-0.7-3.1c-1.4-6.4-3.3-10.9-5.8-13.6s-6-4-10.4-4
								c-5.1,0-9.1,2-12.1,6c-3,4-4.4,9.5-4.4,16.6c0,2.9,0.3,6,0.9,9.2c0.6,3.2,1.4,6.5,2.6,10l9.3,0c-1.7-3.3-3-6.6-3.9-9.8
								c-0.9-3.2-1.3-6.4-1.3-9.6c0-4.2,0.7-7.5,2.2-9.7c1.4-2.3,3.5-3.4,6.1-3.4c2.4,0,4.3,0.8,5.6,2.5c1.3,1.6,2.6,5.2,3.8,10.8
								l0.7,3.1c1.2,5.6,3,9.6,5.4,12.1c2.4,2.5,5.8,3.7,10,3.7c5.1,0,9.1-1.8,11.9-5.5c2.8-3.6,4.2-8.8,4.2-15.5
								c0-3.3-0.2-6.4-0.7-9.4C2790.1,24,2789.4,21.3,2788.4,18.8z"/>
						</g>
						<g>
							<path id="DejaVuSans-63_2_" d="M2788-37.8l-8.4,0c1.4,2.5,2.5,5.1,3.2,7.6s1,5.1,1,7.7c0,5.8-1.8,10.4-5.5,13.6
								c-3.7,3.2-8.9,4.8-15.5,4.8s-11.9-1.6-15.6-4.8c-3.7-3.2-5.5-7.8-5.5-13.6c0-2.6,0.3-5.2,1-7.7s1.8-5.1,3.2-7.6l-8.3,0
								c-1.2,2.5-2,5.1-2.6,7.8c-0.6,2.7-0.9,5.5-0.9,8.6c0,8.2,2.6,14.8,7.8,19.6c5.2,4.8,12.2,7.3,21,7.3c8.9,0,15.9-2.4,21-7.3
								c5.1-4.9,7.7-11.6,7.7-20.2c0-2.8-0.3-5.5-0.9-8.1C2789.9-32.7,2789.1-35.3,2788-37.8z"/>
						</g>
						<g>
							<path id="DejaVuSans-6f_9_" d="M2783.8-74.6c0,4.8-1.9,8.6-5.6,11.4s-8.9,4.2-15.5,4.2c-6.5,0-11.7-1.4-15.5-4.2
								c-3.8-2.8-5.6-6.6-5.6-11.5c0-4.8,1.9-8.6,5.7-11.4c3.8-2.8,8.9-4.2,15.4-4.2c6.5,0,11.6,1.4,15.4,4.2
								C2781.9-83.2,2783.8-79.4,2783.8-74.6z M2791.4-74.6c0-7.8-2.5-13.9-7.6-18.4c-5.1-4.5-12.1-6.7-21.1-6.7
								c-8.9,0-16,2.2-21.1,6.7c-5.1,4.5-7.6,10.6-7.6,18.4c0,7.8,2.5,14,7.6,18.4c5.1,4.4,12.1,6.7,21.1,6.7c9,0,16-2.2,21.1-6.7
								C2788.8-60.6,2791.4-66.7,2791.4-74.6z"/>
						</g>
						<g>
							<path id="DejaVuSans-6d_3_" d="M2779.5-157.2c4-2.2,7-4.9,8.9-8.1c1.9-3.1,2.9-6.8,2.9-11c0-5.7-2-10.1-6-13.2
								c-4-3.1-9.6-4.6-17-4.6l-33,0v9l32.7,0c5.2,0,9.1,0.9,11.7,2.8c2.5,1.9,3.8,4.7,3.8,8.5c0,4.7-1.5,8.3-4.6,11
								c-3.1,2.7-7.3,4-12.6,4l-30.9,0v9l32.7,0c5.3,0,9.2,0.9,11.7,2.8c2.5,1.9,3.8,4.7,3.8,8.6c0,4.6-1.6,8.2-4.7,11
								c-3.1,2.7-7.3,4-12.6,4l-30.9,0v9l54.7,0v-9h-8.5c3.4-2.1,5.8-4.5,7.4-7.4c1.6-2.9,2.4-6.3,2.4-10.2c0-4-1-7.4-3-10.1
								C2786.3-153.8,2783.4-155.8,2779.5-157.2z"/>
						</g>
						<g>
							<path id="DejaVuSans-66_2_" d="M2811.3-239.7h-7.5v8.6c0,3.2-0.7,5.5-2,6.7c-1.3,1.2-3.6,1.9-7,1.9l-4.8,0v-14.8h-7v14.8
								l-47.7,0v9l47.7,0v8.6h7v-8.6h3.8c6.1,0,10.5-1.4,13.3-4.2c2.8-2.8,4.2-7.3,4.2-13.5V-239.7z"/>
						</g>
						<g>
							<path id="DejaVuSans-6f_10_" d="M2783.8-268.4c0,4.8-1.9,8.6-5.6,11.4c-3.8,2.8-8.9,4.2-15.5,4.2c-6.5,0-11.7-1.4-15.5-4.2
								c-3.8-2.8-5.6-6.6-5.6-11.5c0-4.8,1.9-8.6,5.7-11.4c3.8-2.8,8.9-4.2,15.4-4.2c6.5,0,11.6,1.4,15.4,4.2
								C2781.9-277,2783.8-273.2,2783.8-268.4z M2791.4-268.4c0-7.8-2.5-13.9-7.6-18.4c-5.1-4.5-12.1-6.7-21.1-6.7
								c-8.9,0-16,2.2-21.1,6.7c-5.1,4.5-7.6,10.6-7.6,18.4c0,7.8,2.5,14,7.6,18.4c5.1,4.4,12.1,6.7,21.1,6.7c9,0,16-2.2,21.1-6.7
								C2788.8-254.4,2791.4-260.5,2791.4-268.4z"/>
						</g>
						<g>
							<path id="DejaVuSans-72_8_" d="M2781.7-340.1c0.6,1,1,2.1,1.3,3.3c0.3,1.2,0.4,2.5,0.4,3.9c0,5.1-1.7,9-5,11.7
								c-3.3,2.7-8,4.1-14.2,4.1h-28.8v9l54.7,0v-9h-8.5c3.3-1.9,5.8-4.4,7.4-7.4c1.6-3,2.4-6.7,2.4-11c0-0.6,0-1.3-0.1-2
								c-0.1-0.8-0.2-1.6-0.4-2.5L2781.7-340.1z"/>
						</g>
						<g>
							<path id="DejaVuSans-74_3_" d="M2805.6-358.4H2790v-18.5h-7v18.5l-29.7,0c-4.5,0-7.3-0.6-8.6-1.8c-1.3-1.2-1.9-3.7-1.9-7.5
								v-9.2h-7.5v9.2c0,6.9,1.3,11.7,3.9,14.4c2.6,2.6,7.3,4,14.1,4l29.7,0v6.6h7v-6.6h15.5V-358.4z"/>
						</g>
					</g>
				</g>
			</g>
		</g>
		<g id="matplotlib.axis_2">
			<g id="ytick_1">
				<g id="line2d_4">
					<g>
						<defs>
							<rect id="SVGID_7_" x="40" y="85.2" width="443.5" height="279"/>
						</defs>
						<clipPath id="SVGID_8_">
							<use xlink:href="#SVGID_7_"  style="overflow:visible;"/>
						</clipPath>
						<path class="st5" d="M40,85.2l0,279"/>
					</g>
				</g>
				<g id="line2d_5">
					<g>
						<g>
							<path id="mbebe6399c6" class="st4" d="M40,85.2v-3.5"/>
						</g>
					</g>
				</g>
				<g id="text_4">
					<g transform="translate(60.934188 454.82125) rotate(-90) scale(0.16 -0.16)">
						<g>
							<path id="DejaVuSans-30" d="M2441,124.6c0,5.1-2.5,8.9-7.5,11.5c-5,2.6-12.5,3.8-22.5,3.8c-10,0-17.5-1.3-22.5-3.8
								c-5-2.6-7.5-6.4-7.5-11.5c0-5.1,2.5-8.9,7.5-11.5c5-2.6,12.5-3.8,22.5-3.8c10,0,17.5,1.3,22.5,3.8
								C2438.5,115.6,2441,119.5,2441,124.6z M2448.8,124.6c0-8.2-3.2-14.4-9.7-18.7c-6.5-4.3-15.8-6.5-28.1-6.5
								c-12.3,0-21.6,2.2-28.1,6.5c-6.5,4.3-9.7,10.6-9.7,18.7c0,8.2,3.2,14.4,9.7,18.7c6.5,4.3,15.8,6.5,28.1,6.5
								c12.3,0,21.7-2.2,28.1-6.5C2445.5,139,2448.8,132.8,2448.8,124.6z"/>
						</g>
					</g>
				</g>
			</g>
			<g id="ytick_2">
				<g id="line2d_6">
					<g>
						<defs>
							<rect id="SVGID_9_" x="40" y="85.2" width="443.5" height="279"/>
						</defs>
						<clipPath id="SVGID_10_">
							<use xlink:href="#SVGID_9_"  style="overflow:visible;"/>
						</clipPath>
						<path class="st6" d="M107.9,85.2l0,279"/>
					</g>
				</g>
				<g id="line2d_7">
					<g>
						<g>
							<path id="mbebe6399c6_1_" class="st4" d="M107.9,85.2l0-3.5"/>
						</g>
					</g>
				</g>
				<g id="text_5">
					<g transform="translate(60.934188 407.271282) rotate(-90) scale(0.16 -0.16)">
						<g>
							<path id="DejaVuSans-32" d="M2085.7-160v-34.4l-8.3,0v46.3l8.3,0c3.9-3.7,9.1-8.8,15.6-15.3c6.5-6.5,10.7-10.5,12.6-12.2
								c3.5-3.2,6.5-5.4,9-6.6c2.5-1.3,4.9-1.9,7.2-1.9c3.9,0,7,1.4,9.5,4.1c2.4,2.7,3.7,6.3,3.7,10.6c0,3.1-0.5,6.4-1.6,9.8
								c-1.1,3.4-2.7,7.1-4.9,11l10,0c1.6-4,2.8-7.7,3.6-11.1c0.8-3.5,1.2-6.6,1.2-9.5c0-7.6-1.9-13.6-5.7-18.1
								c-3.8-4.5-8.8-6.7-15.1-6.7c-3,0-5.8,0.6-8.5,1.7c-2.7,1.1-5.8,3.2-9.5,6.1c-0.9,0.8-3.7,3.4-8.2,7.8
								C2100.1-174.1,2093.8-167.9,2085.7-160z"/>
						</g>
						<g>
							<path id="DejaVuSans-30_1_" d="M2143.8-236.2c0,5.1-2.5,8.9-7.5,11.5c-5,2.6-12.5,3.8-22.5,3.8c-10,0-17.5-1.3-22.5-3.8
								c-5-2.6-7.5-6.4-7.5-11.5c0-5.1,2.5-8.9,7.5-11.5c5-2.6,12.5-3.8,22.5-3.8c10,0,17.5,1.3,22.5,3.8
								C2141.3-245.2,2143.8-241.3,2143.8-236.2z M2151.6-236.2c0-8.2-3.2-14.4-9.7-18.7c-6.5-4.3-15.8-6.5-28.1-6.5
								c-12.3,0-21.6,2.2-28.1,6.5c-6.5,4.3-9.7,10.6-9.7,18.7c0,8.2,3.2,14.4,9.7,18.7c6.5,4.3,15.8,6.5,28.1,6.5
								c12.3,0,21.7-2.2,28.1-6.5C2148.3-221.8,2151.6-228.1,2151.6-236.2z"/>
						</g>
						<g>
							<path id="DejaVuSans-30_2_" d="M2143.8-299.8c0,5.1-2.5,8.9-7.5,11.5c-5,2.6-12.5,3.8-22.5,3.8c-10,0-17.5-1.3-22.5-3.8
								c-5-2.6-7.5-6.4-7.5-11.5c0-5.1,2.5-8.9,7.5-11.5c5-2.6,12.5-3.8,22.5-3.8c10,0,17.5,1.3,22.5,3.8
								C2141.3-308.8,2143.8-305,2143.8-299.8z M2151.6-299.8c0-8.2-3.2-14.4-9.7-18.7c-6.5-4.3-15.8-6.5-28.1-6.5
								c-12.3,0-21.6,2.2-28.1,6.5c-6.5,4.3-9.7,10.6-9.7,18.7c0,8.2,3.2,14.4,9.7,18.7c6.5,4.3,15.8,6.5,28.1,6.5
								c12.3,0,21.7-2.2,28.1-6.5C2148.3-285.4,2151.6-291.7,2151.6-299.8z"/>
						</g>
					</g>
				</g>
			</g>
			<g id="ytick_3">
				<g id="line2d_8">
					<g>
						<defs>
							<rect id="SVGID_11_" x="40" y="85.2" width="443.5" height="279"/>
						</defs>
						<clipPath id="SVGID_12_">
							<use xlink:href="#SVGID_11_"  style="overflow:visible;"/>
						</clipPath>
						<path class="st7" d="M175.8,85.2l0,279"/>
					</g>
				</g>
				<g id="line2d_9">
					<g>
						<g>
							<path id="mbebe6399c6_2_" class="st4" d="M175.8,85.2v-3.5"/>
						</g>
					</g>
				</g>
				<g id="text_6">
					<g transform="translate(60.934188 339.361314) rotate(-90) scale(0.16 -0.16)">
						<g>
							<path id="DejaVuSans-34" d="M1717.2-603l-38.9,24.9V-603H1717.2z M1725.8-600.5v-12.4h-47.5v-10.4h-8.2v10.4h-17.2v9.8h17.2
								v32.9h9.5L1725.8-600.5z"/>
						</g>
						<g>
							<path id="DejaVuSans-30_3_" d="M1719.3-660.7c0,5.1-2.5,8.9-7.5,11.5c-5,2.6-12.5,3.8-22.5,3.8c-10,0-17.5-1.3-22.5-3.8
								c-5-2.6-7.5-6.4-7.5-11.5c0-5.1,2.5-8.9,7.5-11.5c5-2.6,12.5-3.8,22.5-3.8c10,0,17.5,1.3,22.5,3.8
								C1716.8-669.6,1719.3-665.8,1719.3-660.7z M1727.1-660.7c0-8.2-3.2-14.4-9.7-18.7c-6.5-4.3-15.8-6.5-28.1-6.5
								c-12.3,0-21.6,2.2-28.1,6.5c-6.5,4.3-9.7,10.6-9.7,18.7c0,8.2,3.2,14.4,9.7,18.7c6.5,4.3,15.8,6.5,28.1,6.5
								c12.3,0,21.7-2.2,28.1-6.5C1723.9-646.2,1727.1-652.5,1727.1-660.7z"/>
						</g>
						<g>
							<path id="DejaVuSans-30_4_" d="M1719.3-724.3c0,5.1-2.5,8.9-7.5,11.5c-5,2.6-12.5,3.8-22.5,3.8c-10,0-17.5-1.3-22.5-3.8
								c-5-2.6-7.5-6.4-7.5-11.5c0-5.1,2.5-8.9,7.5-11.5c5-2.6,12.5-3.8,22.5-3.8c10,0,17.5,1.3,22.5,3.8
								C1716.8-733.2,1719.3-729.4,1719.3-724.3z M1727.1-724.3c0-8.2-3.2-14.4-9.7-18.7c-6.5-4.3-15.8-6.5-28.1-6.5
								c-12.3,0-21.6,2.2-28.1,6.5c-6.5,4.3-9.7,10.6-9.7,18.7c0,8.2,3.2,14.4,9.7,18.7c6.5,4.3,15.8,6.5,28.1,6.5
								c12.3,0,21.7-2.2,28.1-6.5C1723.9-709.9,1727.1-716.1,1727.1-724.3z"/>
						</g>
					</g>
				</g>
			</g>
			<g id="ytick_4">
				<g id="line2d_10">
					<g>
						<defs>
							<rect id="SVGID_13_" x="40" y="85.2" width="443.5" height="279"/>
						</defs>
						<clipPath id="SVGID_14_">
							<use xlink:href="#SVGID_13_"  style="overflow:visible;"/>
						</clipPath>
						<path class="st8" d="M243.7,85.2l0,279"/>
					</g>
				</g>
				<g id="line2d_11">
					<g>
						<g>
							<path id="mbebe6399c6_3_" class="st4" d="M243.7,85.2v-3.5"/>
						</g>
					</g>
				</g>
				<g id="text_7">
					<g transform="translate(60.934188 271.451346) rotate(-90) scale(0.16 -0.16)">
						<g>
							<path id="DejaVuSans-36" d="M1268.9-1022.7c0,4.4-1.5,7.9-4.5,10.5c-3,2.6-7.2,3.9-12.4,3.9c-5.2,0-9.4-1.3-12.4-3.9
								c-3-2.6-4.6-6.1-4.6-10.5s1.5-7.9,4.6-10.5c3.1-2.6,7.2-3.9,12.4-3.9c5.3,0,9.4,1.3,12.4,3.9
								C1267.3-1030.6,1268.9-1027.1,1268.9-1022.7z M1299.8-1042.3h-9c1.2,2.5,2.1,5,2.7,7.5c0.6,2.5,0.9,5,0.9,7.5
								c0,6.5-2.2,11.5-6.6,14.9c-4.4,3.4-11,5.4-19.9,5.9c2.8-1.9,5-4.3,6.5-7.2c1.5-2.9,2.3-6.1,2.3-9.6c0-7.3-2.2-13.1-6.7-17.4
								c-4.4-4.2-10.5-6.4-18.1-6.4c-7.5,0-13.5,2.2-18,6.6c-4.5,4.4-6.8,10.3-6.8,17.7c0,8.4,3.2,14.9,9.7,19.3
								c6.5,4.5,15.8,6.7,28.1,6.7c11.5,0,20.7-2.7,27.6-8.2c6.9-5.5,10.3-12.8,10.3-22c0-2.5-0.2-5-0.7-7.5
								C1301.5-1036.9,1300.8-1039.5,1299.8-1042.3z"/>
						</g>
						<g>
							<path id="DejaVuSans-30_5_" d="M1294.9-1085.1c0,5.1-2.5,8.9-7.5,11.5c-5,2.6-12.5,3.8-22.5,3.8c-10,0-17.5-1.3-22.5-3.8
								c-5-2.6-7.5-6.4-7.5-11.5c0-5.1,2.5-8.9,7.5-11.5c5-2.6,12.5-3.8,22.5-3.8c10,0,17.5,1.3,22.5,3.8
								C1292.4-1094,1294.9-1090.2,1294.9-1085.1z M1302.7-1085.1c0-8.2-3.2-14.4-9.7-18.7c-6.5-4.3-15.8-6.5-28.1-6.5
								c-12.3,0-21.6,2.2-28.1,6.5c-6.5,4.3-9.7,10.6-9.7,18.7c0,8.2,3.2,14.4,9.7,18.7c6.5,4.3,15.8,6.5,28.1,6.5
								c12.3,0,21.7-2.2,28.1-6.5C1299.5-1070.7,1302.7-1076.9,1302.7-1085.1z"/>
						</g>
						<g>
							<path id="DejaVuSans-30_6_" d="M1294.9-1148.7c0,5.1-2.5,8.9-7.5,11.5c-5,2.6-12.5,3.8-22.5,3.8c-10,0-17.5-1.3-22.5-3.8
								c-5-2.6-7.5-6.4-7.5-11.5c0-5.1,2.5-8.9,7.5-11.5c5-2.6,12.5-3.8,22.5-3.8c10,0,17.5,1.3,22.5,3.8
								C1292.4-1157.7,1294.9-1153.8,1294.9-1148.7z M1302.7-1148.7c0-8.2-3.2-14.4-9.7-18.7c-6.5-4.3-15.8-6.5-28.1-6.5
								c-12.3,0-21.6,2.2-28.1,6.5c-6.5,4.3-9.7,10.6-9.7,18.7c0,8.2,3.2,14.4,9.7,18.7c6.5,4.3,15.8,6.5,28.1,6.5
								c12.3,0,21.7-2.2,28.1-6.5C1299.5-1134.3,1302.7-1140.5,1302.7-1148.7z"/>
						</g>
					</g>
				</g>
			</g>
			<g id="ytick_5">
				<g id="line2d_12">
					<g>
						<defs>
							<rect id="SVGID_15_" x="40" y="85.2" width="443.5" height="279"/>
						</defs>
						<clipPath id="SVGID_16_">
							<use xlink:href="#SVGID_15_"  style="overflow:visible;"/>
						</clipPath>
						<path class="st9" d="M311.7,85.2l0,279"/>
					</g>
				</g>
				<g id="line2d_13">
					<g>
						<g>
							<path id="mbebe6399c6_4_" class="st4" d="M311.7,85.2v-3.5"/>
						</g>
					</g>
				</g>
				<g id="text_8">
					<g transform="translate(60.934188 203.541379) rotate(-90) scale(0.16 -0.16)">
						<g>
							<path id="DejaVuSans-38" d="M838.7-1445.9c0,4.7-1.3,8.4-3.8,11.1c-2.5,2.7-6,4-10.3,4c-4.4,0-7.8-1.3-10.4-4
								c-2.5-2.7-3.8-6.4-3.8-11.1s1.3-8.4,3.8-11.1c2.5-2.7,6-4.1,10.3-4.1c4.4,0,7.8,1.3,10.3,4
								C837.4-1454.3,838.7-1450.6,838.7-1445.9z M842.9-1436c1,4.2,3,7.5,5.9,9.9c2.9,2.4,6.4,3.5,10.6,3.5
								c5.8,0,10.4-2.1,13.8-6.2c3.4-4.2,5.1-9.8,5.1-17.1c0-7.3-1.7-13-5.1-17.1c-3.4-4.1-8-6.2-13.8-6.2c-4.2,0-7.7,1.2-10.6,3.5
								c-2.9,2.4-4.9,5.6-5.9,9.8c-1.1-4.8-3.3-8.4-6.5-11.1c-3.2-2.7-7.2-4-11.8-4c-7.1,0-12.5,2.2-16.3,6.5
								c-3.8,4.3-5.7,10.5-5.7,18.5c0,8,1.9,14.2,5.7,18.5c3.8,4.3,9.2,6.5,16.3,6.5c4.6,0,8.6-1.3,11.8-4
								C839.6-1427.6,841.8-1431.3,842.9-1436z M858.4-1432.4c-3.8,0-6.7-1.2-8.8-3.5c-2.1-2.4-3.2-5.7-3.2-9.9
								c0-4.2,1.1-7.6,3.2-9.9c2.1-2.4,5.1-3.6,8.8-3.6c3.8,0,6.7,1.2,8.8,3.6c2.1,2.4,3.2,5.7,3.2,9.9c0,4.3-1.1,7.6-3.2,9.9
								C865.2-1433.6,862.2-1432.4,858.4-1432.4z"/>
						</g>
						<g>
							<path id="DejaVuSans-30_7_" d="M870.5-1509.5c0,5.1-2.5,8.9-7.5,11.5c-5,2.6-12.5,3.8-22.5,3.8c-10,0-17.5-1.3-22.5-3.8
								c-5-2.6-7.5-6.4-7.5-11.5c0-5.1,2.5-8.9,7.5-11.5c5-2.6,12.5-3.8,22.5-3.8c10,0,17.5,1.3,22.5,3.8
								C868-1518.5,870.5-1514.6,870.5-1509.5z M878.3-1509.5c0-8.2-3.2-14.4-9.7-18.7c-6.5-4.3-15.8-6.5-28.1-6.5
								c-12.3,0-21.6,2.2-28.1,6.5c-6.5,4.3-9.7,10.6-9.7,18.7c0,8.2,3.2,14.4,9.7,18.7c6.5,4.3,15.8,6.5,28.1,6.5
								c12.3,0,21.7-2.2,28.1-6.5C875-1495.1,878.3-1501.4,878.3-1509.5z"/>
						</g>
						<g>
							<path id="DejaVuSans-30_8_" d="M870.5-1573.2c0,5.1-2.5,8.9-7.5,11.5c-5,2.6-12.5,3.8-22.5,3.8c-10,0-17.5-1.3-22.5-3.8
								c-5-2.6-7.5-6.4-7.5-11.5c0-5.1,2.5-8.9,7.5-11.5c5-2.6,12.5-3.8,22.5-3.8c10,0,17.5,1.3,22.5,3.8
								C868-1582.1,870.5-1578.3,870.5-1573.2z M878.3-1573.2c0-8.2-3.2-14.4-9.7-18.7c-6.5-4.3-15.8-6.5-28.1-6.5
								c-12.3,0-21.6,2.2-28.1,6.5c-6.5,4.3-9.7,10.6-9.7,18.7c0,8.2,3.2,14.4,9.7,18.7c6.5,4.3,15.8,6.5,28.1,6.5
								c12.3,0,21.7-2.2,28.1-6.5C875-1558.7,878.3-1565,878.3-1573.2z"/>
						</g>
					</g>
				</g>
			</g>
			<g id="ytick_6">
				<g id="line2d_14">
					<g>
						<defs>
							<rect id="SVGID_17_" x="40" y="85.2" width="443.5" height="279"/>
						</defs>
						<clipPath id="SVGID_18_">
							<use xlink:href="#SVGID_17_"  style="overflow:visible;"/>
						</clipPath>
						<path class="st10" d="M379.6,85.2l0,279"/>
					</g>
				</g>
				<g id="line2d_15">
					<g>
						<g>
							<path id="mbebe6399c6_5_" class="st4" d="M379.6,85.2v-3.5"/>
						</g>
					</g>
				</g>
				<g id="text_9">
					<g transform="translate(60.934188 145.811411) rotate(-90) scale(0.16 -0.16)">
						<g>
							<path id="DejaVuSans-31" d="M451.5-1787.3l0-16.1l55.6,0l-3.5,17.5h9l3.5-17.4v-9.9l-64.6,0v-16.1h-8.3l0,42H451.5z"/>
						</g>
						<g>
							<path id="DejaVuSans-30_9_" d="M509.6-1870.3c0,5.1-2.5,8.9-7.5,11.5c-5,2.6-12.5,3.8-22.5,3.8c-10,0-17.5-1.3-22.5-3.8
								c-5-2.6-7.5-6.4-7.5-11.5c0-5.1,2.5-8.9,7.5-11.5c5-2.6,12.5-3.8,22.5-3.8c10,0,17.5,1.3,22.5,3.8
								C507.1-1879.3,509.6-1875.5,509.6-1870.3z M517.5-1870.3c0-8.2-3.2-14.4-9.7-18.7c-6.5-4.3-15.8-6.5-28.1-6.5
								c-12.3,0-21.6,2.2-28.1,6.5c-6.5,4.3-9.7,10.6-9.7,18.7c0,8.2,3.2,14.4,9.7,18.7c6.5,4.3,15.8,6.5,28.1,6.5
								c12.3,0,21.7-2.2,28.1-6.5C514.2-1855.9,517.5-1862.2,517.5-1870.3z"/>
						</g>
						<g>
							<path id="DejaVuSans-30_10_" d="M509.6-1934c0,5.1-2.5,8.9-7.5,11.5c-5,2.6-12.5,3.8-22.5,3.8c-10,0-17.5-1.3-22.5-3.8
								c-5-2.6-7.5-6.4-7.5-11.5c0-5.1,2.5-8.9,7.5-11.5c5-2.6,12.5-3.8,22.5-3.8c10,0,17.5,1.3,22.5,3.8
								C507.1-1942.9,509.6-1939.1,509.6-1934z M517.5-1934c0-8.2-3.2-14.4-9.7-18.7c-6.5-4.3-15.8-6.5-28.1-6.5
								c-12.3,0-21.6,2.2-28.1,6.5c-6.5,4.3-9.7,10.6-9.7,18.7c0,8.2,3.2,14.4,9.7,18.7c6.5,4.3,15.8,6.5,28.1,6.5
								c12.3,0,21.7-2.2,28.1-6.5C514.2-1919.6,517.5-1925.8,517.5-1934z"/>
						</g>
						<g>
							<path id="DejaVuSans-30_11_" d="M509.6-1997.6c0,5.1-2.5,8.9-7.5,11.5c-5,2.6-12.5,3.8-22.5,3.8c-10,0-17.5-1.3-22.5-3.8
								c-5-2.6-7.5-6.4-7.5-11.5c0-5.1,2.5-8.9,7.5-11.5c5-2.6,12.5-3.8,22.5-3.8c10,0,17.5,1.3,22.5,3.8
								C507.1-2006.5,509.6-2002.7,509.6-1997.6z M517.5-1997.6c0-8.2-3.2-14.4-9.7-18.7c-6.5-4.3-15.8-6.5-28.1-6.5
								c-12.3,0-21.6,2.2-28.1,6.5c-6.5,4.3-9.7,10.6-9.7,18.7c0,8.2,3.2,14.4,9.7,18.7c6.5,4.3,15.8,6.5,28.1,6.5
								c12.3,0,21.7-2.2,28.1-6.5C514.2-1983.2,517.5-1989.4,517.5-1997.6z"/>
						</g>
					</g>
				</g>
			</g>
			<g id="ytick_7">
				<g id="line2d_16">
					<g>
						<defs>
							<rect id="SVGID_19_" x="40" y="85.2" width="443.5" height="279"/>
						</defs>
						<clipPath id="SVGID_20_">
							<use xlink:href="#SVGID_19_"  style="overflow:visible;"/>
						</clipPath>
						<path class="st11" d="M447.5,85.2l0,279"/>
					</g>
				</g>
				<g id="line2d_17">
					<g>
						<g>
							<path id="mbebe6399c6_6_" class="st4" d="M447.5,85.2v-3.5"/>
						</g>
					</g>
				</g>
				<g id="text_10">
					<g transform="translate(60.934188 77.901443) rotate(-90) scale(0.16 -0.16)">
						<g>
							<path id="DejaVuSans-31_1_" d="M27.1-2211.8l0-16.1l55.6,0l-3.5,17.5h9l3.5-17.4v-9.9l-64.6,0l0-16.1h-8.3l0,42H27.1z"/>
						</g>
						<g>
							<path id="DejaVuSans-32_1_" d="M27.1-2282.2l0-34.4h-8.3l0,46.3h8.3c3.9-3.7,9.1-8.8,15.6-15.3c6.5-6.5,10.7-10.5,12.6-12.2
								c3.5-3.2,6.5-5.4,9-6.6c2.5-1.3,4.9-1.9,7.2-1.9c3.9,0,7,1.4,9.5,4.1c2.4,2.7,3.7,6.3,3.7,10.6c0,3.1-0.5,6.4-1.6,9.8
								c-1.1,3.4-2.7,7.1-4.9,11h10c1.6-4,2.8-7.7,3.6-11.1c0.8-3.5,1.2-6.6,1.2-9.5c0-7.6-1.9-13.6-5.7-18.1
								c-3.8-4.5-8.8-6.7-15.1-6.7c-3,0-5.8,0.6-8.5,1.7c-2.7,1.1-5.8,3.2-9.5,6.1c-0.9,0.8-3.7,3.4-8.2,7.8
								C41.5-2296.3,35.2-2290.1,27.1-2282.2z"/>
						</g>
						<g>
							<path id="DejaVuSans-30_12_" d="M85.2-2358.4c0,5.1-2.5,8.9-7.5,11.5c-5,2.6-12.5,3.8-22.5,3.8c-10,0-17.5-1.3-22.5-3.8
								c-5-2.6-7.5-6.4-7.5-11.5c0-5.1,2.5-8.9,7.5-11.5c5-2.6,12.5-3.8,22.5-3.8c10,0,17.5,1.3,22.5,3.8
								C82.7-2367.4,85.2-2363.5,85.2-2358.4z M93-2358.4c0-8.2-3.2-14.4-9.7-18.7c-6.5-4.3-15.8-6.5-28.1-6.5
								c-12.3,0-21.6,2.2-28.1,6.5c-6.5,4.3-9.7,10.6-9.7,18.7c0,8.2,3.2,14.4,9.7,18.7c6.5,4.3,15.8,6.5,28.1,6.5
								c12.3,0,21.7-2.2,28.1-6.5C89.8-2344,93-2350.2,93-2358.4z"/>
						</g>
						<g>
							<path id="DejaVuSans-30_13_" d="M85.2-2422c0,5.1-2.5,8.9-7.5,11.5c-5,2.6-12.5,3.8-22.5,3.8c-10,0-17.5-1.3-22.5-3.8
								c-5-2.6-7.5-6.4-7.5-11.5c0-5.1,2.5-8.9,7.5-11.5c5-2.6,12.5-3.8,22.5-3.8c10,0,17.5,1.3,22.5,3.8
								C82.7-2431,85.2-2427.1,85.2-2422z M93-2422c0-8.2-3.2-14.4-9.7-18.7c-6.5-4.3-15.8-6.5-28.1-6.5c-12.3,0-21.6,2.2-28.1,6.5
								c-6.5,4.3-9.7,10.6-9.7,18.7c0,8.2,3.2,14.4,9.7,18.7c6.5,4.3,15.8,6.5,28.1,6.5c12.3,0,21.7-2.2,28.1-6.5
								C89.8-2407.6,93-2413.9,93-2422z"/>
						</g>
					</g>
				</g>
			</g>
			<g id="text_11">
				<g transform="translate(20.877188 291.886875) rotate(-90) scale(0.18 -0.18)">
					<g>
						<path id="DejaVuSans-48" d="M1501-998.5v-9.9h-29.9v-35.8h29.9v-9.9h-72.9v9.9h34.7v35.8h-34.7v9.9H1501z"/>
					</g>
					<g>
						<path id="DejaVuSans-65_9_" d="M1457.6-1120.1h-4.4v41.3c-6.2-0.4-10.9-2.3-14.1-5.6s-4.9-8-4.9-13.9c0-3.4,0.4-6.8,1.3-10
							c0.8-3.2,2.1-6.5,3.8-9.7h-8.5c-1.4,3.2-2.4,6.5-3.1,9.9c-0.7,3.4-1.1,6.8-1.1,10.3c0,8.7,2.5,15.6,7.6,20.7
							c5.1,5.1,12,7.6,20.6,7.6c8.9,0,16-2.4,21.3-7.2c5.3-4.8,7.9-11.4,7.9-19.6c0-7.4-2.4-13.2-7.1-17.5
							C1472.2-1118,1465.8-1120.1,1457.6-1120.1z M1460.3-1111.1c4.9,0.1,8.8,1.4,11.8,4.1c2.9,2.7,4.4,6.2,4.4,10.7
							c0,5-1.4,9-4.2,12s-6.8,4.7-12,5.2L1460.3-1111.1z"/>
					</g>
					<g>
						<path id="DejaVuSans-61_7_" d="M1455.5-1159.7c0,7.3-0.8,12.3-2.5,15.1s-4.5,4.2-8.5,4.2c-3.2,0-5.7-1.1-7.6-3.2
							c-1.9-2.1-2.8-5-2.8-8.6c0-5,1.8-9,5.3-12c3.5-3,8.2-4.5,14.1-4.5h2V-1159.7z M1459.3-1177.7h-31.2v9h8.3
							c-3.3,2.1-5.8,4.6-7.3,7.7c-1.6,3.1-2.4,6.8-2.4,11.2c0,5.6,1.6,10,4.7,13.4c3.1,3.3,7.4,5,12.6,5c6.1,0,10.8-2.1,13.9-6.2
							c3.1-4.1,4.7-10.3,4.7-18.4v-12.6h0.9c4.1,0,7.3,1.4,9.6,4.1c2.3,2.7,3.4,6.5,3.4,11.5c0,3.1-0.4,6.2-1.1,9.1
							c-0.8,3-1.9,5.8-3.4,8.5h8.3c1.3-3.3,2.2-6.5,2.8-9.6c0.6-3.1,1-6.1,1-9c0-7.9-2.1-13.8-6.2-17.7
							C1473.8-1175.7,1467.6-1177.7,1459.3-1177.7z"/>
					</g>
					<g>
						<path id="DejaVuSans-6c" d="M1504-1196.2v-9h-76v9H1504z"/>
					</g>
					<g>
						<path id="DejaVuSans-74_4_" d="M1498.3-1232.8h-15.5v-18.5h-7v18.5h-29.7c-4.5,0-7.3-0.6-8.6-1.8c-1.3-1.2-1.9-3.7-1.9-7.5
							v-9.2h-7.5v9.2c0,6.9,1.3,11.7,3.9,14.4c2.6,2.6,7.3,4,14.1,4h29.7v6.6h7v-6.6h15.5V-1232.8z"/>
					</g>
					<g>
						<path id="DejaVuSans-68_3_" d="M1461.1-1308.6h-33v9h32.7c5.2,0,9,1,11.6,3c2.6,2,3.9,5,3.9,9.1c0,4.9-1.5,8.7-4.6,11.5
							c-3.1,2.8-7.3,4.2-12.6,4.2h-30.9v9h76v-9h-29.8c3.3-2.2,5.8-4.7,7.4-7.6c1.6-2.9,2.4-6.3,2.4-10.1c0-6.3-1.9-11-5.8-14.2
							C1474.3-1307,1468.6-1308.6,1461.1-1308.6z"/>
					</g>
					<g>
						<path id="DejaVuSans-20_16_" d="M1428.1-1317.1"/>
					</g>
					<g>
						<path id="DejaVuSans-73_4_" d="M1481.1-1393.2h-8.5c1.3,2.5,2.3,5.2,2.9,7.9c0.7,2.7,1,5.6,1,8.5c0,4.5-0.7,7.8-2,10
							c-1.4,2.2-3.4,3.3-6.2,3.3c-2.1,0-3.7-0.8-4.9-2.4s-2.3-4.8-3.4-9.6l-0.7-3.1c-1.4-6.4-3.3-10.9-5.8-13.6c-2.5-2.7-6-4-10.4-4
							c-5.1,0-9.1,2-12.1,6c-3,4-4.4,9.5-4.4,16.6c0,2.9,0.3,6,0.9,9.2c0.6,3.2,1.4,6.5,2.6,10h9.3c-1.7-3.3-3-6.6-3.9-9.8
							c-0.9-3.2-1.3-6.4-1.3-9.6c0-4.2,0.7-7.5,2.2-9.8c1.4-2.3,3.5-3.4,6.1-3.4c2.4,0,4.3,0.8,5.6,2.5c1.3,1.6,2.6,5.2,3.8,10.8
							l0.7,3.1c1.2,5.6,3,9.6,5.4,12.1c2.4,2.5,5.8,3.7,10,3.7c5.1,0,9.1-1.8,11.9-5.5c2.8-3.6,4.2-8.8,4.2-15.5
							c0-3.3-0.2-6.4-0.7-9.4C1482.8-1388,1482.1-1390.7,1481.1-1393.2z"/>
					</g>
					<g>
						<path id="DejaVuSans-74_5_" d="M1498.3-1419.3h-15.5l0-18.5h-7l0,18.5h-29.7c-4.5,0-7.3-0.6-8.6-1.8c-1.3-1.2-1.9-3.7-1.9-7.5
							v-9.2h-7.5v9.2c0,6.9,1.3,11.7,3.9,14.4c2.6,2.6,7.3,4,14.1,4h29.7v6.6h7v-6.6h15.5V-1419.3z"/>
					</g>
					<g>
						<path id="DejaVuSans-61_8_" d="M1455.5-1474.5c0,7.3-0.8,12.3-2.5,15.1c-1.7,2.8-4.5,4.2-8.5,4.2c-3.2,0-5.7-1.1-7.6-3.2
							c-1.9-2.1-2.8-5-2.8-8.6c0-5,1.8-9,5.3-12c3.5-3,8.2-4.5,14.1-4.5h2V-1474.5z M1459.3-1492.4h-31.2v9h8.3
							c-3.3,2.1-5.8,4.6-7.3,7.7c-1.6,3.1-2.4,6.8-2.4,11.2c0,5.6,1.6,10,4.7,13.4c3.1,3.3,7.4,5,12.6,5c6.1,0,10.8-2.1,13.9-6.2
							c3.1-4.1,4.7-10.3,4.7-18.4v-12.6h0.9c4.1,0,7.3,1.4,9.6,4.1c2.3,2.7,3.4,6.5,3.4,11.5c0,3.1-0.4,6.2-1.1,9.1
							c-0.8,3-1.9,5.8-3.4,8.5h8.3c1.3-3.3,2.2-6.5,2.8-9.6c0.6-3.1,1-6.1,1-9c0-7.9-2.1-13.8-6.2-17.7
							C1473.8-1490.4,1467.6-1492.4,1459.3-1492.4z"/>
					</g>
					<g>
						<path id="DejaVuSans-74_6_" d="M1498.3-1519.8h-15.5v-18.5h-7v18.5h-29.7c-4.5,0-7.3-0.6-8.6-1.8s-1.9-3.7-1.9-7.5v-9.2h-7.5
							v9.2c0,6.9,1.3,11.7,3.9,14.4c2.6,2.6,7.3,4,14.1,4h29.7v6.6h7v-6.6h15.5V-1519.8z"/>
					</g>
					<g>
						<path id="DejaVuSans-75" d="M1449.6-1549.2h33.1v-9H1450c-5.2,0-9.1-1-11.7-3c-2.6-2-3.9-5.1-3.9-9.1c0-4.8,1.5-8.7,4.6-11.5
							c3.1-2.8,7.3-4.2,12.7-4.2h31v-9h-54.7v9h8.4c-3.3,2.2-5.8,4.7-7.4,7.6c-1.6,2.9-2.4,6.2-2.4,10c0,6.3,2,11.1,5.9,14.3
							C1436.4-1550.8,1442.1-1549.2,1449.6-1549.2z M1484.1-1571.8L1484.1-1571.8z"/>
					</g>
					<g>
						<path id="DejaVuSans-73_5_" d="M1481.1-1648.3h-8.5c1.3,2.5,2.3,5.2,2.9,7.9c0.7,2.7,1,5.6,1,8.5c0,4.5-0.7,7.8-2,10
							c-1.4,2.2-3.4,3.3-6.2,3.3c-2.1,0-3.7-0.8-4.9-2.4s-2.3-4.8-3.4-9.6l-0.7-3.1c-1.4-6.4-3.3-10.9-5.8-13.6c-2.5-2.7-6-4-10.4-4
							c-5.1,0-9.1,2-12.1,6c-3,4-4.4,9.5-4.4,16.6c0,2.9,0.3,6,0.9,9.2c0.6,3.2,1.4,6.5,2.6,10h9.3c-1.7-3.3-3-6.6-3.9-9.8
							c-0.9-3.2-1.3-6.4-1.3-9.6c0-4.2,0.7-7.5,2.2-9.8c1.4-2.3,3.5-3.4,6.1-3.4c2.4,0,4.3,0.8,5.6,2.5c1.3,1.6,2.6,5.2,3.8,10.8
							l0.7,3.1c1.2,5.6,3,9.6,5.4,12.1c2.4,2.5,5.8,3.7,10,3.7c5.1,0,9.1-1.8,11.9-5.5c2.8-3.6,4.2-8.8,4.2-15.5
							c0-3.3-0.2-6.4-0.7-9.4C1482.8-1643.2,1482.1-1645.9,1481.1-1648.3z"/>
					</g>
					<g>
						<path id="DejaVuSans-20_17_" d="M1428.1-1656.2"/>
					</g>
				</g>
				<g transform="translate(41.03325 228.96) rotate(-90) scale(0.18 -0.18)">
				</g>
			</g>
		</g>
		<g id="patch_6">
			<path class="st12" d="M40,85.2l443.5,0"/>
		</g>
		<g id="patch_7">
			<path class="st12" d="M40,364.2l443.5,0"/>
		</g>
		<g id="patch_8">
			<path class="st12" d="M40,85.2l0,279"/>
		</g>
		<g id="patch_9">
			<path class="st12" d="M483.5,85.2l0,279"/>
		</g>
	</g>
</g>
</svg>
