<?xml version="1.0" encoding="utf-8" standalone="no"?>
<!DOCTYPE svg PUBLIC "-//W3C//DTD SVG 1.1//EN"
  "http://www.w3.org/Graphics/SVG/1.1/DTD/svg11.dtd">
<svg xmlns:xlink="http://www.w3.org/1999/xlink" width="620.3675pt" height="336.194062pt" viewBox="0 0 620.3675 336.194062" xmlns="http://www.w3.org/2000/svg" version="1.1">
 <metadata>
  <rdf:RDF xmlns:dc="http://purl.org/dc/elements/1.1/" xmlns:cc="http://creativecommons.org/ns#" xmlns:rdf="http://www.w3.org/1999/02/22-rdf-syntax-ns#">
   <cc:Work>
    <dc:type rdf:resource="http://purl.org/dc/dcmitype/StillImage"/>
    <dc:date>2023-11-02T13:11:14.859952</dc:date>
    <dc:format>image/svg+xml</dc:format>
    <dc:creator>
     <cc:Agent>
      <dc:title>Matplotlib v3.7.1, https://matplotlib.org/</dc:title>
     </cc:Agent>
    </dc:creator>
   </cc:Work>
  </rdf:RDF>
 </metadata>
 <defs>
  <style type="text/css">*{stroke-linejoin: round; stroke-linecap: butt}</style>
 </defs>
 <g id="figure_1">
  <g id="patch_1">
   <path d="M 0 336.194062 
L 620.3675 336.194062 
L 620.3675 0 
L 0 0 
z
" style="fill: #ffffff"/>
  </g>
  <g id="axes_1">
   <g id="patch_2">
    <path d="M 55.1675 284.4 
L 613.1675 284.4 
L 613.1675 7.2 
L 55.1675 7.2 
z
" style="fill: #ffffff"/>
   </g>
   <g id="matplotlib.axis_1">
    <g id="xtick_1">
     <g id="line2d_1">
      <path d="M 171.115552 284.4 
L 171.115552 7.2 
" clip-path="url(#p62f8d7d970)" style="fill: none; stroke: #cccccc; stroke-linecap: round"/>
     </g>
     <g id="text_1">
      <!-- −40 -->
      <g style="fill: #262626" transform="translate(157.545552 305.3525) scale(0.16 -0.16)">
       <defs>
        <path id="ArialMT-2212" d="M 3381 1997 
L 356 1997 
L 356 2522 
L 3381 2522 
L 3381 1997 
z
" transform="scale(0.015625)"/>
        <path id="ArialMT-34" d="M 2069 0 
L 2069 1097 
L 81 1097 
L 81 1613 
L 2172 4581 
L 2631 4581 
L 2631 1613 
L 3250 1613 
L 3250 1097 
L 2631 1097 
L 2631 0 
L 2069 0 
z
M 2069 1613 
L 2069 3678 
L 634 1613 
L 2069 1613 
z
" transform="scale(0.015625)"/>
        <path id="ArialMT-30" d="M 266 2259 
Q 266 3072 433 3567 
Q 600 4063 929 4331 
Q 1259 4600 1759 4600 
Q 2128 4600 2406 4451 
Q 2684 4303 2865 4023 
Q 3047 3744 3150 3342 
Q 3253 2941 3253 2259 
Q 3253 1453 3087 958 
Q 2922 463 2592 192 
Q 2263 -78 1759 -78 
Q 1097 -78 719 397 
Q 266 969 266 2259 
z
M 844 2259 
Q 844 1131 1108 757 
Q 1372 384 1759 384 
Q 2147 384 2411 759 
Q 2675 1134 2675 2259 
Q 2675 3391 2411 3762 
Q 2147 4134 1753 4134 
Q 1366 4134 1134 3806 
Q 844 3388 844 2259 
z
" transform="scale(0.015625)"/>
       </defs>
       <use xlink:href="#ArialMT-2212"/>
       <use xlink:href="#ArialMT-34" x="58.398438"/>
       <use xlink:href="#ArialMT-30" x="114.013672"/>
      </g>
     </g>
    </g>
    <g id="xtick_2">
     <g id="line2d_2">
      <path d="M 291.894773 284.4 
L 291.894773 7.2 
" clip-path="url(#p62f8d7d970)" style="fill: none; stroke: #cccccc; stroke-linecap: round"/>
     </g>
     <g id="text_2">
      <!-- −20 -->
      <g style="fill: #262626" transform="translate(278.324773 305.3525) scale(0.16 -0.16)">
       <defs>
        <path id="ArialMT-32" d="M 3222 541 
L 3222 0 
L 194 0 
Q 188 203 259 391 
Q 375 700 629 1000 
Q 884 1300 1366 1694 
Q 2113 2306 2375 2664 
Q 2638 3022 2638 3341 
Q 2638 3675 2398 3904 
Q 2159 4134 1775 4134 
Q 1369 4134 1125 3890 
Q 881 3647 878 3216 
L 300 3275 
Q 359 3922 746 4261 
Q 1134 4600 1788 4600 
Q 2447 4600 2831 4234 
Q 3216 3869 3216 3328 
Q 3216 3053 3103 2787 
Q 2991 2522 2730 2228 
Q 2469 1934 1863 1422 
Q 1356 997 1212 845 
Q 1069 694 975 541 
L 3222 541 
z
" transform="scale(0.015625)"/>
       </defs>
       <use xlink:href="#ArialMT-2212"/>
       <use xlink:href="#ArialMT-32" x="58.398438"/>
       <use xlink:href="#ArialMT-30" x="114.013672"/>
      </g>
     </g>
    </g>
    <g id="xtick_3">
     <g id="line2d_3">
      <path d="M 412.673994 284.4 
L 412.673994 7.2 
" clip-path="url(#p62f8d7d970)" style="fill: none; stroke: #cccccc; stroke-linecap: round"/>
     </g>
     <g id="text_3">
      <!-- 0 -->
      <g style="fill: #262626" transform="translate(408.225244 305.3525) scale(0.16 -0.16)">
       <use xlink:href="#ArialMT-30"/>
      </g>
     </g>
    </g>
    <g id="xtick_4">
     <g id="line2d_4">
      <path d="M 533.453214 284.4 
L 533.453214 7.2 
" clip-path="url(#p62f8d7d970)" style="fill: none; stroke: #cccccc; stroke-linecap: round"/>
     </g>
     <g id="text_4">
      <!-- 20 -->
      <g style="fill: #262626" transform="translate(524.555714 305.3525) scale(0.16 -0.16)">
       <use xlink:href="#ArialMT-32"/>
       <use xlink:href="#ArialMT-30" x="55.615234"/>
      </g>
     </g>
    </g>
    <g id="text_5">
     <!-- Number of Cases -->
     <g style="fill: #262626" transform="translate(264.144688 325.416562) scale(0.18 -0.18)">
      <defs>
       <path id="ArialMT-4e" d="M 488 0 
L 488 4581 
L 1109 4581 
L 3516 984 
L 3516 4581 
L 4097 4581 
L 4097 0 
L 3475 0 
L 1069 3600 
L 1069 0 
L 488 0 
z
" transform="scale(0.015625)"/>
       <path id="ArialMT-75" d="M 2597 0 
L 2597 488 
Q 2209 -75 1544 -75 
Q 1250 -75 995 37 
Q 741 150 617 320 
Q 494 491 444 738 
Q 409 903 409 1263 
L 409 3319 
L 972 3319 
L 972 1478 
Q 972 1038 1006 884 
Q 1059 663 1231 536 
Q 1403 409 1656 409 
Q 1909 409 2131 539 
Q 2353 669 2445 892 
Q 2538 1116 2538 1541 
L 2538 3319 
L 3100 3319 
L 3100 0 
L 2597 0 
z
" transform="scale(0.015625)"/>
       <path id="ArialMT-6d" d="M 422 0 
L 422 3319 
L 925 3319 
L 925 2853 
Q 1081 3097 1340 3245 
Q 1600 3394 1931 3394 
Q 2300 3394 2536 3241 
Q 2772 3088 2869 2813 
Q 3263 3394 3894 3394 
Q 4388 3394 4653 3120 
Q 4919 2847 4919 2278 
L 4919 0 
L 4359 0 
L 4359 2091 
Q 4359 2428 4304 2576 
Q 4250 2725 4106 2815 
Q 3963 2906 3769 2906 
Q 3419 2906 3187 2673 
Q 2956 2441 2956 1928 
L 2956 0 
L 2394 0 
L 2394 2156 
Q 2394 2531 2256 2718 
Q 2119 2906 1806 2906 
Q 1569 2906 1367 2781 
Q 1166 2656 1075 2415 
Q 984 2175 984 1722 
L 984 0 
L 422 0 
z
" transform="scale(0.015625)"/>
       <path id="ArialMT-62" d="M 941 0 
L 419 0 
L 419 4581 
L 981 4581 
L 981 2947 
Q 1338 3394 1891 3394 
Q 2197 3394 2470 3270 
Q 2744 3147 2920 2923 
Q 3097 2700 3197 2384 
Q 3297 2069 3297 1709 
Q 3297 856 2875 390 
Q 2453 -75 1863 -75 
Q 1275 -75 941 416 
L 941 0 
z
M 934 1684 
Q 934 1088 1097 822 
Q 1363 388 1816 388 
Q 2184 388 2453 708 
Q 2722 1028 2722 1663 
Q 2722 2313 2464 2622 
Q 2206 2931 1841 2931 
Q 1472 2931 1203 2611 
Q 934 2291 934 1684 
z
" transform="scale(0.015625)"/>
       <path id="ArialMT-65" d="M 2694 1069 
L 3275 997 
Q 3138 488 2766 206 
Q 2394 -75 1816 -75 
Q 1088 -75 661 373 
Q 234 822 234 1631 
Q 234 2469 665 2931 
Q 1097 3394 1784 3394 
Q 2450 3394 2872 2941 
Q 3294 2488 3294 1666 
Q 3294 1616 3291 1516 
L 816 1516 
Q 847 969 1125 678 
Q 1403 388 1819 388 
Q 2128 388 2347 550 
Q 2566 713 2694 1069 
z
M 847 1978 
L 2700 1978 
Q 2663 2397 2488 2606 
Q 2219 2931 1791 2931 
Q 1403 2931 1139 2672 
Q 875 2413 847 1978 
z
" transform="scale(0.015625)"/>
       <path id="ArialMT-72" d="M 416 0 
L 416 3319 
L 922 3319 
L 922 2816 
Q 1116 3169 1280 3281 
Q 1444 3394 1641 3394 
Q 1925 3394 2219 3213 
L 2025 2691 
Q 1819 2813 1613 2813 
Q 1428 2813 1281 2702 
Q 1134 2591 1072 2394 
Q 978 2094 978 1738 
L 978 0 
L 416 0 
z
" transform="scale(0.015625)"/>
       <path id="ArialMT-20" transform="scale(0.015625)"/>
       <path id="ArialMT-6f" d="M 213 1659 
Q 213 2581 725 3025 
Q 1153 3394 1769 3394 
Q 2453 3394 2887 2945 
Q 3322 2497 3322 1706 
Q 3322 1066 3130 698 
Q 2938 331 2570 128 
Q 2203 -75 1769 -75 
Q 1072 -75 642 372 
Q 213 819 213 1659 
z
M 791 1659 
Q 791 1022 1069 705 
Q 1347 388 1769 388 
Q 2188 388 2466 706 
Q 2744 1025 2744 1678 
Q 2744 2294 2464 2611 
Q 2184 2928 1769 2928 
Q 1347 2928 1069 2612 
Q 791 2297 791 1659 
z
" transform="scale(0.015625)"/>
       <path id="ArialMT-66" d="M 556 0 
L 556 2881 
L 59 2881 
L 59 3319 
L 556 3319 
L 556 3672 
Q 556 4006 616 4169 
Q 697 4388 901 4523 
Q 1106 4659 1475 4659 
Q 1713 4659 2000 4603 
L 1916 4113 
Q 1741 4144 1584 4144 
Q 1328 4144 1222 4034 
Q 1116 3925 1116 3625 
L 1116 3319 
L 1763 3319 
L 1763 2881 
L 1116 2881 
L 1116 0 
L 556 0 
z
" transform="scale(0.015625)"/>
       <path id="ArialMT-43" d="M 3763 1606 
L 4369 1453 
Q 4178 706 3683 314 
Q 3188 -78 2472 -78 
Q 1731 -78 1267 223 
Q 803 525 561 1097 
Q 319 1669 319 2325 
Q 319 3041 592 3573 
Q 866 4106 1370 4382 
Q 1875 4659 2481 4659 
Q 3169 4659 3637 4309 
Q 4106 3959 4291 3325 
L 3694 3184 
Q 3534 3684 3231 3912 
Q 2928 4141 2469 4141 
Q 1941 4141 1586 3887 
Q 1231 3634 1087 3207 
Q 944 2781 944 2328 
Q 944 1744 1114 1308 
Q 1284 872 1643 656 
Q 2003 441 2422 441 
Q 2931 441 3284 734 
Q 3638 1028 3763 1606 
z
" transform="scale(0.015625)"/>
       <path id="ArialMT-61" d="M 2588 409 
Q 2275 144 1986 34 
Q 1697 -75 1366 -75 
Q 819 -75 525 192 
Q 231 459 231 875 
Q 231 1119 342 1320 
Q 453 1522 633 1644 
Q 813 1766 1038 1828 
Q 1203 1872 1538 1913 
Q 2219 1994 2541 2106 
Q 2544 2222 2544 2253 
Q 2544 2597 2384 2738 
Q 2169 2928 1744 2928 
Q 1347 2928 1158 2789 
Q 969 2650 878 2297 
L 328 2372 
Q 403 2725 575 2942 
Q 747 3159 1072 3276 
Q 1397 3394 1825 3394 
Q 2250 3394 2515 3294 
Q 2781 3194 2906 3042 
Q 3031 2891 3081 2659 
Q 3109 2516 3109 2141 
L 3109 1391 
Q 3109 606 3145 398 
Q 3181 191 3288 0 
L 2700 0 
Q 2613 175 2588 409 
z
M 2541 1666 
Q 2234 1541 1622 1453 
Q 1275 1403 1131 1340 
Q 988 1278 909 1158 
Q 831 1038 831 891 
Q 831 666 1001 516 
Q 1172 366 1500 366 
Q 1825 366 2078 508 
Q 2331 650 2450 897 
Q 2541 1088 2541 1459 
L 2541 1666 
z
" transform="scale(0.015625)"/>
       <path id="ArialMT-73" d="M 197 991 
L 753 1078 
Q 800 744 1014 566 
Q 1228 388 1613 388 
Q 2000 388 2187 545 
Q 2375 703 2375 916 
Q 2375 1106 2209 1216 
Q 2094 1291 1634 1406 
Q 1016 1563 777 1677 
Q 538 1791 414 1992 
Q 291 2194 291 2438 
Q 291 2659 392 2848 
Q 494 3038 669 3163 
Q 800 3259 1026 3326 
Q 1253 3394 1513 3394 
Q 1903 3394 2198 3281 
Q 2494 3169 2634 2976 
Q 2775 2784 2828 2463 
L 2278 2388 
Q 2241 2644 2061 2787 
Q 1881 2931 1553 2931 
Q 1166 2931 1000 2803 
Q 834 2675 834 2503 
Q 834 2394 903 2306 
Q 972 2216 1119 2156 
Q 1203 2125 1616 2013 
Q 2213 1853 2448 1751 
Q 2684 1650 2818 1456 
Q 2953 1263 2953 975 
Q 2953 694 2789 445 
Q 2625 197 2315 61 
Q 2006 -75 1616 -75 
Q 969 -75 630 194 
Q 291 463 197 991 
z
" transform="scale(0.015625)"/>
      </defs>
      <use xlink:href="#ArialMT-4e"/>
      <use xlink:href="#ArialMT-75" x="72.216797"/>
      <use xlink:href="#ArialMT-6d" x="127.832031"/>
      <use xlink:href="#ArialMT-62" x="211.132812"/>
      <use xlink:href="#ArialMT-65" x="266.748047"/>
      <use xlink:href="#ArialMT-72" x="322.363281"/>
      <use xlink:href="#ArialMT-20" x="355.664062"/>
      <use xlink:href="#ArialMT-6f" x="383.447266"/>
      <use xlink:href="#ArialMT-66" x="439.0625"/>
      <use xlink:href="#ArialMT-20" x="466.845703"/>
      <use xlink:href="#ArialMT-43" x="494.628906"/>
      <use xlink:href="#ArialMT-61" x="566.845703"/>
      <use xlink:href="#ArialMT-73" x="622.460938"/>
      <use xlink:href="#ArialMT-65" x="672.460938"/>
      <use xlink:href="#ArialMT-73" x="728.076172"/>
     </g>
    </g>
   </g>
   <g id="matplotlib.axis_2">
    <g id="ytick_1">
     <g id="line2d_5">
      <path d="M 55.1675 270.291018 
L 613.1675 270.291018 
" clip-path="url(#p62f8d7d970)" style="fill: none; stroke: #cccccc; stroke-linecap: round"/>
     </g>
     <g id="text_6">
      <!-- 0 -->
      <g style="fill: #262626" transform="translate(36.77 276.017268) scale(0.16 -0.16)">
       <use xlink:href="#ArialMT-30"/>
      </g>
     </g>
    </g>
    <g id="ytick_2">
     <g id="line2d_6">
      <path d="M 55.1675 232.566467 
L 613.1675 232.566467 
" clip-path="url(#p62f8d7d970)" style="fill: none; stroke: #cccccc; stroke-linecap: round"/>
     </g>
     <g id="text_7">
      <!-- 10 -->
      <g style="fill: #262626" transform="translate(27.8725 238.292717) scale(0.16 -0.16)">
       <defs>
        <path id="ArialMT-31" d="M 2384 0 
L 1822 0 
L 1822 3584 
Q 1619 3391 1289 3197 
Q 959 3003 697 2906 
L 697 3450 
Q 1169 3672 1522 3987 
Q 1875 4303 2022 4600 
L 2384 4600 
L 2384 0 
z
" transform="scale(0.015625)"/>
       </defs>
       <use xlink:href="#ArialMT-31"/>
       <use xlink:href="#ArialMT-30" x="55.615234"/>
      </g>
     </g>
    </g>
    <g id="ytick_3">
     <g id="line2d_7">
      <path d="M 55.1675 194.841916 
L 613.1675 194.841916 
" clip-path="url(#p62f8d7d970)" style="fill: none; stroke: #cccccc; stroke-linecap: round"/>
     </g>
     <g id="text_8">
      <!-- 20 -->
      <g style="fill: #262626" transform="translate(27.8725 200.568166) scale(0.16 -0.16)">
       <use xlink:href="#ArialMT-32"/>
       <use xlink:href="#ArialMT-30" x="55.615234"/>
      </g>
     </g>
    </g>
    <g id="ytick_4">
     <g id="line2d_8">
      <path d="M 55.1675 157.117365 
L 613.1675 157.117365 
" clip-path="url(#p62f8d7d970)" style="fill: none; stroke: #cccccc; stroke-linecap: round"/>
     </g>
     <g id="text_9">
      <!-- 30 -->
      <g style="fill: #262626" transform="translate(27.8725 162.843615) scale(0.16 -0.16)">
       <defs>
        <path id="ArialMT-33" d="M 269 1209 
L 831 1284 
Q 928 806 1161 595 
Q 1394 384 1728 384 
Q 2125 384 2398 659 
Q 2672 934 2672 1341 
Q 2672 1728 2419 1979 
Q 2166 2231 1775 2231 
Q 1616 2231 1378 2169 
L 1441 2663 
Q 1497 2656 1531 2656 
Q 1891 2656 2178 2843 
Q 2466 3031 2466 3422 
Q 2466 3731 2256 3934 
Q 2047 4138 1716 4138 
Q 1388 4138 1169 3931 
Q 950 3725 888 3313 
L 325 3413 
Q 428 3978 793 4289 
Q 1159 4600 1703 4600 
Q 2078 4600 2393 4439 
Q 2709 4278 2876 4000 
Q 3044 3722 3044 3409 
Q 3044 3113 2884 2869 
Q 2725 2625 2413 2481 
Q 2819 2388 3044 2092 
Q 3269 1797 3269 1353 
Q 3269 753 2831 336 
Q 2394 -81 1725 -81 
Q 1122 -81 723 278 
Q 325 638 269 1209 
z
" transform="scale(0.015625)"/>
       </defs>
       <use xlink:href="#ArialMT-33"/>
       <use xlink:href="#ArialMT-30" x="55.615234"/>
      </g>
     </g>
    </g>
    <g id="ytick_5">
     <g id="line2d_9">
      <path d="M 55.1675 119.392814 
L 613.1675 119.392814 
" clip-path="url(#p62f8d7d970)" style="fill: none; stroke: #cccccc; stroke-linecap: round"/>
     </g>
     <g id="text_10">
      <!-- 40 -->
      <g style="fill: #262626" transform="translate(27.8725 125.119064) scale(0.16 -0.16)">
       <use xlink:href="#ArialMT-34"/>
       <use xlink:href="#ArialMT-30" x="55.615234"/>
      </g>
     </g>
    </g>
    <g id="ytick_6">
     <g id="line2d_10">
      <path d="M 55.1675 81.668263 
L 613.1675 81.668263 
" clip-path="url(#p62f8d7d970)" style="fill: none; stroke: #cccccc; stroke-linecap: round"/>
     </g>
     <g id="text_11">
      <!-- 50 -->
      <g style="fill: #262626" transform="translate(27.8725 87.394513) scale(0.16 -0.16)">
       <defs>
        <path id="ArialMT-35" d="M 266 1200 
L 856 1250 
Q 922 819 1161 601 
Q 1400 384 1738 384 
Q 2144 384 2425 690 
Q 2706 997 2706 1503 
Q 2706 1984 2436 2262 
Q 2166 2541 1728 2541 
Q 1456 2541 1237 2417 
Q 1019 2294 894 2097 
L 366 2166 
L 809 4519 
L 3088 4519 
L 3088 3981 
L 1259 3981 
L 1013 2750 
Q 1425 3038 1878 3038 
Q 2478 3038 2890 2622 
Q 3303 2206 3303 1553 
Q 3303 931 2941 478 
Q 2500 -78 1738 -78 
Q 1113 -78 717 272 
Q 322 622 266 1200 
z
" transform="scale(0.015625)"/>
       </defs>
       <use xlink:href="#ArialMT-35"/>
       <use xlink:href="#ArialMT-30" x="55.615234"/>
      </g>
     </g>
    </g>
    <g id="ytick_7">
     <g id="line2d_11">
      <path d="M 55.1675 43.943713 
L 613.1675 43.943713 
" clip-path="url(#p62f8d7d970)" style="fill: none; stroke: #cccccc; stroke-linecap: round"/>
     </g>
     <g id="text_12">
      <!-- 60 -->
      <g style="fill: #262626" transform="translate(27.8725 49.669963) scale(0.16 -0.16)">
       <defs>
        <path id="ArialMT-36" d="M 3184 3459 
L 2625 3416 
Q 2550 3747 2413 3897 
Q 2184 4138 1850 4138 
Q 1581 4138 1378 3988 
Q 1113 3794 959 3422 
Q 806 3050 800 2363 
Q 1003 2672 1297 2822 
Q 1591 2972 1913 2972 
Q 2475 2972 2870 2558 
Q 3266 2144 3266 1488 
Q 3266 1056 3080 686 
Q 2894 316 2569 119 
Q 2244 -78 1831 -78 
Q 1128 -78 684 439 
Q 241 956 241 2144 
Q 241 3472 731 4075 
Q 1159 4600 1884 4600 
Q 2425 4600 2770 4297 
Q 3116 3994 3184 3459 
z
M 888 1484 
Q 888 1194 1011 928 
Q 1134 663 1356 523 
Q 1578 384 1822 384 
Q 2178 384 2434 671 
Q 2691 959 2691 1453 
Q 2691 1928 2437 2201 
Q 2184 2475 1800 2475 
Q 1419 2475 1153 2201 
Q 888 1928 888 1484 
z
" transform="scale(0.015625)"/>
       </defs>
       <use xlink:href="#ArialMT-36"/>
       <use xlink:href="#ArialMT-30" x="55.615234"/>
      </g>
     </g>
    </g>
    <g id="text_13">
     <!-- Age -->
     <g style="fill: #262626" transform="translate(20.084062 161.812969) rotate(-90) scale(0.18 -0.18)">
      <defs>
       <path id="ArialMT-41" d="M -9 0 
L 1750 4581 
L 2403 4581 
L 4278 0 
L 3588 0 
L 3053 1388 
L 1138 1388 
L 634 0 
L -9 0 
z
M 1313 1881 
L 2866 1881 
L 2388 3150 
Q 2169 3728 2063 4100 
Q 1975 3659 1816 3225 
L 1313 1881 
z
" transform="scale(0.015625)"/>
       <path id="ArialMT-67" d="M 319 -275 
L 866 -356 
Q 900 -609 1056 -725 
Q 1266 -881 1628 -881 
Q 2019 -881 2231 -725 
Q 2444 -569 2519 -288 
Q 2563 -116 2559 434 
Q 2191 0 1641 0 
Q 956 0 581 494 
Q 206 988 206 1678 
Q 206 2153 378 2554 
Q 550 2956 876 3175 
Q 1203 3394 1644 3394 
Q 2231 3394 2613 2919 
L 2613 3319 
L 3131 3319 
L 3131 450 
Q 3131 -325 2973 -648 
Q 2816 -972 2473 -1159 
Q 2131 -1347 1631 -1347 
Q 1038 -1347 672 -1080 
Q 306 -813 319 -275 
z
M 784 1719 
Q 784 1066 1043 766 
Q 1303 466 1694 466 
Q 2081 466 2343 764 
Q 2606 1063 2606 1700 
Q 2606 2309 2336 2618 
Q 2066 2928 1684 2928 
Q 1309 2928 1046 2623 
Q 784 2319 784 1719 
z
" transform="scale(0.015625)"/>
      </defs>
      <use xlink:href="#ArialMT-41"/>
      <use xlink:href="#ArialMT-67" x="66.699219"/>
      <use xlink:href="#ArialMT-65" x="122.314453"/>
     </g>
    </g>
   </g>
   <g id="patch_3">
    <path d="M 0 0 
z
" clip-path="url(#p62f8d7d970)" style="fill: #99cccd; stroke: #ffffff; stroke-width: 0.01; stroke-linejoin: miter"/>
   </g>
   <g id="patch_4">
    <path d="M 412.673994 268.027545 
L 418.712955 268.027545 
L 418.712955 265.009581 
L 412.673994 265.009581 
z
" clip-path="url(#p62f8d7d970)" style="fill: #99cccd; stroke: #ffffff; stroke-width: 0.01; stroke-linejoin: miter"/>
   </g>
   <g id="patch_5">
    <path d="M 412.673994 264.25509 
L 424.751916 264.25509 
L 424.751916 261.237126 
L 412.673994 261.237126 
z
" clip-path="url(#p62f8d7d970)" style="fill: #99cccd; stroke: #ffffff; stroke-width: 0.01; stroke-linejoin: miter"/>
   </g>
   <g id="patch_6">
    <path d="M 412.673994 260.482635 
L 418.712955 260.482635 
L 418.712955 257.464671 
L 412.673994 257.464671 
z
" clip-path="url(#p62f8d7d970)" style="fill: #99cccd; stroke: #ffffff; stroke-width: 0.01; stroke-linejoin: miter"/>
   </g>
   <g id="patch_7">
    <path d="M 412.673994 256.71018 
L 460.985682 256.71018 
L 460.985682 253.692216 
L 412.673994 253.692216 
z
" clip-path="url(#p62f8d7d970)" style="fill: #99cccd; stroke: #ffffff; stroke-width: 0.01; stroke-linejoin: miter"/>
   </g>
   <g id="patch_8">
    <path d="M 412.673994 252.937725 
L 509.29737 252.937725 
L 509.29737 249.91976 
L 412.673994 249.91976 
z
" clip-path="url(#p62f8d7d970)" style="fill: #99cccd; stroke: #ffffff; stroke-width: 0.01; stroke-linejoin: miter"/>
   </g>
   <g id="patch_9">
    <path d="M 412.673994 249.165269 
L 509.29737 249.165269 
L 509.29737 246.147305 
L 412.673994 246.147305 
z
" clip-path="url(#p62f8d7d970)" style="fill: #99cccd; stroke: #ffffff; stroke-width: 0.01; stroke-linejoin: miter"/>
   </g>
   <g id="patch_10">
    <path d="M 412.673994 245.392814 
L 587.803864 245.392814 
L 587.803864 242.37485 
L 412.673994 242.37485 
z
" clip-path="url(#p62f8d7d970)" style="fill: #99cccd; stroke: #ffffff; stroke-width: 0.01; stroke-linejoin: miter"/>
   </g>
   <g id="patch_11">
    <path d="M 412.673994 241.620359 
L 563.648019 241.620359 
L 563.648019 238.602395 
L 412.673994 238.602395 
z
" clip-path="url(#p62f8d7d970)" style="fill: #99cccd; stroke: #ffffff; stroke-width: 0.01; stroke-linejoin: miter"/>
   </g>
   <g id="patch_12">
    <path d="M 412.673994 237.847904 
L 509.29737 237.847904 
L 509.29737 234.82994 
L 412.673994 234.82994 
z
" clip-path="url(#p62f8d7d970)" style="fill: #99cccd; stroke: #ffffff; stroke-width: 0.01; stroke-linejoin: miter"/>
   </g>
   <g id="patch_13">
    <path d="M 412.673994 234.075449 
L 569.686981 234.075449 
L 569.686981 231.057485 
L 412.673994 231.057485 
z
" clip-path="url(#p62f8d7d970)" style="fill: #99cccd; stroke: #ffffff; stroke-width: 0.01; stroke-linejoin: miter"/>
   </g>
   <g id="patch_14">
    <path d="M 412.673994 230.302994 
L 563.648019 230.302994 
L 563.648019 227.28503 
L 412.673994 227.28503 
z
" clip-path="url(#p62f8d7d970)" style="fill: #99cccd; stroke: #ffffff; stroke-width: 0.01; stroke-linejoin: miter"/>
   </g>
   <g id="patch_15">
    <path d="M 412.673994 226.530539 
L 569.686981 226.530539 
L 569.686981 223.512575 
L 412.673994 223.512575 
z
" clip-path="url(#p62f8d7d970)" style="fill: #99cccd; stroke: #ffffff; stroke-width: 0.01; stroke-linejoin: miter"/>
   </g>
   <g id="patch_16">
    <path d="M 412.673994 222.758084 
L 551.570097 222.758084 
L 551.570097 219.74012 
L 412.673994 219.74012 
z
" clip-path="url(#p62f8d7d970)" style="fill: #99cccd; stroke: #ffffff; stroke-width: 0.01; stroke-linejoin: miter"/>
   </g>
   <g id="patch_17">
    <path d="M 412.673994 218.985629 
L 509.29737 218.985629 
L 509.29737 215.967665 
L 412.673994 215.967665 
z
" clip-path="url(#p62f8d7d970)" style="fill: #99cccd; stroke: #ffffff; stroke-width: 0.01; stroke-linejoin: miter"/>
   </g>
   <g id="patch_18">
    <path d="M 412.673994 215.213174 
L 485.141526 215.213174 
L 485.141526 212.19521 
L 412.673994 212.19521 
z
" clip-path="url(#p62f8d7d970)" style="fill: #99cccd; stroke: #ffffff; stroke-width: 0.01; stroke-linejoin: miter"/>
   </g>
   <g id="patch_19">
    <path d="M 412.673994 211.440719 
L 497.219448 211.440719 
L 497.219448 208.422754 
L 412.673994 208.422754 
z
" clip-path="url(#p62f8d7d970)" style="fill: #99cccd; stroke: #ffffff; stroke-width: 0.01; stroke-linejoin: miter"/>
   </g>
   <g id="patch_20">
    <path d="M 412.673994 207.668263 
L 533.453214 207.668263 
L 533.453214 204.650299 
L 412.673994 204.650299 
z
" clip-path="url(#p62f8d7d970)" style="fill: #99cccd; stroke: #ffffff; stroke-width: 0.01; stroke-linejoin: miter"/>
   </g>
   <g id="patch_21">
    <path d="M 412.673994 203.895808 
L 491.180487 203.895808 
L 491.180487 200.877844 
L 412.673994 200.877844 
z
" clip-path="url(#p62f8d7d970)" style="fill: #99cccd; stroke: #ffffff; stroke-width: 0.01; stroke-linejoin: miter"/>
   </g>
   <g id="patch_22">
    <path d="M 412.673994 200.123353 
L 491.180487 200.123353 
L 491.180487 197.105389 
L 412.673994 197.105389 
z
" clip-path="url(#p62f8d7d970)" style="fill: #99cccd; stroke: #ffffff; stroke-width: 0.01; stroke-linejoin: miter"/>
   </g>
   <g id="patch_23">
    <path d="M 412.673994 196.350898 
L 509.29737 196.350898 
L 509.29737 193.332934 
L 412.673994 193.332934 
z
" clip-path="url(#p62f8d7d970)" style="fill: #99cccd; stroke: #ffffff; stroke-width: 0.01; stroke-linejoin: miter"/>
   </g>
   <g id="patch_24">
    <path d="M 412.673994 192.578443 
L 527.414253 192.578443 
L 527.414253 189.560479 
L 412.673994 189.560479 
z
" clip-path="url(#p62f8d7d970)" style="fill: #99cccd; stroke: #ffffff; stroke-width: 0.01; stroke-linejoin: miter"/>
   </g>
   <g id="patch_25">
    <path d="M 412.673994 188.805988 
L 491.180487 188.805988 
L 491.180487 185.788024 
L 412.673994 185.788024 
z
" clip-path="url(#p62f8d7d970)" style="fill: #99cccd; stroke: #ffffff; stroke-width: 0.01; stroke-linejoin: miter"/>
   </g>
   <g id="patch_26">
    <path d="M 412.673994 185.033533 
L 497.219448 185.033533 
L 497.219448 182.015569 
L 412.673994 182.015569 
z
" clip-path="url(#p62f8d7d970)" style="fill: #99cccd; stroke: #ffffff; stroke-width: 0.01; stroke-linejoin: miter"/>
   </g>
   <g id="patch_27">
    <path d="M 412.673994 181.261078 
L 515.336331 181.261078 
L 515.336331 178.243114 
L 412.673994 178.243114 
z
" clip-path="url(#p62f8d7d970)" style="fill: #99cccd; stroke: #ffffff; stroke-width: 0.01; stroke-linejoin: miter"/>
   </g>
   <g id="patch_28">
    <path d="M 412.673994 177.488623 
L 497.219448 177.488623 
L 497.219448 174.470659 
L 412.673994 174.470659 
z
" clip-path="url(#p62f8d7d970)" style="fill: #99cccd; stroke: #ffffff; stroke-width: 0.01; stroke-linejoin: miter"/>
   </g>
   <g id="patch_29">
    <path d="M 412.673994 173.716168 
L 485.141526 173.716168 
L 485.141526 170.698204 
L 412.673994 170.698204 
z
" clip-path="url(#p62f8d7d970)" style="fill: #99cccd; stroke: #ffffff; stroke-width: 0.01; stroke-linejoin: miter"/>
   </g>
   <g id="patch_30">
    <path d="M 412.673994 169.943713 
L 521.375292 169.943713 
L 521.375292 166.925749 
L 412.673994 166.925749 
z
" clip-path="url(#p62f8d7d970)" style="fill: #99cccd; stroke: #ffffff; stroke-width: 0.01; stroke-linejoin: miter"/>
   </g>
   <g id="patch_31">
    <path d="M 412.673994 166.171257 
L 491.180487 166.171257 
L 491.180487 163.153293 
L 412.673994 163.153293 
z
" clip-path="url(#p62f8d7d970)" style="fill: #99cccd; stroke: #ffffff; stroke-width: 0.01; stroke-linejoin: miter"/>
   </g>
   <g id="patch_32">
    <path d="M 412.673994 162.398802 
L 479.102565 162.398802 
L 479.102565 159.380838 
L 412.673994 159.380838 
z
" clip-path="url(#p62f8d7d970)" style="fill: #99cccd; stroke: #ffffff; stroke-width: 0.01; stroke-linejoin: miter"/>
   </g>
   <g id="patch_33">
    <path d="M 412.673994 158.626347 
L 509.29737 158.626347 
L 509.29737 155.608383 
L 412.673994 155.608383 
z
" clip-path="url(#p62f8d7d970)" style="fill: #99cccd; stroke: #ffffff; stroke-width: 0.01; stroke-linejoin: miter"/>
   </g>
   <g id="patch_34">
    <path d="M 412.673994 154.853892 
L 467.024643 154.853892 
L 467.024643 151.835928 
L 412.673994 151.835928 
z
" clip-path="url(#p62f8d7d970)" style="fill: #99cccd; stroke: #ffffff; stroke-width: 0.01; stroke-linejoin: miter"/>
   </g>
   <g id="patch_35">
    <path d="M 412.673994 151.081437 
L 521.375292 151.081437 
L 521.375292 148.063473 
L 412.673994 148.063473 
z
" clip-path="url(#p62f8d7d970)" style="fill: #99cccd; stroke: #ffffff; stroke-width: 0.01; stroke-linejoin: miter"/>
   </g>
   <g id="patch_36">
    <path d="M 412.673994 147.308982 
L 485.141526 147.308982 
L 485.141526 144.291018 
L 412.673994 144.291018 
z
" clip-path="url(#p62f8d7d970)" style="fill: #99cccd; stroke: #ffffff; stroke-width: 0.01; stroke-linejoin: miter"/>
   </g>
   <g id="patch_37">
    <path d="M 412.673994 143.536527 
L 521.375292 143.536527 
L 521.375292 140.518563 
L 412.673994 140.518563 
z
" clip-path="url(#p62f8d7d970)" style="fill: #99cccd; stroke: #ffffff; stroke-width: 0.01; stroke-linejoin: miter"/>
   </g>
   <g id="patch_38">
    <path d="M 412.673994 139.764072 
L 467.024643 139.764072 
L 467.024643 136.746108 
L 412.673994 136.746108 
z
" clip-path="url(#p62f8d7d970)" style="fill: #99cccd; stroke: #ffffff; stroke-width: 0.01; stroke-linejoin: miter"/>
   </g>
   <g id="patch_39">
    <path d="M 412.673994 135.991617 
L 503.258409 135.991617 
L 503.258409 132.973653 
L 412.673994 132.973653 
z
" clip-path="url(#p62f8d7d970)" style="fill: #99cccd; stroke: #ffffff; stroke-width: 0.01; stroke-linejoin: miter"/>
   </g>
   <g id="patch_40">
    <path d="M 412.673994 132.219162 
L 485.141526 132.219162 
L 485.141526 129.201198 
L 412.673994 129.201198 
z
" clip-path="url(#p62f8d7d970)" style="fill: #99cccd; stroke: #ffffff; stroke-width: 0.01; stroke-linejoin: miter"/>
   </g>
   <g id="patch_41">
    <path d="M 412.673994 128.446707 
L 467.024643 128.446707 
L 467.024643 125.428743 
L 412.673994 125.428743 
z
" clip-path="url(#p62f8d7d970)" style="fill: #99cccd; stroke: #ffffff; stroke-width: 0.01; stroke-linejoin: miter"/>
   </g>
   <g id="patch_42">
    <path d="M 412.673994 124.674251 
L 509.29737 124.674251 
L 509.29737 121.656287 
L 412.673994 121.656287 
z
" clip-path="url(#p62f8d7d970)" style="fill: #99cccd; stroke: #ffffff; stroke-width: 0.01; stroke-linejoin: miter"/>
   </g>
   <g id="patch_43">
    <path d="M 412.673994 120.901796 
L 454.946721 120.901796 
L 454.946721 117.883832 
L 412.673994 117.883832 
z
" clip-path="url(#p62f8d7d970)" style="fill: #99cccd; stroke: #ffffff; stroke-width: 0.01; stroke-linejoin: miter"/>
   </g>
   <g id="patch_44">
    <path d="M 412.673994 117.129341 
L 448.90776 117.129341 
L 448.90776 114.111377 
L 412.673994 114.111377 
z
" clip-path="url(#p62f8d7d970)" style="fill: #99cccd; stroke: #ffffff; stroke-width: 0.01; stroke-linejoin: miter"/>
   </g>
   <g id="patch_45">
    <path d="M 412.673994 113.356886 
L 448.90776 113.356886 
L 448.90776 110.338922 
L 412.673994 110.338922 
z
" clip-path="url(#p62f8d7d970)" style="fill: #99cccd; stroke: #ffffff; stroke-width: 0.01; stroke-linejoin: miter"/>
   </g>
   <g id="patch_46">
    <path d="M 412.673994 109.584431 
L 479.102565 109.584431 
L 479.102565 106.566467 
L 412.673994 106.566467 
z
" clip-path="url(#p62f8d7d970)" style="fill: #99cccd; stroke: #ffffff; stroke-width: 0.01; stroke-linejoin: miter"/>
   </g>
   <g id="patch_47">
    <path d="M 412.673994 105.811976 
L 485.141526 105.811976 
L 485.141526 102.794012 
L 412.673994 102.794012 
z
" clip-path="url(#p62f8d7d970)" style="fill: #99cccd; stroke: #ffffff; stroke-width: 0.01; stroke-linejoin: miter"/>
   </g>
   <g id="patch_48">
    <path d="M 412.673994 102.039521 
L 424.751916 102.039521 
L 424.751916 99.021557 
L 412.673994 99.021557 
z
" clip-path="url(#p62f8d7d970)" style="fill: #99cccd; stroke: #ffffff; stroke-width: 0.01; stroke-linejoin: miter"/>
   </g>
   <g id="patch_49">
    <path d="M 412.673994 98.267066 
L 454.946721 98.267066 
L 454.946721 95.249102 
L 412.673994 95.249102 
z
" clip-path="url(#p62f8d7d970)" style="fill: #99cccd; stroke: #ffffff; stroke-width: 0.01; stroke-linejoin: miter"/>
   </g>
   <g id="patch_50">
    <path d="M 412.673994 94.494611 
L 442.868799 94.494611 
L 442.868799 91.476647 
L 412.673994 91.476647 
z
" clip-path="url(#p62f8d7d970)" style="fill: #99cccd; stroke: #ffffff; stroke-width: 0.01; stroke-linejoin: miter"/>
   </g>
   <g id="patch_51">
    <path d="M 412.673994 90.722156 
L 467.024643 90.722156 
L 467.024643 87.704192 
L 412.673994 87.704192 
z
" clip-path="url(#p62f8d7d970)" style="fill: #99cccd; stroke: #ffffff; stroke-width: 0.01; stroke-linejoin: miter"/>
   </g>
   <g id="patch_52">
    <path d="M 412.673994 86.949701 
L 485.141526 86.949701 
L 485.141526 83.931737 
L 412.673994 83.931737 
z
" clip-path="url(#p62f8d7d970)" style="fill: #99cccd; stroke: #ffffff; stroke-width: 0.01; stroke-linejoin: miter"/>
   </g>
   <g id="patch_53">
    <path d="M 412.673994 83.177246 
L 460.985682 83.177246 
L 460.985682 80.159281 
L 412.673994 80.159281 
z
" clip-path="url(#p62f8d7d970)" style="fill: #99cccd; stroke: #ffffff; stroke-width: 0.01; stroke-linejoin: miter"/>
   </g>
   <g id="patch_54">
    <path d="M 412.673994 79.40479 
L 491.180487 79.40479 
L 491.180487 76.386826 
L 412.673994 76.386826 
z
" clip-path="url(#p62f8d7d970)" style="fill: #99cccd; stroke: #ffffff; stroke-width: 0.01; stroke-linejoin: miter"/>
   </g>
   <g id="patch_55">
    <path d="M 412.673994 75.632335 
L 467.024643 75.632335 
L 467.024643 72.614371 
L 412.673994 72.614371 
z
" clip-path="url(#p62f8d7d970)" style="fill: #99cccd; stroke: #ffffff; stroke-width: 0.01; stroke-linejoin: miter"/>
   </g>
   <g id="patch_56">
    <path d="M 412.673994 71.85988 
L 467.024643 71.85988 
L 467.024643 68.841916 
L 412.673994 68.841916 
z
" clip-path="url(#p62f8d7d970)" style="fill: #99cccd; stroke: #ffffff; stroke-width: 0.01; stroke-linejoin: miter"/>
   </g>
   <g id="patch_57">
    <path d="M 412.673994 68.087425 
L 467.024643 68.087425 
L 467.024643 65.069461 
L 412.673994 65.069461 
z
" clip-path="url(#p62f8d7d970)" style="fill: #99cccd; stroke: #ffffff; stroke-width: 0.01; stroke-linejoin: miter"/>
   </g>
   <g id="patch_58">
    <path d="M 412.673994 64.31497 
L 442.868799 64.31497 
L 442.868799 61.297006 
L 412.673994 61.297006 
z
" clip-path="url(#p62f8d7d970)" style="fill: #99cccd; stroke: #ffffff; stroke-width: 0.01; stroke-linejoin: miter"/>
   </g>
   <g id="patch_59">
    <path d="M 412.673994 60.542515 
L 436.829838 60.542515 
L 436.829838 57.524551 
L 412.673994 57.524551 
z
" clip-path="url(#p62f8d7d970)" style="fill: #99cccd; stroke: #ffffff; stroke-width: 0.01; stroke-linejoin: miter"/>
   </g>
   <g id="patch_60">
    <path d="M 412.673994 56.77006 
L 448.90776 56.77006 
L 448.90776 53.752096 
L 412.673994 53.752096 
z
" clip-path="url(#p62f8d7d970)" style="fill: #99cccd; stroke: #ffffff; stroke-width: 0.01; stroke-linejoin: miter"/>
   </g>
   <g id="patch_61">
    <path d="M 412.673994 52.997605 
L 436.829838 52.997605 
L 436.829838 49.979641 
L 412.673994 49.979641 
z
" clip-path="url(#p62f8d7d970)" style="fill: #99cccd; stroke: #ffffff; stroke-width: 0.01; stroke-linejoin: miter"/>
   </g>
   <g id="patch_62">
    <path d="M 412.673994 49.22515 
L 424.751916 49.22515 
L 424.751916 46.207186 
L 412.673994 46.207186 
z
" clip-path="url(#p62f8d7d970)" style="fill: #99cccd; stroke: #ffffff; stroke-width: 0.01; stroke-linejoin: miter"/>
   </g>
   <g id="patch_63">
    <path d="M 412.673994 45.452695 
L 430.790877 45.452695 
L 430.790877 42.434731 
L 412.673994 42.434731 
z
" clip-path="url(#p62f8d7d970)" style="fill: #99cccd; stroke: #ffffff; stroke-width: 0.01; stroke-linejoin: miter"/>
   </g>
   <g id="patch_64">
    <path d="M 412.673994 41.68024 
L 424.751916 41.68024 
L 424.751916 38.662275 
L 412.673994 38.662275 
z
" clip-path="url(#p62f8d7d970)" style="fill: #99cccd; stroke: #ffffff; stroke-width: 0.01; stroke-linejoin: miter"/>
   </g>
   <g id="patch_65">
    <path d="M 0 0 
z
" clip-path="url(#p62f8d7d970)" style="fill: #99cccd; stroke: #ffffff; stroke-width: 0.01; stroke-linejoin: miter"/>
   </g>
   <g id="patch_66">
    <path d="M 0 0 
z
" clip-path="url(#p62f8d7d970)" style="fill: #99cccd; stroke: #ffffff; stroke-width: 0.01; stroke-linejoin: miter"/>
   </g>
   <g id="patch_67">
    <path d="M 412.673994 30.362874 
L 418.712955 30.362874 
L 418.712955 27.34491 
L 412.673994 27.34491 
z
" clip-path="url(#p62f8d7d970)" style="fill: #99cccd; stroke: #ffffff; stroke-width: 0.01; stroke-linejoin: miter"/>
   </g>
   <g id="patch_68">
    <path d="M 0 0 
z
" clip-path="url(#p62f8d7d970)" style="fill: #99cccd; stroke: #ffffff; stroke-width: 0.01; stroke-linejoin: miter"/>
   </g>
   <g id="patch_69">
    <path d="M 412.673994 22.817964 
L 430.790877 22.817964 
L 430.790877 19.8 
L 412.673994 19.8 
z
" clip-path="url(#p62f8d7d970)" style="fill: #99cccd; stroke: #ffffff; stroke-width: 0.01; stroke-linejoin: miter"/>
   </g>
   <g id="patch_70">
    <path d="M 412.673994 271.8 
L 400.596071 271.8 
L 400.596071 268.782036 
L 412.673994 268.782036 
z
" clip-path="url(#p62f8d7d970)" style="fill: #edc0e3; stroke: #ffffff; stroke-width: 0.01; stroke-linejoin: miter"/>
   </g>
   <g id="patch_71">
    <path d="M 412.673994 268.027545 
L 394.55711 268.027545 
L 394.55711 265.009581 
L 412.673994 265.009581 
z
" clip-path="url(#p62f8d7d970)" style="fill: #edc0e3; stroke: #ffffff; stroke-width: 0.01; stroke-linejoin: miter"/>
   </g>
   <g id="patch_72">
    <path d="M 0 0 
z
" clip-path="url(#p62f8d7d970)" style="fill: #edc0e3; stroke: #ffffff; stroke-width: 0.01; stroke-linejoin: miter"/>
   </g>
   <g id="patch_73">
    <path d="M 412.673994 260.482635 
L 394.55711 260.482635 
L 394.55711 257.464671 
L 412.673994 257.464671 
z
" clip-path="url(#p62f8d7d970)" style="fill: #edc0e3; stroke: #ffffff; stroke-width: 0.01; stroke-linejoin: miter"/>
   </g>
   <g id="patch_74">
    <path d="M 412.673994 256.71018 
L 310.011656 256.71018 
L 310.011656 253.692216 
L 412.673994 253.692216 
z
" clip-path="url(#p62f8d7d970)" style="fill: #edc0e3; stroke: #ffffff; stroke-width: 0.01; stroke-linejoin: miter"/>
   </g>
   <g id="patch_75">
    <path d="M 412.673994 252.937725 
L 237.544123 252.937725 
L 237.544123 249.91976 
L 412.673994 249.91976 
z
" clip-path="url(#p62f8d7d970)" style="fill: #edc0e3; stroke: #ffffff; stroke-width: 0.01; stroke-linejoin: miter"/>
   </g>
   <g id="patch_76">
    <path d="M 412.673994 249.165269 
L 201.310357 249.165269 
L 201.310357 246.147305 
L 412.673994 246.147305 
z
" clip-path="url(#p62f8d7d970)" style="fill: #edc0e3; stroke: #ffffff; stroke-width: 0.01; stroke-linejoin: miter"/>
   </g>
   <g id="patch_77">
    <path d="M 412.673994 245.392814 
L 104.686981 245.392814 
L 104.686981 242.37485 
L 412.673994 242.37485 
z
" clip-path="url(#p62f8d7d970)" style="fill: #edc0e3; stroke: #ffffff; stroke-width: 0.01; stroke-linejoin: miter"/>
   </g>
   <g id="patch_78">
    <path d="M 412.673994 241.620359 
L 80.531136 241.620359 
L 80.531136 238.602395 
L 412.673994 238.602395 
z
" clip-path="url(#p62f8d7d970)" style="fill: #edc0e3; stroke: #ffffff; stroke-width: 0.01; stroke-linejoin: miter"/>
   </g>
   <g id="patch_79">
    <path d="M 412.673994 237.847904 
L 134.881786 237.847904 
L 134.881786 234.82994 
L 412.673994 234.82994 
z
" clip-path="url(#p62f8d7d970)" style="fill: #edc0e3; stroke: #ffffff; stroke-width: 0.01; stroke-linejoin: miter"/>
   </g>
   <g id="patch_80">
    <path d="M 412.673994 234.075449 
L 195.271396 234.075449 
L 195.271396 231.057485 
L 412.673994 231.057485 
z
" clip-path="url(#p62f8d7d970)" style="fill: #edc0e3; stroke: #ffffff; stroke-width: 0.01; stroke-linejoin: miter"/>
   </g>
   <g id="patch_81">
    <path d="M 412.673994 230.302994 
L 177.154513 230.302994 
L 177.154513 227.28503 
L 412.673994 227.28503 
z
" clip-path="url(#p62f8d7d970)" style="fill: #edc0e3; stroke: #ffffff; stroke-width: 0.01; stroke-linejoin: miter"/>
   </g>
   <g id="patch_82">
    <path d="M 412.673994 226.530539 
L 152.998669 226.530539 
L 152.998669 223.512575 
L 412.673994 223.512575 
z
" clip-path="url(#p62f8d7d970)" style="fill: #edc0e3; stroke: #ffffff; stroke-width: 0.01; stroke-linejoin: miter"/>
   </g>
   <g id="patch_83">
    <path d="M 412.673994 222.758084 
L 104.686981 222.758084 
L 104.686981 219.74012 
L 412.673994 219.74012 
z
" clip-path="url(#p62f8d7d970)" style="fill: #edc0e3; stroke: #ffffff; stroke-width: 0.01; stroke-linejoin: miter"/>
   </g>
   <g id="patch_84">
    <path d="M 412.673994 218.985629 
L 243.583084 218.985629 
L 243.583084 215.967665 
L 412.673994 215.967665 
z
" clip-path="url(#p62f8d7d970)" style="fill: #edc0e3; stroke: #ffffff; stroke-width: 0.01; stroke-linejoin: miter"/>
   </g>
   <g id="patch_85">
    <path d="M 412.673994 215.213174 
L 213.388279 215.213174 
L 213.388279 212.19521 
L 412.673994 212.19521 
z
" clip-path="url(#p62f8d7d970)" style="fill: #edc0e3; stroke: #ffffff; stroke-width: 0.01; stroke-linejoin: miter"/>
   </g>
   <g id="patch_86">
    <path d="M 412.673994 211.440719 
L 267.738929 211.440719 
L 267.738929 208.422754 
L 412.673994 208.422754 
z
" clip-path="url(#p62f8d7d970)" style="fill: #edc0e3; stroke: #ffffff; stroke-width: 0.01; stroke-linejoin: miter"/>
   </g>
   <g id="patch_87">
    <path d="M 412.673994 207.668263 
L 152.998669 207.668263 
L 152.998669 204.650299 
L 412.673994 204.650299 
z
" clip-path="url(#p62f8d7d970)" style="fill: #edc0e3; stroke: #ffffff; stroke-width: 0.01; stroke-linejoin: miter"/>
   </g>
   <g id="patch_88">
    <path d="M 412.673994 203.895808 
L 201.310357 203.895808 
L 201.310357 200.877844 
L 412.673994 200.877844 
z
" clip-path="url(#p62f8d7d970)" style="fill: #edc0e3; stroke: #ffffff; stroke-width: 0.01; stroke-linejoin: miter"/>
   </g>
   <g id="patch_89">
    <path d="M 412.673994 200.123353 
L 219.42724 200.123353 
L 219.42724 197.105389 
L 412.673994 197.105389 
z
" clip-path="url(#p62f8d7d970)" style="fill: #edc0e3; stroke: #ffffff; stroke-width: 0.01; stroke-linejoin: miter"/>
   </g>
   <g id="patch_90">
    <path d="M 412.673994 196.350898 
L 219.42724 196.350898 
L 219.42724 193.332934 
L 412.673994 193.332934 
z
" clip-path="url(#p62f8d7d970)" style="fill: #edc0e3; stroke: #ffffff; stroke-width: 0.01; stroke-linejoin: miter"/>
   </g>
   <g id="patch_91">
    <path d="M 412.673994 192.578443 
L 237.544123 192.578443 
L 237.544123 189.560479 
L 412.673994 189.560479 
z
" clip-path="url(#p62f8d7d970)" style="fill: #edc0e3; stroke: #ffffff; stroke-width: 0.01; stroke-linejoin: miter"/>
   </g>
   <g id="patch_92">
    <path d="M 412.673994 188.805988 
L 201.310357 188.805988 
L 201.310357 185.788024 
L 412.673994 185.788024 
z
" clip-path="url(#p62f8d7d970)" style="fill: #edc0e3; stroke: #ffffff; stroke-width: 0.01; stroke-linejoin: miter"/>
   </g>
   <g id="patch_93">
    <path d="M 412.673994 185.033533 
L 189.232435 185.033533 
L 189.232435 182.015569 
L 412.673994 182.015569 
z
" clip-path="url(#p62f8d7d970)" style="fill: #edc0e3; stroke: #ffffff; stroke-width: 0.01; stroke-linejoin: miter"/>
   </g>
   <g id="patch_94">
    <path d="M 412.673994 181.261078 
L 207.349318 181.261078 
L 207.349318 178.243114 
L 412.673994 178.243114 
z
" clip-path="url(#p62f8d7d970)" style="fill: #edc0e3; stroke: #ffffff; stroke-width: 0.01; stroke-linejoin: miter"/>
   </g>
   <g id="patch_95">
    <path d="M 412.673994 177.488623 
L 140.920747 177.488623 
L 140.920747 174.470659 
L 412.673994 174.470659 
z
" clip-path="url(#p62f8d7d970)" style="fill: #edc0e3; stroke: #ffffff; stroke-width: 0.01; stroke-linejoin: miter"/>
   </g>
   <g id="patch_96">
    <path d="M 412.673994 173.716168 
L 195.271396 173.716168 
L 195.271396 170.698204 
L 412.673994 170.698204 
z
" clip-path="url(#p62f8d7d970)" style="fill: #edc0e3; stroke: #ffffff; stroke-width: 0.01; stroke-linejoin: miter"/>
   </g>
   <g id="patch_97">
    <path d="M 412.673994 169.943713 
L 146.959708 169.943713 
L 146.959708 166.925749 
L 412.673994 166.925749 
z
" clip-path="url(#p62f8d7d970)" style="fill: #edc0e3; stroke: #ffffff; stroke-width: 0.01; stroke-linejoin: miter"/>
   </g>
   <g id="patch_98">
    <path d="M 412.673994 166.171257 
L 159.03763 166.171257 
L 159.03763 163.153293 
L 412.673994 163.153293 
z
" clip-path="url(#p62f8d7d970)" style="fill: #edc0e3; stroke: #ffffff; stroke-width: 0.01; stroke-linejoin: miter"/>
   </g>
   <g id="patch_99">
    <path d="M 412.673994 162.398802 
L 183.193474 162.398802 
L 183.193474 159.380838 
L 412.673994 159.380838 
z
" clip-path="url(#p62f8d7d970)" style="fill: #edc0e3; stroke: #ffffff; stroke-width: 0.01; stroke-linejoin: miter"/>
   </g>
   <g id="patch_100">
    <path d="M 412.673994 158.626347 
L 183.193474 158.626347 
L 183.193474 155.608383 
L 412.673994 155.608383 
z
" clip-path="url(#p62f8d7d970)" style="fill: #edc0e3; stroke: #ffffff; stroke-width: 0.01; stroke-linejoin: miter"/>
   </g>
   <g id="patch_101">
    <path d="M 412.673994 154.853892 
L 110.725942 154.853892 
L 110.725942 151.835928 
L 412.673994 151.835928 
z
" clip-path="url(#p62f8d7d970)" style="fill: #edc0e3; stroke: #ffffff; stroke-width: 0.01; stroke-linejoin: miter"/>
   </g>
   <g id="patch_102">
    <path d="M 412.673994 151.081437 
L 243.583084 151.081437 
L 243.583084 148.063473 
L 412.673994 148.063473 
z
" clip-path="url(#p62f8d7d970)" style="fill: #edc0e3; stroke: #ffffff; stroke-width: 0.01; stroke-linejoin: miter"/>
   </g>
   <g id="patch_103">
    <path d="M 412.673994 147.308982 
L 146.959708 147.308982 
L 146.959708 144.291018 
L 412.673994 144.291018 
z
" clip-path="url(#p62f8d7d970)" style="fill: #edc0e3; stroke: #ffffff; stroke-width: 0.01; stroke-linejoin: miter"/>
   </g>
   <g id="patch_104">
    <path d="M 412.673994 143.536527 
L 165.076591 143.536527 
L 165.076591 140.518563 
L 412.673994 140.518563 
z
" clip-path="url(#p62f8d7d970)" style="fill: #edc0e3; stroke: #ffffff; stroke-width: 0.01; stroke-linejoin: miter"/>
   </g>
   <g id="patch_105">
    <path d="M 412.673994 139.764072 
L 159.03763 139.764072 
L 159.03763 136.746108 
L 412.673994 136.746108 
z
" clip-path="url(#p62f8d7d970)" style="fill: #edc0e3; stroke: #ffffff; stroke-width: 0.01; stroke-linejoin: miter"/>
   </g>
   <g id="patch_106">
    <path d="M 412.673994 135.991617 
L 177.154513 135.991617 
L 177.154513 132.973653 
L 412.673994 132.973653 
z
" clip-path="url(#p62f8d7d970)" style="fill: #edc0e3; stroke: #ffffff; stroke-width: 0.01; stroke-linejoin: miter"/>
   </g>
   <g id="patch_107">
    <path d="M 412.673994 132.219162 
L 279.816851 132.219162 
L 279.816851 129.201198 
L 412.673994 129.201198 
z
" clip-path="url(#p62f8d7d970)" style="fill: #edc0e3; stroke: #ffffff; stroke-width: 0.01; stroke-linejoin: miter"/>
   </g>
   <g id="patch_108">
    <path d="M 412.673994 128.446707 
L 213.388279 128.446707 
L 213.388279 125.428743 
L 412.673994 125.428743 
z
" clip-path="url(#p62f8d7d970)" style="fill: #edc0e3; stroke: #ffffff; stroke-width: 0.01; stroke-linejoin: miter"/>
   </g>
   <g id="patch_109">
    <path d="M 412.673994 124.674251 
L 219.42724 124.674251 
L 219.42724 121.656287 
L 412.673994 121.656287 
z
" clip-path="url(#p62f8d7d970)" style="fill: #edc0e3; stroke: #ffffff; stroke-width: 0.01; stroke-linejoin: miter"/>
   </g>
   <g id="patch_110">
    <path d="M 412.673994 120.901796 
L 159.03763 120.901796 
L 159.03763 117.883832 
L 412.673994 117.883832 
z
" clip-path="url(#p62f8d7d970)" style="fill: #edc0e3; stroke: #ffffff; stroke-width: 0.01; stroke-linejoin: miter"/>
   </g>
   <g id="patch_111">
    <path d="M 412.673994 117.129341 
L 255.661006 117.129341 
L 255.661006 114.111377 
L 412.673994 114.111377 
z
" clip-path="url(#p62f8d7d970)" style="fill: #edc0e3; stroke: #ffffff; stroke-width: 0.01; stroke-linejoin: miter"/>
   </g>
   <g id="patch_112">
    <path d="M 412.673994 113.356886 
L 297.933734 113.356886 
L 297.933734 110.338922 
L 412.673994 110.338922 
z
" clip-path="url(#p62f8d7d970)" style="fill: #edc0e3; stroke: #ffffff; stroke-width: 0.01; stroke-linejoin: miter"/>
   </g>
   <g id="patch_113">
    <path d="M 412.673994 109.584431 
L 249.622045 109.584431 
L 249.622045 106.566467 
L 412.673994 106.566467 
z
" clip-path="url(#p62f8d7d970)" style="fill: #edc0e3; stroke: #ffffff; stroke-width: 0.01; stroke-linejoin: miter"/>
   </g>
   <g id="patch_114">
    <path d="M 412.673994 105.811976 
L 231.505162 105.811976 
L 231.505162 102.794012 
L 412.673994 102.794012 
z
" clip-path="url(#p62f8d7d970)" style="fill: #edc0e3; stroke: #ffffff; stroke-width: 0.01; stroke-linejoin: miter"/>
   </g>
   <g id="patch_115">
    <path d="M 412.673994 102.039521 
L 231.505162 102.039521 
L 231.505162 99.021557 
L 412.673994 99.021557 
z
" clip-path="url(#p62f8d7d970)" style="fill: #edc0e3; stroke: #ffffff; stroke-width: 0.01; stroke-linejoin: miter"/>
   </g>
   <g id="patch_116">
    <path d="M 412.673994 98.267066 
L 261.699968 98.267066 
L 261.699968 95.249102 
L 412.673994 95.249102 
z
" clip-path="url(#p62f8d7d970)" style="fill: #edc0e3; stroke: #ffffff; stroke-width: 0.01; stroke-linejoin: miter"/>
   </g>
   <g id="patch_117">
    <path d="M 412.673994 94.494611 
L 207.349318 94.494611 
L 207.349318 91.476647 
L 412.673994 91.476647 
z
" clip-path="url(#p62f8d7d970)" style="fill: #edc0e3; stroke: #ffffff; stroke-width: 0.01; stroke-linejoin: miter"/>
   </g>
   <g id="patch_118">
    <path d="M 412.673994 90.722156 
L 310.011656 90.722156 
L 310.011656 87.704192 
L 412.673994 87.704192 
z
" clip-path="url(#p62f8d7d970)" style="fill: #edc0e3; stroke: #ffffff; stroke-width: 0.01; stroke-linejoin: miter"/>
   </g>
   <g id="patch_119">
    <path d="M 412.673994 86.949701 
L 279.816851 86.949701 
L 279.816851 83.931737 
L 412.673994 83.931737 
z
" clip-path="url(#p62f8d7d970)" style="fill: #edc0e3; stroke: #ffffff; stroke-width: 0.01; stroke-linejoin: miter"/>
   </g>
   <g id="patch_120">
    <path d="M 412.673994 83.177246 
L 310.011656 83.177246 
L 310.011656 80.159281 
L 412.673994 80.159281 
z
" clip-path="url(#p62f8d7d970)" style="fill: #edc0e3; stroke: #ffffff; stroke-width: 0.01; stroke-linejoin: miter"/>
   </g>
   <g id="patch_121">
    <path d="M 412.673994 79.40479 
L 346.245422 79.40479 
L 346.245422 76.386826 
L 412.673994 76.386826 
z
" clip-path="url(#p62f8d7d970)" style="fill: #edc0e3; stroke: #ffffff; stroke-width: 0.01; stroke-linejoin: miter"/>
   </g>
   <g id="patch_122">
    <path d="M 412.673994 75.632335 
L 328.128539 75.632335 
L 328.128539 72.614371 
L 412.673994 72.614371 
z
" clip-path="url(#p62f8d7d970)" style="fill: #edc0e3; stroke: #ffffff; stroke-width: 0.01; stroke-linejoin: miter"/>
   </g>
   <g id="patch_123">
    <path d="M 412.673994 71.85988 
L 310.011656 71.85988 
L 310.011656 68.841916 
L 412.673994 68.841916 
z
" clip-path="url(#p62f8d7d970)" style="fill: #edc0e3; stroke: #ffffff; stroke-width: 0.01; stroke-linejoin: miter"/>
   </g>
   <g id="patch_124">
    <path d="M 412.673994 68.087425 
L 328.128539 68.087425 
L 328.128539 65.069461 
L 412.673994 65.069461 
z
" clip-path="url(#p62f8d7d970)" style="fill: #edc0e3; stroke: #ffffff; stroke-width: 0.01; stroke-linejoin: miter"/>
   </g>
   <g id="patch_125">
    <path d="M 412.673994 64.31497 
L 364.362305 64.31497 
L 364.362305 61.297006 
L 412.673994 61.297006 
z
" clip-path="url(#p62f8d7d970)" style="fill: #edc0e3; stroke: #ffffff; stroke-width: 0.01; stroke-linejoin: miter"/>
   </g>
   <g id="patch_126">
    <path d="M 412.673994 60.542515 
L 370.401266 60.542515 
L 370.401266 57.524551 
L 412.673994 57.524551 
z
" clip-path="url(#p62f8d7d970)" style="fill: #edc0e3; stroke: #ffffff; stroke-width: 0.01; stroke-linejoin: miter"/>
   </g>
   <g id="patch_127">
    <path d="M 412.673994 56.77006 
L 370.401266 56.77006 
L 370.401266 53.752096 
L 412.673994 53.752096 
z
" clip-path="url(#p62f8d7d970)" style="fill: #edc0e3; stroke: #ffffff; stroke-width: 0.01; stroke-linejoin: miter"/>
   </g>
   <g id="patch_128">
    <path d="M 412.673994 52.997605 
L 346.245422 52.997605 
L 346.245422 49.979641 
L 412.673994 49.979641 
z
" clip-path="url(#p62f8d7d970)" style="fill: #edc0e3; stroke: #ffffff; stroke-width: 0.01; stroke-linejoin: miter"/>
   </g>
   <g id="patch_129">
    <path d="M 412.673994 49.22515 
L 376.440227 49.22515 
L 376.440227 46.207186 
L 412.673994 46.207186 
z
" clip-path="url(#p62f8d7d970)" style="fill: #edc0e3; stroke: #ffffff; stroke-width: 0.01; stroke-linejoin: miter"/>
   </g>
   <g id="patch_130">
    <path d="M 412.673994 45.452695 
L 370.401266 45.452695 
L 370.401266 42.434731 
L 412.673994 42.434731 
z
" clip-path="url(#p62f8d7d970)" style="fill: #edc0e3; stroke: #ffffff; stroke-width: 0.01; stroke-linejoin: miter"/>
   </g>
   <g id="patch_131">
    <path d="M 412.673994 41.68024 
L 388.518149 41.68024 
L 388.518149 38.662275 
L 412.673994 38.662275 
z
" clip-path="url(#p62f8d7d970)" style="fill: #edc0e3; stroke: #ffffff; stroke-width: 0.01; stroke-linejoin: miter"/>
   </g>
   <g id="patch_132">
    <path d="M 412.673994 37.907784 
L 382.479188 37.907784 
L 382.479188 34.88982 
L 412.673994 34.88982 
z
" clip-path="url(#p62f8d7d970)" style="fill: #edc0e3; stroke: #ffffff; stroke-width: 0.01; stroke-linejoin: miter"/>
   </g>
   <g id="patch_133">
    <path d="M 412.673994 34.135329 
L 400.596071 34.135329 
L 400.596071 31.117365 
L 412.673994 31.117365 
z
" clip-path="url(#p62f8d7d970)" style="fill: #edc0e3; stroke: #ffffff; stroke-width: 0.01; stroke-linejoin: miter"/>
   </g>
   <g id="patch_134">
    <path d="M 412.673994 30.362874 
L 400.596071 30.362874 
L 400.596071 27.34491 
L 412.673994 27.34491 
z
" clip-path="url(#p62f8d7d970)" style="fill: #edc0e3; stroke: #ffffff; stroke-width: 0.01; stroke-linejoin: miter"/>
   </g>
   <g id="patch_135">
    <path d="M 412.673994 26.590419 
L 400.596071 26.590419 
L 400.596071 23.572455 
L 412.673994 23.572455 
z
" clip-path="url(#p62f8d7d970)" style="fill: #edc0e3; stroke: #ffffff; stroke-width: 0.01; stroke-linejoin: miter"/>
   </g>
   <g id="patch_136">
    <path d="M 412.673994 22.817964 
L 406.635032 22.817964 
L 406.635032 19.8 
L 412.673994 19.8 
z
" clip-path="url(#p62f8d7d970)" style="fill: #edc0e3; stroke: #ffffff; stroke-width: 0.01; stroke-linejoin: miter"/>
   </g>
   <g id="patch_137">
    <path d="M 55.1675 284.4 
L 55.1675 7.2 
" style="fill: none; stroke: #cccccc; stroke-width: 1.25; stroke-linejoin: miter; stroke-linecap: square"/>
   </g>
   <g id="patch_138">
    <path d="M 613.1675 284.4 
L 613.1675 7.2 
" style="fill: none; stroke: #cccccc; stroke-width: 1.25; stroke-linejoin: miter; stroke-linecap: square"/>
   </g>
   <g id="patch_139">
    <path d="M 55.1675 284.4 
L 613.1675 284.4 
" style="fill: none; stroke: #cccccc; stroke-width: 1.25; stroke-linejoin: miter; stroke-linecap: square"/>
   </g>
   <g id="patch_140">
    <path d="M 55.1675 7.2 
L 613.1675 7.2 
" style="fill: none; stroke: #cccccc; stroke-width: 1.25; stroke-linejoin: miter; stroke-linecap: square"/>
   </g>
   <g id="legend_1">
    <g id="patch_141">
     <path d="M 62.8675 47.119687 
L 134.743906 47.119687 
Q 136.943906 47.119687 136.943906 44.919687 
L 136.943906 14.9 
Q 136.943906 12.7 134.743906 12.7 
L 62.8675 12.7 
Q 60.6675 12.7 60.6675 14.9 
L 60.6675 44.919687 
Q 60.6675 47.119687 62.8675 47.119687 
z
" style="fill: #ffffff; opacity: 0.8; stroke: #cccccc; stroke-linejoin: miter"/>
    </g>
    <g id="patch_142">
     <path d="M 65.0675 24.973594 
L 87.0675 24.973594 
L 87.0675 17.273594 
L 65.0675 17.273594 
z
" style="fill: #99cccd; stroke: #ffffff; stroke-width: 0.01; stroke-linejoin: miter"/>
    </g>
    <g id="text_14">
     <!-- Male -->
     <g style="fill: #262626" transform="translate(95.8675 24.973594) scale(0.11 -0.11)">
      <defs>
       <path id="ArialMT-4d" d="M 475 0 
L 475 4581 
L 1388 4581 
L 2472 1338 
Q 2622 884 2691 659 
Q 2769 909 2934 1394 
L 4031 4581 
L 4847 4581 
L 4847 0 
L 4263 0 
L 4263 3834 
L 2931 0 
L 2384 0 
L 1059 3900 
L 1059 0 
L 475 0 
z
" transform="scale(0.015625)"/>
       <path id="ArialMT-6c" d="M 409 0 
L 409 4581 
L 972 4581 
L 972 0 
L 409 0 
z
" transform="scale(0.015625)"/>
      </defs>
      <use xlink:href="#ArialMT-4d"/>
      <use xlink:href="#ArialMT-61" x="83.300781"/>
      <use xlink:href="#ArialMT-6c" x="138.916016"/>
      <use xlink:href="#ArialMT-65" x="161.132812"/>
     </g>
    </g>
    <g id="patch_143">
     <path d="M 65.0675 40.533437 
L 87.0675 40.533437 
L 87.0675 32.833437 
L 65.0675 32.833437 
z
" style="fill: #edc0e3; stroke: #ffffff; stroke-width: 0.01; stroke-linejoin: miter"/>
    </g>
    <g id="text_15">
     <!-- Female -->
     <g style="fill: #262626" transform="translate(95.8675 40.533437) scale(0.11 -0.11)">
      <defs>
       <path id="ArialMT-46" d="M 525 0 
L 525 4581 
L 3616 4581 
L 3616 4041 
L 1131 4041 
L 1131 2622 
L 3281 2622 
L 3281 2081 
L 1131 2081 
L 1131 0 
L 525 0 
z
" transform="scale(0.015625)"/>
      </defs>
      <use xlink:href="#ArialMT-46"/>
      <use xlink:href="#ArialMT-65" x="61.083984"/>
      <use xlink:href="#ArialMT-6d" x="116.699219"/>
      <use xlink:href="#ArialMT-61" x="200"/>
      <use xlink:href="#ArialMT-6c" x="255.615234"/>
      <use xlink:href="#ArialMT-65" x="277.832031"/>
     </g>
    </g>
   </g>
  </g>
 </g>
 <defs>
  <clipPath id="p62f8d7d970">
   <rect x="55.1675" y="7.2" width="558" height="277.2"/>
  </clipPath>
 </defs>
</svg>
