<?xml version="1.0" encoding="utf-8" standalone="no"?>
<!DOCTYPE svg PUBLIC "-//W3C//DTD SVG 1.1//EN"
  "http://www.w3.org/Graphics/SVG/1.1/DTD/svg11.dtd">
<svg xmlns:xlink="http://www.w3.org/1999/xlink" width="632.745545pt" height="340.541208pt" viewBox="0 0 632.745545 340.541208" xmlns="http://www.w3.org/2000/svg" version="1.1">
 <metadata>
  <rdf:RDF xmlns:dc="http://purl.org/dc/elements/1.1/" xmlns:cc="http://creativecommons.org/ns#" xmlns:rdf="http://www.w3.org/1999/02/22-rdf-syntax-ns#">
   <cc:Work>
    <dc:type rdf:resource="http://purl.org/dc/dcmitype/StillImage"/>
    <dc:date>2023-11-02T13:11:11.418174</dc:date>
    <dc:format>image/svg+xml</dc:format>
    <dc:creator>
     <cc:Agent>
      <dc:title>Matplotlib v3.7.1, https://matplotlib.org/</dc:title>
     </cc:Agent>
    </dc:creator>
   </cc:Work>
  </rdf:RDF>
 </metadata>
 <defs>
  <style type="text/css">*{stroke-linejoin: round; stroke-linecap: butt}</style>
 </defs>
 <g id="figure_1">
  <g id="patch_1">
   <path d="M 0 340.541208 
L 632.745545 340.541208 
L 632.745545 0 
L 0 0 
z
" style="fill: #ffffff"/>
  </g>
  <g id="axes_1">
   <g id="patch_2">
    <path d="M 64.073437 288.747146 
L 622.073437 288.747146 
L 622.073437 11.547146 
L 64.073437 11.547146 
z
" style="fill: #ffffff"/>
   </g>
   <g id="matplotlib.axis_1">
    <g id="xtick_1">
     <g id="line2d_1">
      <path d="M 87.408319 288.747146 
L 87.408319 11.547146 
" clip-path="url(#pf1a69d5cc5)" style="fill: none; stroke: #cccccc; stroke-linecap: round"/>
     </g>
     <g id="text_1">
      <!-- 0 -->
      <g style="fill: #262626" transform="translate(82.959569 309.699646) scale(0.16 -0.16)">
       <defs>
        <path id="ArialMT-30" d="M 266 2259 
Q 266 3072 433 3567 
Q 600 4063 929 4331 
Q 1259 4600 1759 4600 
Q 2128 4600 2406 4451 
Q 2684 4303 2865 4023 
Q 3047 3744 3150 3342 
Q 3253 2941 3253 2259 
Q 3253 1453 3087 958 
Q 2922 463 2592 192 
Q 2263 -78 1759 -78 
Q 1097 -78 719 397 
Q 266 969 266 2259 
z
M 844 2259 
Q 844 1131 1108 757 
Q 1372 384 1759 384 
Q 2147 384 2411 759 
Q 2675 1134 2675 2259 
Q 2675 3391 2411 3762 
Q 2147 4134 1753 4134 
Q 1366 4134 1134 3806 
Q 844 3388 844 2259 
z
" transform="scale(0.015625)"/>
       </defs>
       <use xlink:href="#ArialMT-30"/>
      </g>
     </g>
    </g>
    <g id="xtick_2">
     <g id="line2d_2">
      <path d="M 174.873482 288.747146 
L 174.873482 11.547146 
" clip-path="url(#pf1a69d5cc5)" style="fill: none; stroke: #cccccc; stroke-linecap: round"/>
     </g>
     <g id="text_2">
      <!-- 20 -->
      <g style="fill: #262626" transform="translate(165.975982 309.699646) scale(0.16 -0.16)">
       <defs>
        <path id="ArialMT-32" d="M 3222 541 
L 3222 0 
L 194 0 
Q 188 203 259 391 
Q 375 700 629 1000 
Q 884 1300 1366 1694 
Q 2113 2306 2375 2664 
Q 2638 3022 2638 3341 
Q 2638 3675 2398 3904 
Q 2159 4134 1775 4134 
Q 1369 4134 1125 3890 
Q 881 3647 878 3216 
L 300 3275 
Q 359 3922 746 4261 
Q 1134 4600 1788 4600 
Q 2447 4600 2831 4234 
Q 3216 3869 3216 3328 
Q 3216 3053 3103 2787 
Q 2991 2522 2730 2228 
Q 2469 1934 1863 1422 
Q 1356 997 1212 845 
Q 1069 694 975 541 
L 3222 541 
z
" transform="scale(0.015625)"/>
       </defs>
       <use xlink:href="#ArialMT-32"/>
       <use xlink:href="#ArialMT-30" x="55.615234"/>
      </g>
     </g>
    </g>
    <g id="xtick_3">
     <g id="line2d_3">
      <path d="M 262.338645 288.747146 
L 262.338645 11.547146 
" clip-path="url(#pf1a69d5cc5)" style="fill: none; stroke: #cccccc; stroke-linecap: round"/>
     </g>
     <g id="text_3">
      <!-- 40 -->
      <g style="fill: #262626" transform="translate(253.441145 309.699646) scale(0.16 -0.16)">
       <defs>
        <path id="ArialMT-34" d="M 2069 0 
L 2069 1097 
L 81 1097 
L 81 1613 
L 2172 4581 
L 2631 4581 
L 2631 1613 
L 3250 1613 
L 3250 1097 
L 2631 1097 
L 2631 0 
L 2069 0 
z
M 2069 1613 
L 2069 3678 
L 634 1613 
L 2069 1613 
z
" transform="scale(0.015625)"/>
       </defs>
       <use xlink:href="#ArialMT-34"/>
       <use xlink:href="#ArialMT-30" x="55.615234"/>
      </g>
     </g>
    </g>
    <g id="xtick_4">
     <g id="line2d_4">
      <path d="M 349.803807 288.747146 
L 349.803807 11.547146 
" clip-path="url(#pf1a69d5cc5)" style="fill: none; stroke: #cccccc; stroke-linecap: round"/>
     </g>
     <g id="text_4">
      <!-- 60 -->
      <g style="fill: #262626" transform="translate(340.906307 309.699646) scale(0.16 -0.16)">
       <defs>
        <path id="ArialMT-36" d="M 3184 3459 
L 2625 3416 
Q 2550 3747 2413 3897 
Q 2184 4138 1850 4138 
Q 1581 4138 1378 3988 
Q 1113 3794 959 3422 
Q 806 3050 800 2363 
Q 1003 2672 1297 2822 
Q 1591 2972 1913 2972 
Q 2475 2972 2870 2558 
Q 3266 2144 3266 1488 
Q 3266 1056 3080 686 
Q 2894 316 2569 119 
Q 2244 -78 1831 -78 
Q 1128 -78 684 439 
Q 241 956 241 2144 
Q 241 3472 731 4075 
Q 1159 4600 1884 4600 
Q 2425 4600 2770 4297 
Q 3116 3994 3184 3459 
z
M 888 1484 
Q 888 1194 1011 928 
Q 1134 663 1356 523 
Q 1578 384 1822 384 
Q 2178 384 2434 671 
Q 2691 959 2691 1453 
Q 2691 1928 2437 2201 
Q 2184 2475 1800 2475 
Q 1419 2475 1153 2201 
Q 888 1928 888 1484 
z
" transform="scale(0.015625)"/>
       </defs>
       <use xlink:href="#ArialMT-36"/>
       <use xlink:href="#ArialMT-30" x="55.615234"/>
      </g>
     </g>
    </g>
    <g id="xtick_5">
     <g id="line2d_5">
      <path d="M 437.26897 288.747146 
L 437.26897 11.547146 
" clip-path="url(#pf1a69d5cc5)" style="fill: none; stroke: #cccccc; stroke-linecap: round"/>
     </g>
     <g id="text_5">
      <!-- 80 -->
      <g style="fill: #262626" transform="translate(428.37147 309.699646) scale(0.16 -0.16)">
       <defs>
        <path id="ArialMT-38" d="M 1131 2484 
Q 781 2613 612 2850 
Q 444 3088 444 3419 
Q 444 3919 803 4259 
Q 1163 4600 1759 4600 
Q 2359 4600 2725 4251 
Q 3091 3903 3091 3403 
Q 3091 3084 2923 2848 
Q 2756 2613 2416 2484 
Q 2838 2347 3058 2040 
Q 3278 1734 3278 1309 
Q 3278 722 2862 322 
Q 2447 -78 1769 -78 
Q 1091 -78 675 323 
Q 259 725 259 1325 
Q 259 1772 486 2073 
Q 713 2375 1131 2484 
z
M 1019 3438 
Q 1019 3113 1228 2906 
Q 1438 2700 1772 2700 
Q 2097 2700 2305 2904 
Q 2513 3109 2513 3406 
Q 2513 3716 2298 3927 
Q 2084 4138 1766 4138 
Q 1444 4138 1231 3931 
Q 1019 3725 1019 3438 
z
M 838 1322 
Q 838 1081 952 856 
Q 1066 631 1291 507 
Q 1516 384 1775 384 
Q 2178 384 2440 643 
Q 2703 903 2703 1303 
Q 2703 1709 2433 1975 
Q 2163 2241 1756 2241 
Q 1359 2241 1098 1978 
Q 838 1716 838 1322 
z
" transform="scale(0.015625)"/>
       </defs>
       <use xlink:href="#ArialMT-38"/>
       <use xlink:href="#ArialMT-30" x="55.615234"/>
      </g>
     </g>
    </g>
    <g id="xtick_6">
     <g id="line2d_6">
      <path d="M 524.734133 288.747146 
L 524.734133 11.547146 
" clip-path="url(#pf1a69d5cc5)" style="fill: none; stroke: #cccccc; stroke-linecap: round"/>
     </g>
     <g id="text_6">
      <!-- 100 -->
      <g style="fill: #262626" transform="translate(511.387883 309.699646) scale(0.16 -0.16)">
       <defs>
        <path id="ArialMT-31" d="M 2384 0 
L 1822 0 
L 1822 3584 
Q 1619 3391 1289 3197 
Q 959 3003 697 2906 
L 697 3450 
Q 1169 3672 1522 3987 
Q 1875 4303 2022 4600 
L 2384 4600 
L 2384 0 
z
" transform="scale(0.015625)"/>
       </defs>
       <use xlink:href="#ArialMT-31"/>
       <use xlink:href="#ArialMT-30" x="55.615234"/>
       <use xlink:href="#ArialMT-30" x="111.230469"/>
      </g>
     </g>
    </g>
    <g id="xtick_7">
     <g id="line2d_7">
      <path d="M 612.199295 288.747146 
L 612.199295 11.547146 
" clip-path="url(#pf1a69d5cc5)" style="fill: none; stroke: #cccccc; stroke-linecap: round"/>
     </g>
     <g id="text_7">
      <!-- 120 -->
      <g style="fill: #262626" transform="translate(598.853045 309.699646) scale(0.16 -0.16)">
       <use xlink:href="#ArialMT-31"/>
       <use xlink:href="#ArialMT-32" x="55.615234"/>
       <use xlink:href="#ArialMT-30" x="111.230469"/>
      </g>
     </g>
    </g>
    <g id="text_8">
     <!-- Per sample reads number, mln -->
     <g style="fill: #262626" transform="translate(220.525781 329.763708) scale(0.18 -0.18)">
      <defs>
       <path id="ArialMT-50" d="M 494 0 
L 494 4581 
L 2222 4581 
Q 2678 4581 2919 4538 
Q 3256 4481 3484 4323 
Q 3713 4166 3852 3881 
Q 3991 3597 3991 3256 
Q 3991 2672 3619 2267 
Q 3247 1863 2275 1863 
L 1100 1863 
L 1100 0 
L 494 0 
z
M 1100 2403 
L 2284 2403 
Q 2872 2403 3119 2622 
Q 3366 2841 3366 3238 
Q 3366 3525 3220 3729 
Q 3075 3934 2838 4000 
Q 2684 4041 2272 4041 
L 1100 4041 
L 1100 2403 
z
" transform="scale(0.015625)"/>
       <path id="ArialMT-65" d="M 2694 1069 
L 3275 997 
Q 3138 488 2766 206 
Q 2394 -75 1816 -75 
Q 1088 -75 661 373 
Q 234 822 234 1631 
Q 234 2469 665 2931 
Q 1097 3394 1784 3394 
Q 2450 3394 2872 2941 
Q 3294 2488 3294 1666 
Q 3294 1616 3291 1516 
L 816 1516 
Q 847 969 1125 678 
Q 1403 388 1819 388 
Q 2128 388 2347 550 
Q 2566 713 2694 1069 
z
M 847 1978 
L 2700 1978 
Q 2663 2397 2488 2606 
Q 2219 2931 1791 2931 
Q 1403 2931 1139 2672 
Q 875 2413 847 1978 
z
" transform="scale(0.015625)"/>
       <path id="ArialMT-72" d="M 416 0 
L 416 3319 
L 922 3319 
L 922 2816 
Q 1116 3169 1280 3281 
Q 1444 3394 1641 3394 
Q 1925 3394 2219 3213 
L 2025 2691 
Q 1819 2813 1613 2813 
Q 1428 2813 1281 2702 
Q 1134 2591 1072 2394 
Q 978 2094 978 1738 
L 978 0 
L 416 0 
z
" transform="scale(0.015625)"/>
       <path id="ArialMT-20" transform="scale(0.015625)"/>
       <path id="ArialMT-73" d="M 197 991 
L 753 1078 
Q 800 744 1014 566 
Q 1228 388 1613 388 
Q 2000 388 2187 545 
Q 2375 703 2375 916 
Q 2375 1106 2209 1216 
Q 2094 1291 1634 1406 
Q 1016 1563 777 1677 
Q 538 1791 414 1992 
Q 291 2194 291 2438 
Q 291 2659 392 2848 
Q 494 3038 669 3163 
Q 800 3259 1026 3326 
Q 1253 3394 1513 3394 
Q 1903 3394 2198 3281 
Q 2494 3169 2634 2976 
Q 2775 2784 2828 2463 
L 2278 2388 
Q 2241 2644 2061 2787 
Q 1881 2931 1553 2931 
Q 1166 2931 1000 2803 
Q 834 2675 834 2503 
Q 834 2394 903 2306 
Q 972 2216 1119 2156 
Q 1203 2125 1616 2013 
Q 2213 1853 2448 1751 
Q 2684 1650 2818 1456 
Q 2953 1263 2953 975 
Q 2953 694 2789 445 
Q 2625 197 2315 61 
Q 2006 -75 1616 -75 
Q 969 -75 630 194 
Q 291 463 197 991 
z
" transform="scale(0.015625)"/>
       <path id="ArialMT-61" d="M 2588 409 
Q 2275 144 1986 34 
Q 1697 -75 1366 -75 
Q 819 -75 525 192 
Q 231 459 231 875 
Q 231 1119 342 1320 
Q 453 1522 633 1644 
Q 813 1766 1038 1828 
Q 1203 1872 1538 1913 
Q 2219 1994 2541 2106 
Q 2544 2222 2544 2253 
Q 2544 2597 2384 2738 
Q 2169 2928 1744 2928 
Q 1347 2928 1158 2789 
Q 969 2650 878 2297 
L 328 2372 
Q 403 2725 575 2942 
Q 747 3159 1072 3276 
Q 1397 3394 1825 3394 
Q 2250 3394 2515 3294 
Q 2781 3194 2906 3042 
Q 3031 2891 3081 2659 
Q 3109 2516 3109 2141 
L 3109 1391 
Q 3109 606 3145 398 
Q 3181 191 3288 0 
L 2700 0 
Q 2613 175 2588 409 
z
M 2541 1666 
Q 2234 1541 1622 1453 
Q 1275 1403 1131 1340 
Q 988 1278 909 1158 
Q 831 1038 831 891 
Q 831 666 1001 516 
Q 1172 366 1500 366 
Q 1825 366 2078 508 
Q 2331 650 2450 897 
Q 2541 1088 2541 1459 
L 2541 1666 
z
" transform="scale(0.015625)"/>
       <path id="ArialMT-6d" d="M 422 0 
L 422 3319 
L 925 3319 
L 925 2853 
Q 1081 3097 1340 3245 
Q 1600 3394 1931 3394 
Q 2300 3394 2536 3241 
Q 2772 3088 2869 2813 
Q 3263 3394 3894 3394 
Q 4388 3394 4653 3120 
Q 4919 2847 4919 2278 
L 4919 0 
L 4359 0 
L 4359 2091 
Q 4359 2428 4304 2576 
Q 4250 2725 4106 2815 
Q 3963 2906 3769 2906 
Q 3419 2906 3187 2673 
Q 2956 2441 2956 1928 
L 2956 0 
L 2394 0 
L 2394 2156 
Q 2394 2531 2256 2718 
Q 2119 2906 1806 2906 
Q 1569 2906 1367 2781 
Q 1166 2656 1075 2415 
Q 984 2175 984 1722 
L 984 0 
L 422 0 
z
" transform="scale(0.015625)"/>
       <path id="ArialMT-70" d="M 422 -1272 
L 422 3319 
L 934 3319 
L 934 2888 
Q 1116 3141 1344 3267 
Q 1572 3394 1897 3394 
Q 2322 3394 2647 3175 
Q 2972 2956 3137 2557 
Q 3303 2159 3303 1684 
Q 3303 1175 3120 767 
Q 2938 359 2589 142 
Q 2241 -75 1856 -75 
Q 1575 -75 1351 44 
Q 1128 163 984 344 
L 984 -1272 
L 422 -1272 
z
M 931 1641 
Q 931 1000 1190 694 
Q 1450 388 1819 388 
Q 2194 388 2461 705 
Q 2728 1022 2728 1688 
Q 2728 2322 2467 2637 
Q 2206 2953 1844 2953 
Q 1484 2953 1207 2617 
Q 931 2281 931 1641 
z
" transform="scale(0.015625)"/>
       <path id="ArialMT-6c" d="M 409 0 
L 409 4581 
L 972 4581 
L 972 0 
L 409 0 
z
" transform="scale(0.015625)"/>
       <path id="ArialMT-64" d="M 2575 0 
L 2575 419 
Q 2259 -75 1647 -75 
Q 1250 -75 917 144 
Q 584 363 401 755 
Q 219 1147 219 1656 
Q 219 2153 384 2558 
Q 550 2963 881 3178 
Q 1213 3394 1622 3394 
Q 1922 3394 2156 3267 
Q 2391 3141 2538 2938 
L 2538 4581 
L 3097 4581 
L 3097 0 
L 2575 0 
z
M 797 1656 
Q 797 1019 1065 703 
Q 1334 388 1700 388 
Q 2069 388 2326 689 
Q 2584 991 2584 1609 
Q 2584 2291 2321 2609 
Q 2059 2928 1675 2928 
Q 1300 2928 1048 2622 
Q 797 2316 797 1656 
z
" transform="scale(0.015625)"/>
       <path id="ArialMT-6e" d="M 422 0 
L 422 3319 
L 928 3319 
L 928 2847 
Q 1294 3394 1984 3394 
Q 2284 3394 2536 3286 
Q 2788 3178 2913 3003 
Q 3038 2828 3088 2588 
Q 3119 2431 3119 2041 
L 3119 0 
L 2556 0 
L 2556 2019 
Q 2556 2363 2490 2533 
Q 2425 2703 2258 2804 
Q 2091 2906 1866 2906 
Q 1506 2906 1245 2678 
Q 984 2450 984 1813 
L 984 0 
L 422 0 
z
" transform="scale(0.015625)"/>
       <path id="ArialMT-75" d="M 2597 0 
L 2597 488 
Q 2209 -75 1544 -75 
Q 1250 -75 995 37 
Q 741 150 617 320 
Q 494 491 444 738 
Q 409 903 409 1263 
L 409 3319 
L 972 3319 
L 972 1478 
Q 972 1038 1006 884 
Q 1059 663 1231 536 
Q 1403 409 1656 409 
Q 1909 409 2131 539 
Q 2353 669 2445 892 
Q 2538 1116 2538 1541 
L 2538 3319 
L 3100 3319 
L 3100 0 
L 2597 0 
z
" transform="scale(0.015625)"/>
       <path id="ArialMT-62" d="M 941 0 
L 419 0 
L 419 4581 
L 981 4581 
L 981 2947 
Q 1338 3394 1891 3394 
Q 2197 3394 2470 3270 
Q 2744 3147 2920 2923 
Q 3097 2700 3197 2384 
Q 3297 2069 3297 1709 
Q 3297 856 2875 390 
Q 2453 -75 1863 -75 
Q 1275 -75 941 416 
L 941 0 
z
M 934 1684 
Q 934 1088 1097 822 
Q 1363 388 1816 388 
Q 2184 388 2453 708 
Q 2722 1028 2722 1663 
Q 2722 2313 2464 2622 
Q 2206 2931 1841 2931 
Q 1472 2931 1203 2611 
Q 934 2291 934 1684 
z
" transform="scale(0.015625)"/>
       <path id="ArialMT-2c" d="M 569 0 
L 569 641 
L 1209 641 
L 1209 0 
Q 1209 -353 1084 -570 
Q 959 -788 688 -906 
L 531 -666 
Q 709 -588 793 -436 
Q 878 -284 888 0 
L 569 0 
z
" transform="scale(0.015625)"/>
      </defs>
      <use xlink:href="#ArialMT-50"/>
      <use xlink:href="#ArialMT-65" x="66.699219"/>
      <use xlink:href="#ArialMT-72" x="122.314453"/>
      <use xlink:href="#ArialMT-20" x="155.615234"/>
      <use xlink:href="#ArialMT-73" x="183.398438"/>
      <use xlink:href="#ArialMT-61" x="233.398438"/>
      <use xlink:href="#ArialMT-6d" x="289.013672"/>
      <use xlink:href="#ArialMT-70" x="372.314453"/>
      <use xlink:href="#ArialMT-6c" x="427.929688"/>
      <use xlink:href="#ArialMT-65" x="450.146484"/>
      <use xlink:href="#ArialMT-20" x="505.761719"/>
      <use xlink:href="#ArialMT-72" x="533.544922"/>
      <use xlink:href="#ArialMT-65" x="566.845703"/>
      <use xlink:href="#ArialMT-61" x="622.460938"/>
      <use xlink:href="#ArialMT-64" x="678.076172"/>
      <use xlink:href="#ArialMT-73" x="733.691406"/>
      <use xlink:href="#ArialMT-20" x="783.691406"/>
      <use xlink:href="#ArialMT-6e" x="811.474609"/>
      <use xlink:href="#ArialMT-75" x="867.089844"/>
      <use xlink:href="#ArialMT-6d" x="922.705078"/>
      <use xlink:href="#ArialMT-62" x="1006.005859"/>
      <use xlink:href="#ArialMT-65" x="1061.621094"/>
      <use xlink:href="#ArialMT-72" x="1117.236328"/>
      <use xlink:href="#ArialMT-2c" x="1145.037109"/>
      <use xlink:href="#ArialMT-20" x="1172.820312"/>
      <use xlink:href="#ArialMT-6d" x="1200.603516"/>
      <use xlink:href="#ArialMT-6c" x="1283.904297"/>
      <use xlink:href="#ArialMT-6e" x="1306.121094"/>
     </g>
    </g>
   </g>
   <g id="matplotlib.axis_2">
    <g id="ytick_1">
     <g id="line2d_8">
      <path d="M 64.073437 288.747146 
L 622.073437 288.747146 
" clip-path="url(#pf1a69d5cc5)" style="fill: none; stroke: #cccccc; stroke-linecap: round"/>
     </g>
     <g id="text_9">
      <!-- 0 -->
      <g style="fill: #262626" transform="translate(45.675937 294.473396) scale(0.16 -0.16)">
       <use xlink:href="#ArialMT-30"/>
      </g>
     </g>
    </g>
    <g id="ytick_2">
     <g id="line2d_9">
      <path d="M 64.073437 249.34416 
L 622.073437 249.34416 
" clip-path="url(#pf1a69d5cc5)" style="fill: none; stroke: #cccccc; stroke-linecap: round"/>
     </g>
     <g id="text_10">
      <!-- 20 -->
      <g style="fill: #262626" transform="translate(36.778437 255.07041) scale(0.16 -0.16)">
       <use xlink:href="#ArialMT-32"/>
       <use xlink:href="#ArialMT-30" x="55.615234"/>
      </g>
     </g>
    </g>
    <g id="ytick_3">
     <g id="line2d_10">
      <path d="M 64.073437 209.941175 
L 622.073437 209.941175 
" clip-path="url(#pf1a69d5cc5)" style="fill: none; stroke: #cccccc; stroke-linecap: round"/>
     </g>
     <g id="text_11">
      <!-- 40 -->
      <g style="fill: #262626" transform="translate(36.778437 215.667425) scale(0.16 -0.16)">
       <use xlink:href="#ArialMT-34"/>
       <use xlink:href="#ArialMT-30" x="55.615234"/>
      </g>
     </g>
    </g>
    <g id="ytick_4">
     <g id="line2d_11">
      <path d="M 64.073437 170.53819 
L 622.073437 170.53819 
" clip-path="url(#pf1a69d5cc5)" style="fill: none; stroke: #cccccc; stroke-linecap: round"/>
     </g>
     <g id="text_12">
      <!-- 60 -->
      <g style="fill: #262626" transform="translate(36.778437 176.26444) scale(0.16 -0.16)">
       <use xlink:href="#ArialMT-36"/>
       <use xlink:href="#ArialMT-30" x="55.615234"/>
      </g>
     </g>
    </g>
    <g id="ytick_5">
     <g id="line2d_12">
      <path d="M 64.073437 131.135205 
L 622.073437 131.135205 
" clip-path="url(#pf1a69d5cc5)" style="fill: none; stroke: #cccccc; stroke-linecap: round"/>
     </g>
     <g id="text_13">
      <!-- 80 -->
      <g style="fill: #262626" transform="translate(36.778437 136.861455) scale(0.16 -0.16)">
       <use xlink:href="#ArialMT-38"/>
       <use xlink:href="#ArialMT-30" x="55.615234"/>
      </g>
     </g>
    </g>
    <g id="ytick_6">
     <g id="line2d_13">
      <path d="M 64.073437 91.73222 
L 622.073437 91.73222 
" clip-path="url(#pf1a69d5cc5)" style="fill: none; stroke: #cccccc; stroke-linecap: round"/>
     </g>
     <g id="text_14">
      <!-- 100 -->
      <g style="fill: #262626" transform="translate(27.880937 97.45847) scale(0.16 -0.16)">
       <use xlink:href="#ArialMT-31"/>
       <use xlink:href="#ArialMT-30" x="55.615234"/>
       <use xlink:href="#ArialMT-30" x="111.230469"/>
      </g>
     </g>
    </g>
    <g id="ytick_7">
     <g id="line2d_14">
      <path d="M 64.073437 52.329235 
L 622.073437 52.329235 
" clip-path="url(#pf1a69d5cc5)" style="fill: none; stroke: #cccccc; stroke-linecap: round"/>
     </g>
     <g id="text_15">
      <!-- 120 -->
      <g style="fill: #262626" transform="translate(27.880937 58.055485) scale(0.16 -0.16)">
       <use xlink:href="#ArialMT-31"/>
       <use xlink:href="#ArialMT-32" x="55.615234"/>
       <use xlink:href="#ArialMT-30" x="111.230469"/>
      </g>
     </g>
    </g>
    <g id="ytick_8">
     <g id="line2d_15">
      <path d="M 64.073437 12.92625 
L 622.073437 12.92625 
" clip-path="url(#pf1a69d5cc5)" style="fill: none; stroke: #cccccc; stroke-linecap: round"/>
     </g>
     <g id="text_16">
      <!-- 140 -->
      <g style="fill: #262626" transform="translate(27.880937 18.6525) scale(0.16 -0.16)">
       <use xlink:href="#ArialMT-31"/>
       <use xlink:href="#ArialMT-34" x="55.615234"/>
       <use xlink:href="#ArialMT-30" x="111.230469"/>
      </g>
     </g>
    </g>
    <g id="text_17">
     <!-- number of samples -->
     <g style="fill: #262626" transform="translate(20.303437 226.676677) rotate(-90) scale(0.18 -0.18)">
      <defs>
       <path id="ArialMT-6f" d="M 213 1659 
Q 213 2581 725 3025 
Q 1153 3394 1769 3394 
Q 2453 3394 2887 2945 
Q 3322 2497 3322 1706 
Q 3322 1066 3130 698 
Q 2938 331 2570 128 
Q 2203 -75 1769 -75 
Q 1072 -75 642 372 
Q 213 819 213 1659 
z
M 791 1659 
Q 791 1022 1069 705 
Q 1347 388 1769 388 
Q 2188 388 2466 706 
Q 2744 1025 2744 1678 
Q 2744 2294 2464 2611 
Q 2184 2928 1769 2928 
Q 1347 2928 1069 2612 
Q 791 2297 791 1659 
z
" transform="scale(0.015625)"/>
       <path id="ArialMT-66" d="M 556 0 
L 556 2881 
L 59 2881 
L 59 3319 
L 556 3319 
L 556 3672 
Q 556 4006 616 4169 
Q 697 4388 901 4523 
Q 1106 4659 1475 4659 
Q 1713 4659 2000 4603 
L 1916 4113 
Q 1741 4144 1584 4144 
Q 1328 4144 1222 4034 
Q 1116 3925 1116 3625 
L 1116 3319 
L 1763 3319 
L 1763 2881 
L 1116 2881 
L 1116 0 
L 556 0 
z
" transform="scale(0.015625)"/>
      </defs>
      <use xlink:href="#ArialMT-6e"/>
      <use xlink:href="#ArialMT-75" x="55.615234"/>
      <use xlink:href="#ArialMT-6d" x="111.230469"/>
      <use xlink:href="#ArialMT-62" x="194.53125"/>
      <use xlink:href="#ArialMT-65" x="250.146484"/>
      <use xlink:href="#ArialMT-72" x="305.761719"/>
      <use xlink:href="#ArialMT-20" x="339.0625"/>
      <use xlink:href="#ArialMT-6f" x="366.845703"/>
      <use xlink:href="#ArialMT-66" x="422.460938"/>
      <use xlink:href="#ArialMT-20" x="450.244141"/>
      <use xlink:href="#ArialMT-73" x="478.027344"/>
      <use xlink:href="#ArialMT-61" x="528.027344"/>
      <use xlink:href="#ArialMT-6d" x="583.642578"/>
      <use xlink:href="#ArialMT-70" x="666.943359"/>
      <use xlink:href="#ArialMT-6c" x="722.558594"/>
      <use xlink:href="#ArialMT-65" x="744.775391"/>
      <use xlink:href="#ArialMT-73" x="800.390625"/>
     </g>
    </g>
   </g>
   <g id="patch_3">
    <path d="M 89.437074 288.747146 
L 99.582528 288.747146 
L 99.582528 282.836698 
L 89.437074 282.836698 
z
" clip-path="url(#pf1a69d5cc5)" style="fill: #99cccd; opacity: 0.5; stroke: #ffffff; stroke-linejoin: miter"/>
   </g>
   <g id="patch_4">
    <path d="M 99.582528 288.747146 
L 109.727983 288.747146 
L 109.727983 288.747146 
L 99.582528 288.747146 
z
" clip-path="url(#pf1a69d5cc5)" style="fill: #99cccd; opacity: 0.5; stroke: #ffffff; stroke-linejoin: miter"/>
   </g>
   <g id="patch_5">
    <path d="M 109.727983 288.747146 
L 119.873438 288.747146 
L 119.873438 288.747146 
L 109.727983 288.747146 
z
" clip-path="url(#pf1a69d5cc5)" style="fill: #99cccd; opacity: 0.5; stroke: #ffffff; stroke-linejoin: miter"/>
   </g>
   <g id="patch_6">
    <path d="M 119.873437 288.747146 
L 130.018892 288.747146 
L 130.018892 288.747146 
L 119.873437 288.747146 
z
" clip-path="url(#pf1a69d5cc5)" style="fill: #99cccd; opacity: 0.5; stroke: #ffffff; stroke-linejoin: miter"/>
   </g>
   <g id="patch_7">
    <path d="M 130.018892 288.747146 
L 140.164347 288.747146 
L 140.164347 288.747146 
L 130.018892 288.747146 
z
" clip-path="url(#pf1a69d5cc5)" style="fill: #99cccd; opacity: 0.5; stroke: #ffffff; stroke-linejoin: miter"/>
   </g>
   <g id="patch_8">
    <path d="M 140.164347 288.747146 
L 150.309801 288.747146 
L 150.309801 288.747146 
L 140.164347 288.747146 
z
" clip-path="url(#pf1a69d5cc5)" style="fill: #99cccd; opacity: 0.5; stroke: #ffffff; stroke-linejoin: miter"/>
   </g>
   <g id="patch_9">
    <path d="M 150.309801 288.747146 
L 160.455256 288.747146 
L 160.455256 288.747146 
L 150.309801 288.747146 
z
" clip-path="url(#pf1a69d5cc5)" style="fill: #99cccd; opacity: 0.5; stroke: #ffffff; stroke-linejoin: miter"/>
   </g>
   <g id="patch_10">
    <path d="M 160.455256 288.747146 
L 170.60071 288.747146 
L 170.60071 288.747146 
L 160.455256 288.747146 
z
" clip-path="url(#pf1a69d5cc5)" style="fill: #99cccd; opacity: 0.5; stroke: #ffffff; stroke-linejoin: miter"/>
   </g>
   <g id="patch_11">
    <path d="M 170.60071 288.747146 
L 180.746165 288.747146 
L 180.746165 265.105354 
L 170.60071 265.105354 
z
" clip-path="url(#pf1a69d5cc5)" style="fill: #99cccd; opacity: 0.5; stroke: #ffffff; stroke-linejoin: miter"/>
   </g>
   <g id="patch_12">
    <path d="M 180.746165 288.747146 
L 190.891619 288.747146 
L 190.891619 249.34416 
L 180.746165 249.34416 
z
" clip-path="url(#pf1a69d5cc5)" style="fill: #99cccd; opacity: 0.5; stroke: #ffffff; stroke-linejoin: miter"/>
   </g>
   <g id="patch_13">
    <path d="M 190.891619 288.747146 
L 201.037074 288.747146 
L 201.037074 247.374011 
L 190.891619 247.374011 
z
" clip-path="url(#pf1a69d5cc5)" style="fill: #99cccd; opacity: 0.5; stroke: #ffffff; stroke-linejoin: miter"/>
   </g>
   <g id="patch_14">
    <path d="M 201.037074 288.747146 
L 211.182528 288.747146 
L 211.182528 231.612817 
L 201.037074 231.612817 
z
" clip-path="url(#pf1a69d5cc5)" style="fill: #99cccd; opacity: 0.5; stroke: #ffffff; stroke-linejoin: miter"/>
   </g>
   <g id="patch_15">
    <path d="M 211.182528 288.747146 
L 221.327983 288.747146 
L 221.327983 223.73222 
L 211.182528 223.73222 
z
" clip-path="url(#pf1a69d5cc5)" style="fill: #99cccd; opacity: 0.5; stroke: #ffffff; stroke-linejoin: miter"/>
   </g>
   <g id="patch_16">
    <path d="M 221.327983 288.747146 
L 231.473438 288.747146 
L 231.473438 209.941175 
L 221.327983 209.941175 
z
" clip-path="url(#pf1a69d5cc5)" style="fill: #99cccd; opacity: 0.5; stroke: #ffffff; stroke-linejoin: miter"/>
   </g>
   <g id="patch_17">
    <path d="M 231.473438 288.747146 
L 241.618892 288.747146 
L 241.618892 186.299384 
L 231.473438 186.299384 
z
" clip-path="url(#pf1a69d5cc5)" style="fill: #99cccd; opacity: 0.5; stroke: #ffffff; stroke-linejoin: miter"/>
   </g>
   <g id="patch_18">
    <path d="M 241.618892 288.747146 
L 251.764347 288.747146 
L 251.764347 180.388937 
L 241.618892 180.388937 
z
" clip-path="url(#pf1a69d5cc5)" style="fill: #99cccd; opacity: 0.5; stroke: #ffffff; stroke-linejoin: miter"/>
   </g>
   <g id="patch_19">
    <path d="M 251.764347 288.747146 
L 261.909801 288.747146 
L 261.909801 144.92625 
L 251.764347 144.92625 
z
" clip-path="url(#pf1a69d5cc5)" style="fill: #99cccd; opacity: 0.5; stroke: #ffffff; stroke-linejoin: miter"/>
   </g>
   <g id="patch_20">
    <path d="M 261.909801 288.747146 
L 272.055256 288.747146 
L 272.055256 135.075504 
L 261.909801 135.075504 
z
" clip-path="url(#pf1a69d5cc5)" style="fill: #99cccd; opacity: 0.5; stroke: #ffffff; stroke-linejoin: miter"/>
   </g>
   <g id="patch_21">
    <path d="M 272.055256 288.747146 
L 282.20071 288.747146 
L 282.20071 93.702369 
L 272.055256 93.702369 
z
" clip-path="url(#pf1a69d5cc5)" style="fill: #99cccd; opacity: 0.5; stroke: #ffffff; stroke-linejoin: miter"/>
   </g>
   <g id="patch_22">
    <path d="M 282.20071 288.747146 
L 292.346165 288.747146 
L 292.346165 52.329235 
L 282.20071 52.329235 
z
" clip-path="url(#pf1a69d5cc5)" style="fill: #99cccd; opacity: 0.5; stroke: #ffffff; stroke-linejoin: miter"/>
   </g>
   <g id="patch_23">
    <path d="M 292.346165 288.747146 
L 302.491619 288.747146 
L 302.491619 72.030728 
L 292.346165 72.030728 
z
" clip-path="url(#pf1a69d5cc5)" style="fill: #99cccd; opacity: 0.5; stroke: #ffffff; stroke-linejoin: miter"/>
   </g>
   <g id="patch_24">
    <path d="M 302.491619 288.747146 
L 312.637074 288.747146 
L 312.637074 48.388937 
L 302.491619 48.388937 
z
" clip-path="url(#pf1a69d5cc5)" style="fill: #99cccd; opacity: 0.5; stroke: #ffffff; stroke-linejoin: miter"/>
   </g>
   <g id="patch_25">
    <path d="M 312.637074 288.747146 
L 322.782528 288.747146 
L 322.782528 24.747146 
L 312.637074 24.747146 
z
" clip-path="url(#pf1a69d5cc5)" style="fill: #99cccd; opacity: 0.5; stroke: #ffffff; stroke-linejoin: miter"/>
   </g>
   <g id="patch_26">
    <path d="M 322.782528 288.747146 
L 332.927983 288.747146 
L 332.927983 56.269534 
L 322.782528 56.269534 
z
" clip-path="url(#pf1a69d5cc5)" style="fill: #99cccd; opacity: 0.5; stroke: #ffffff; stroke-linejoin: miter"/>
   </g>
   <g id="patch_27">
    <path d="M 332.927983 288.747146 
L 343.073437 288.747146 
L 343.073437 87.791922 
L 332.927983 87.791922 
z
" clip-path="url(#pf1a69d5cc5)" style="fill: #99cccd; opacity: 0.5; stroke: #ffffff; stroke-linejoin: miter"/>
   </g>
   <g id="patch_28">
    <path d="M 343.073438 288.747146 
L 353.218892 288.747146 
L 353.218892 109.463563 
L 343.073438 109.463563 
z
" clip-path="url(#pf1a69d5cc5)" style="fill: #99cccd; opacity: 0.5; stroke: #ffffff; stroke-linejoin: miter"/>
   </g>
   <g id="patch_29">
    <path d="M 353.218892 288.747146 
L 363.364347 288.747146 
L 363.364347 154.776996 
L 353.218892 154.776996 
z
" clip-path="url(#pf1a69d5cc5)" style="fill: #99cccd; opacity: 0.5; stroke: #ffffff; stroke-linejoin: miter"/>
   </g>
   <g id="patch_30">
    <path d="M 363.364347 288.747146 
L 373.509801 288.747146 
L 373.509801 158.717295 
L 363.364347 158.717295 
z
" clip-path="url(#pf1a69d5cc5)" style="fill: #99cccd; opacity: 0.5; stroke: #ffffff; stroke-linejoin: miter"/>
   </g>
   <g id="patch_31">
    <path d="M 373.509801 288.747146 
L 383.655256 288.747146 
L 383.655256 172.50834 
L 373.509801 172.50834 
z
" clip-path="url(#pf1a69d5cc5)" style="fill: #99cccd; opacity: 0.5; stroke: #ffffff; stroke-linejoin: miter"/>
   </g>
   <g id="patch_32">
    <path d="M 383.655256 288.747146 
L 393.80071 288.747146 
L 393.80071 172.50834 
L 383.655256 172.50834 
z
" clip-path="url(#pf1a69d5cc5)" style="fill: #99cccd; opacity: 0.5; stroke: #ffffff; stroke-linejoin: miter"/>
   </g>
   <g id="patch_33">
    <path d="M 393.80071 288.747146 
L 403.946165 288.747146 
L 403.946165 198.12028 
L 393.80071 198.12028 
z
" clip-path="url(#pf1a69d5cc5)" style="fill: #99cccd; opacity: 0.5; stroke: #ffffff; stroke-linejoin: miter"/>
   </g>
   <g id="patch_34">
    <path d="M 403.946165 288.747146 
L 414.091619 288.747146 
L 414.091619 221.762071 
L 403.946165 221.762071 
z
" clip-path="url(#pf1a69d5cc5)" style="fill: #99cccd; opacity: 0.5; stroke: #ffffff; stroke-linejoin: miter"/>
   </g>
   <g id="patch_35">
    <path d="M 414.091619 288.747146 
L 424.237074 288.747146 
L 424.237074 231.612817 
L 414.091619 231.612817 
z
" clip-path="url(#pf1a69d5cc5)" style="fill: #99cccd; opacity: 0.5; stroke: #ffffff; stroke-linejoin: miter"/>
   </g>
   <g id="patch_36">
    <path d="M 424.237074 288.747146 
L 434.382528 288.747146 
L 434.382528 253.284459 
L 424.237074 253.284459 
z
" clip-path="url(#pf1a69d5cc5)" style="fill: #99cccd; opacity: 0.5; stroke: #ffffff; stroke-linejoin: miter"/>
   </g>
   <g id="patch_37">
    <path d="M 434.382528 288.747146 
L 444.527983 288.747146 
L 444.527983 245.403862 
L 434.382528 245.403862 
z
" clip-path="url(#pf1a69d5cc5)" style="fill: #99cccd; opacity: 0.5; stroke: #ffffff; stroke-linejoin: miter"/>
   </g>
   <g id="patch_38">
    <path d="M 444.527983 288.747146 
L 454.673437 288.747146 
L 454.673437 265.105354 
L 444.527983 265.105354 
z
" clip-path="url(#pf1a69d5cc5)" style="fill: #99cccd; opacity: 0.5; stroke: #ffffff; stroke-linejoin: miter"/>
   </g>
   <g id="patch_39">
    <path d="M 454.673437 288.747146 
L 464.818892 288.747146 
L 464.818892 253.284459 
L 454.673437 253.284459 
z
" clip-path="url(#pf1a69d5cc5)" style="fill: #99cccd; opacity: 0.5; stroke: #ffffff; stroke-linejoin: miter"/>
   </g>
   <g id="patch_40">
    <path d="M 464.818892 288.747146 
L 474.964347 288.747146 
L 474.964347 253.284459 
L 464.818892 253.284459 
z
" clip-path="url(#pf1a69d5cc5)" style="fill: #99cccd; opacity: 0.5; stroke: #ffffff; stroke-linejoin: miter"/>
   </g>
   <g id="patch_41">
    <path d="M 474.964347 288.747146 
L 485.109801 288.747146 
L 485.109801 261.165056 
L 474.964347 261.165056 
z
" clip-path="url(#pf1a69d5cc5)" style="fill: #99cccd; opacity: 0.5; stroke: #ffffff; stroke-linejoin: miter"/>
   </g>
   <g id="patch_42">
    <path d="M 485.109801 288.747146 
L 495.255256 288.747146 
L 495.255256 265.105354 
L 485.109801 265.105354 
z
" clip-path="url(#pf1a69d5cc5)" style="fill: #99cccd; opacity: 0.5; stroke: #ffffff; stroke-linejoin: miter"/>
   </g>
   <g id="patch_43">
    <path d="M 495.255256 288.747146 
L 505.40071 288.747146 
L 505.40071 269.045653 
L 495.255256 269.045653 
z
" clip-path="url(#pf1a69d5cc5)" style="fill: #99cccd; opacity: 0.5; stroke: #ffffff; stroke-linejoin: miter"/>
   </g>
   <g id="patch_44">
    <path d="M 505.40071 288.747146 
L 515.546165 288.747146 
L 515.546165 267.075504 
L 505.40071 267.075504 
z
" clip-path="url(#pf1a69d5cc5)" style="fill: #99cccd; opacity: 0.5; stroke: #ffffff; stroke-linejoin: miter"/>
   </g>
   <g id="patch_45">
    <path d="M 515.546165 288.747146 
L 525.691619 288.747146 
L 525.691619 278.896399 
L 515.546165 278.896399 
z
" clip-path="url(#pf1a69d5cc5)" style="fill: #99cccd; opacity: 0.5; stroke: #ffffff; stroke-linejoin: miter"/>
   </g>
   <g id="patch_46">
    <path d="M 525.691619 288.747146 
L 535.837074 288.747146 
L 535.837074 272.985951 
L 525.691619 272.985951 
z
" clip-path="url(#pf1a69d5cc5)" style="fill: #99cccd; opacity: 0.5; stroke: #ffffff; stroke-linejoin: miter"/>
   </g>
   <g id="patch_47">
    <path d="M 535.837074 288.747146 
L 545.982528 288.747146 
L 545.982528 265.105354 
L 535.837074 265.105354 
z
" clip-path="url(#pf1a69d5cc5)" style="fill: #99cccd; opacity: 0.5; stroke: #ffffff; stroke-linejoin: miter"/>
   </g>
   <g id="patch_48">
    <path d="M 545.982528 288.747146 
L 556.127983 288.747146 
L 556.127983 263.135205 
L 545.982528 263.135205 
z
" clip-path="url(#pf1a69d5cc5)" style="fill: #99cccd; opacity: 0.5; stroke: #ffffff; stroke-linejoin: miter"/>
   </g>
   <g id="patch_49">
    <path d="M 556.127983 288.747146 
L 566.273438 288.747146 
L 566.273438 265.105354 
L 556.127983 265.105354 
z
" clip-path="url(#pf1a69d5cc5)" style="fill: #99cccd; opacity: 0.5; stroke: #ffffff; stroke-linejoin: miter"/>
   </g>
   <g id="patch_50">
    <path d="M 566.273438 288.747146 
L 576.418892 288.747146 
L 576.418892 213.881474 
L 566.273438 213.881474 
z
" clip-path="url(#pf1a69d5cc5)" style="fill: #99cccd; opacity: 0.5; stroke: #ffffff; stroke-linejoin: miter"/>
   </g>
   <g id="patch_51">
    <path d="M 576.418892 288.747146 
L 586.564347 288.747146 
L 586.564347 274.956101 
L 576.418892 274.956101 
z
" clip-path="url(#pf1a69d5cc5)" style="fill: #99cccd; opacity: 0.5; stroke: #ffffff; stroke-linejoin: miter"/>
   </g>
   <g id="patch_52">
    <path d="M 586.564347 288.747146 
L 596.709801 288.747146 
L 596.709801 278.896399 
L 586.564347 278.896399 
z
" clip-path="url(#pf1a69d5cc5)" style="fill: #99cccd; opacity: 0.5; stroke: #ffffff; stroke-linejoin: miter"/>
   </g>
   <g id="patch_53">
    <path d="M 64.073437 288.747146 
L 64.073437 11.547146 
" style="fill: none; stroke: #cccccc; stroke-width: 1.25; stroke-linejoin: miter; stroke-linecap: square"/>
   </g>
   <g id="patch_54">
    <path d="M 622.073437 288.747146 
L 622.073437 11.547146 
" style="fill: none; stroke: #cccccc; stroke-width: 1.25; stroke-linejoin: miter; stroke-linecap: square"/>
   </g>
   <g id="patch_55">
    <path d="M 64.073438 288.747146 
L 622.073438 288.747146 
" style="fill: none; stroke: #cccccc; stroke-width: 1.25; stroke-linejoin: miter; stroke-linecap: square"/>
   </g>
   <g id="patch_56">
    <path d="M 64.073438 11.547146 
L 622.073438 11.547146 
" style="fill: none; stroke: #cccccc; stroke-width: 1.25; stroke-linejoin: miter; stroke-linecap: square"/>
   </g>
  </g>
 </g>
 <defs>
  <clipPath id="pf1a69d5cc5">
   <rect x="64.073437" y="11.547146" width="558" height="277.2"/>
  </clipPath>
 </defs>
</svg>
