<?xml version="1.0" encoding="utf-8" standalone="no"?>
<!DOCTYPE svg PUBLIC "-//W3C//DTD SVG 1.1//EN"
  "http://www.w3.org/Graphics/SVG/1.1/DTD/svg11.dtd">
<svg xmlns:xlink="http://www.w3.org/1999/xlink" width="703.554844pt" height="326.134219pt" viewBox="0 0 703.554844 326.134219" xmlns="http://www.w3.org/2000/svg" version="1.1">
 <metadata>
  <rdf:RDF xmlns:dc="http://purl.org/dc/elements/1.1/" xmlns:cc="http://creativecommons.org/ns#" xmlns:rdf="http://www.w3.org/1999/02/22-rdf-syntax-ns#">
   <cc:Work>
    <dc:type rdf:resource="http://purl.org/dc/dcmitype/StillImage"/>
    <dc:date>2023-11-06T16:09:32.593675</dc:date>
    <dc:format>image/svg+xml</dc:format>
    <dc:creator>
     <cc:Agent>
      <dc:title>Matplotlib v3.7.1, https://matplotlib.org/</dc:title>
     </cc:Agent>
    </dc:creator>
   </cc:Work>
  </rdf:RDF>
 </metadata>
 <defs>
  <style type="text/css">*{stroke-linejoin: round; stroke-linecap: butt}</style>
 </defs>
 <g id="figure_1">
  <g id="patch_1">
   <path d="M -0 326.134219 
L 703.554844 326.134219 
L 703.554844 0 
L -0 0 
z
" style="fill: #ffffff"/>
  </g>
  <g id="axes_1">
   <g id="patch_2">
    <path d="M 138.354844 284.4 
L 696.354844 284.4 
L 696.354844 7.2 
L 138.354844 7.2 
z
" style="fill: #ffffff"/>
   </g>
   <g id="matplotlib.axis_1">
    <g id="xtick_1">
     <g id="line2d_1">
      <path d="M 147.242492 284.4 
L 147.242492 7.2 
" clip-path="url(#p72e5d645ad)" style="fill: none; stroke: #cccccc; stroke-linecap: round"/>
     </g>
     <g id="text_1">
      <!-- 40 -->
      <g style="fill: #262626" transform="translate(141.125461 301.773594) scale(0.11 -0.11)">
       <defs>
        <path id="ArialMT-34" d="M 2069 0 
L 2069 1097 
L 81 1097 
L 81 1613 
L 2172 4581 
L 2631 4581 
L 2631 1613 
L 3250 1613 
L 3250 1097 
L 2631 1097 
L 2631 0 
L 2069 0 
z
M 2069 1613 
L 2069 3678 
L 634 1613 
L 2069 1613 
z
" transform="scale(0.015625)"/>
        <path id="ArialMT-30" d="M 266 2259 
Q 266 3072 433 3567 
Q 600 4063 929 4331 
Q 1259 4600 1759 4600 
Q 2128 4600 2406 4451 
Q 2684 4303 2865 4023 
Q 3047 3744 3150 3342 
Q 3253 2941 3253 2259 
Q 3253 1453 3087 958 
Q 2922 463 2592 192 
Q 2263 -78 1759 -78 
Q 1097 -78 719 397 
Q 266 969 266 2259 
z
M 844 2259 
Q 844 1131 1108 757 
Q 1372 384 1759 384 
Q 2147 384 2411 759 
Q 2675 1134 2675 2259 
Q 2675 3391 2411 3762 
Q 2147 4134 1753 4134 
Q 1366 4134 1134 3806 
Q 844 3388 844 2259 
z
" transform="scale(0.015625)"/>
       </defs>
       <use xlink:href="#ArialMT-34"/>
       <use xlink:href="#ArialMT-30" x="55.615234"/>
      </g>
     </g>
    </g>
    <g id="xtick_2">
     <g id="line2d_2">
      <path d="M 221.276301 284.4 
L 221.276301 7.2 
" clip-path="url(#p72e5d645ad)" style="fill: none; stroke: #cccccc; stroke-linecap: round"/>
     </g>
     <g id="text_2">
      <!-- 50 -->
      <g style="fill: #262626" transform="translate(215.159269 301.773594) scale(0.11 -0.11)">
       <defs>
        <path id="ArialMT-35" d="M 266 1200 
L 856 1250 
Q 922 819 1161 601 
Q 1400 384 1738 384 
Q 2144 384 2425 690 
Q 2706 997 2706 1503 
Q 2706 1984 2436 2262 
Q 2166 2541 1728 2541 
Q 1456 2541 1237 2417 
Q 1019 2294 894 2097 
L 366 2166 
L 809 4519 
L 3088 4519 
L 3088 3981 
L 1259 3981 
L 1013 2750 
Q 1425 3038 1878 3038 
Q 2478 3038 2890 2622 
Q 3303 2206 3303 1553 
Q 3303 931 2941 478 
Q 2500 -78 1738 -78 
Q 1113 -78 717 272 
Q 322 622 266 1200 
z
" transform="scale(0.015625)"/>
       </defs>
       <use xlink:href="#ArialMT-35"/>
       <use xlink:href="#ArialMT-30" x="55.615234"/>
      </g>
     </g>
    </g>
    <g id="xtick_3">
     <g id="line2d_3">
      <path d="M 295.31011 284.4 
L 295.31011 7.2 
" clip-path="url(#p72e5d645ad)" style="fill: none; stroke: #cccccc; stroke-linecap: round"/>
     </g>
     <g id="text_3">
      <!-- 60 -->
      <g style="fill: #262626" transform="translate(289.193078 301.773594) scale(0.11 -0.11)">
       <defs>
        <path id="ArialMT-36" d="M 3184 3459 
L 2625 3416 
Q 2550 3747 2413 3897 
Q 2184 4138 1850 4138 
Q 1581 4138 1378 3988 
Q 1113 3794 959 3422 
Q 806 3050 800 2363 
Q 1003 2672 1297 2822 
Q 1591 2972 1913 2972 
Q 2475 2972 2870 2558 
Q 3266 2144 3266 1488 
Q 3266 1056 3080 686 
Q 2894 316 2569 119 
Q 2244 -78 1831 -78 
Q 1128 -78 684 439 
Q 241 956 241 2144 
Q 241 3472 731 4075 
Q 1159 4600 1884 4600 
Q 2425 4600 2770 4297 
Q 3116 3994 3184 3459 
z
M 888 1484 
Q 888 1194 1011 928 
Q 1134 663 1356 523 
Q 1578 384 1822 384 
Q 2178 384 2434 671 
Q 2691 959 2691 1453 
Q 2691 1928 2437 2201 
Q 2184 2475 1800 2475 
Q 1419 2475 1153 2201 
Q 888 1928 888 1484 
z
" transform="scale(0.015625)"/>
       </defs>
       <use xlink:href="#ArialMT-36"/>
       <use xlink:href="#ArialMT-30" x="55.615234"/>
      </g>
     </g>
    </g>
    <g id="xtick_4">
     <g id="line2d_4">
      <path d="M 369.343919 284.4 
L 369.343919 7.2 
" clip-path="url(#p72e5d645ad)" style="fill: none; stroke: #cccccc; stroke-linecap: round"/>
     </g>
     <g id="text_4">
      <!-- 70 -->
      <g style="fill: #262626" transform="translate(363.226887 301.773594) scale(0.11 -0.11)">
       <defs>
        <path id="ArialMT-37" d="M 303 3981 
L 303 4522 
L 3269 4522 
L 3269 4084 
Q 2831 3619 2401 2847 
Q 1972 2075 1738 1259 
Q 1569 684 1522 0 
L 944 0 
Q 953 541 1156 1306 
Q 1359 2072 1739 2783 
Q 2119 3494 2547 3981 
L 303 3981 
z
" transform="scale(0.015625)"/>
       </defs>
       <use xlink:href="#ArialMT-37"/>
       <use xlink:href="#ArialMT-30" x="55.615234"/>
      </g>
     </g>
    </g>
    <g id="xtick_5">
     <g id="line2d_5">
      <path d="M 443.377728 284.4 
L 443.377728 7.2 
" clip-path="url(#p72e5d645ad)" style="fill: none; stroke: #cccccc; stroke-linecap: round"/>
     </g>
     <g id="text_5">
      <!-- 80 -->
      <g style="fill: #262626" transform="translate(437.260696 301.773594) scale(0.11 -0.11)">
       <defs>
        <path id="ArialMT-38" d="M 1131 2484 
Q 781 2613 612 2850 
Q 444 3088 444 3419 
Q 444 3919 803 4259 
Q 1163 4600 1759 4600 
Q 2359 4600 2725 4251 
Q 3091 3903 3091 3403 
Q 3091 3084 2923 2848 
Q 2756 2613 2416 2484 
Q 2838 2347 3058 2040 
Q 3278 1734 3278 1309 
Q 3278 722 2862 322 
Q 2447 -78 1769 -78 
Q 1091 -78 675 323 
Q 259 725 259 1325 
Q 259 1772 486 2073 
Q 713 2375 1131 2484 
z
M 1019 3438 
Q 1019 3113 1228 2906 
Q 1438 2700 1772 2700 
Q 2097 2700 2305 2904 
Q 2513 3109 2513 3406 
Q 2513 3716 2298 3927 
Q 2084 4138 1766 4138 
Q 1444 4138 1231 3931 
Q 1019 3725 1019 3438 
z
M 838 1322 
Q 838 1081 952 856 
Q 1066 631 1291 507 
Q 1516 384 1775 384 
Q 2178 384 2440 643 
Q 2703 903 2703 1303 
Q 2703 1709 2433 1975 
Q 2163 2241 1756 2241 
Q 1359 2241 1098 1978 
Q 838 1716 838 1322 
z
" transform="scale(0.015625)"/>
       </defs>
       <use xlink:href="#ArialMT-38"/>
       <use xlink:href="#ArialMT-30" x="55.615234"/>
      </g>
     </g>
    </g>
    <g id="xtick_6">
     <g id="line2d_6">
      <path d="M 517.411537 284.4 
L 517.411537 7.2 
" clip-path="url(#p72e5d645ad)" style="fill: none; stroke: #cccccc; stroke-linecap: round"/>
     </g>
     <g id="text_6">
      <!-- 90 -->
      <g style="fill: #262626" transform="translate(511.294505 301.773594) scale(0.11 -0.11)">
       <defs>
        <path id="ArialMT-39" d="M 350 1059 
L 891 1109 
Q 959 728 1153 556 
Q 1347 384 1650 384 
Q 1909 384 2104 503 
Q 2300 622 2425 820 
Q 2550 1019 2634 1356 
Q 2719 1694 2719 2044 
Q 2719 2081 2716 2156 
Q 2547 1888 2255 1720 
Q 1963 1553 1622 1553 
Q 1053 1553 659 1965 
Q 266 2378 266 3053 
Q 266 3750 677 4175 
Q 1088 4600 1706 4600 
Q 2153 4600 2523 4359 
Q 2894 4119 3086 3673 
Q 3278 3228 3278 2384 
Q 3278 1506 3087 986 
Q 2897 466 2520 194 
Q 2144 -78 1638 -78 
Q 1100 -78 759 220 
Q 419 519 350 1059 
z
M 2653 3081 
Q 2653 3566 2395 3850 
Q 2138 4134 1775 4134 
Q 1400 4134 1122 3828 
Q 844 3522 844 3034 
Q 844 2597 1108 2323 
Q 1372 2050 1759 2050 
Q 2150 2050 2401 2323 
Q 2653 2597 2653 3081 
z
" transform="scale(0.015625)"/>
       </defs>
       <use xlink:href="#ArialMT-39"/>
       <use xlink:href="#ArialMT-30" x="55.615234"/>
      </g>
     </g>
    </g>
    <g id="xtick_7">
     <g id="line2d_7">
      <path d="M 591.445346 284.4 
L 591.445346 7.2 
" clip-path="url(#p72e5d645ad)" style="fill: none; stroke: #cccccc; stroke-linecap: round"/>
     </g>
     <g id="text_7">
      <!-- 100 -->
      <g style="fill: #262626" transform="translate(582.269799 301.773594) scale(0.11 -0.11)">
       <defs>
        <path id="ArialMT-31" d="M 2384 0 
L 1822 0 
L 1822 3584 
Q 1619 3391 1289 3197 
Q 959 3003 697 2906 
L 697 3450 
Q 1169 3672 1522 3987 
Q 1875 4303 2022 4600 
L 2384 4600 
L 2384 0 
z
" transform="scale(0.015625)"/>
       </defs>
       <use xlink:href="#ArialMT-31"/>
       <use xlink:href="#ArialMT-30" x="55.615234"/>
       <use xlink:href="#ArialMT-30" x="111.230469"/>
      </g>
     </g>
    </g>
    <g id="xtick_8">
     <g id="line2d_8">
      <path d="M 665.479154 284.4 
L 665.479154 7.2 
" clip-path="url(#p72e5d645ad)" style="fill: none; stroke: #cccccc; stroke-linecap: round"/>
     </g>
     <g id="text_8">
      <!-- 110 -->
      <g style="fill: #262626" transform="translate(656.709233 301.773594) scale(0.11 -0.11)">
       <use xlink:href="#ArialMT-31"/>
       <use xlink:href="#ArialMT-31" x="48.240234"/>
       <use xlink:href="#ArialMT-30" x="103.855469"/>
      </g>
     </g>
    </g>
    <g id="text_9">
     <!-- completeness -->
     <g style="fill: #262626" transform="translate(380.337656 316.549219) scale(0.12 -0.12)">
      <defs>
       <path id="ArialMT-63" d="M 2588 1216 
L 3141 1144 
Q 3050 572 2676 248 
Q 2303 -75 1759 -75 
Q 1078 -75 664 370 
Q 250 816 250 1647 
Q 250 2184 428 2587 
Q 606 2991 970 3192 
Q 1334 3394 1763 3394 
Q 2303 3394 2647 3120 
Q 2991 2847 3088 2344 
L 2541 2259 
Q 2463 2594 2264 2762 
Q 2066 2931 1784 2931 
Q 1359 2931 1093 2626 
Q 828 2322 828 1663 
Q 828 994 1084 691 
Q 1341 388 1753 388 
Q 2084 388 2306 591 
Q 2528 794 2588 1216 
z
" transform="scale(0.015625)"/>
       <path id="ArialMT-6f" d="M 213 1659 
Q 213 2581 725 3025 
Q 1153 3394 1769 3394 
Q 2453 3394 2887 2945 
Q 3322 2497 3322 1706 
Q 3322 1066 3130 698 
Q 2938 331 2570 128 
Q 2203 -75 1769 -75 
Q 1072 -75 642 372 
Q 213 819 213 1659 
z
M 791 1659 
Q 791 1022 1069 705 
Q 1347 388 1769 388 
Q 2188 388 2466 706 
Q 2744 1025 2744 1678 
Q 2744 2294 2464 2611 
Q 2184 2928 1769 2928 
Q 1347 2928 1069 2612 
Q 791 2297 791 1659 
z
" transform="scale(0.015625)"/>
       <path id="ArialMT-6d" d="M 422 0 
L 422 3319 
L 925 3319 
L 925 2853 
Q 1081 3097 1340 3245 
Q 1600 3394 1931 3394 
Q 2300 3394 2536 3241 
Q 2772 3088 2869 2813 
Q 3263 3394 3894 3394 
Q 4388 3394 4653 3120 
Q 4919 2847 4919 2278 
L 4919 0 
L 4359 0 
L 4359 2091 
Q 4359 2428 4304 2576 
Q 4250 2725 4106 2815 
Q 3963 2906 3769 2906 
Q 3419 2906 3187 2673 
Q 2956 2441 2956 1928 
L 2956 0 
L 2394 0 
L 2394 2156 
Q 2394 2531 2256 2718 
Q 2119 2906 1806 2906 
Q 1569 2906 1367 2781 
Q 1166 2656 1075 2415 
Q 984 2175 984 1722 
L 984 0 
L 422 0 
z
" transform="scale(0.015625)"/>
       <path id="ArialMT-70" d="M 422 -1272 
L 422 3319 
L 934 3319 
L 934 2888 
Q 1116 3141 1344 3267 
Q 1572 3394 1897 3394 
Q 2322 3394 2647 3175 
Q 2972 2956 3137 2557 
Q 3303 2159 3303 1684 
Q 3303 1175 3120 767 
Q 2938 359 2589 142 
Q 2241 -75 1856 -75 
Q 1575 -75 1351 44 
Q 1128 163 984 344 
L 984 -1272 
L 422 -1272 
z
M 931 1641 
Q 931 1000 1190 694 
Q 1450 388 1819 388 
Q 2194 388 2461 705 
Q 2728 1022 2728 1688 
Q 2728 2322 2467 2637 
Q 2206 2953 1844 2953 
Q 1484 2953 1207 2617 
Q 931 2281 931 1641 
z
" transform="scale(0.015625)"/>
       <path id="ArialMT-6c" d="M 409 0 
L 409 4581 
L 972 4581 
L 972 0 
L 409 0 
z
" transform="scale(0.015625)"/>
       <path id="ArialMT-65" d="M 2694 1069 
L 3275 997 
Q 3138 488 2766 206 
Q 2394 -75 1816 -75 
Q 1088 -75 661 373 
Q 234 822 234 1631 
Q 234 2469 665 2931 
Q 1097 3394 1784 3394 
Q 2450 3394 2872 2941 
Q 3294 2488 3294 1666 
Q 3294 1616 3291 1516 
L 816 1516 
Q 847 969 1125 678 
Q 1403 388 1819 388 
Q 2128 388 2347 550 
Q 2566 713 2694 1069 
z
M 847 1978 
L 2700 1978 
Q 2663 2397 2488 2606 
Q 2219 2931 1791 2931 
Q 1403 2931 1139 2672 
Q 875 2413 847 1978 
z
" transform="scale(0.015625)"/>
       <path id="ArialMT-74" d="M 1650 503 
L 1731 6 
Q 1494 -44 1306 -44 
Q 1000 -44 831 53 
Q 663 150 594 308 
Q 525 466 525 972 
L 525 2881 
L 113 2881 
L 113 3319 
L 525 3319 
L 525 4141 
L 1084 4478 
L 1084 3319 
L 1650 3319 
L 1650 2881 
L 1084 2881 
L 1084 941 
Q 1084 700 1114 631 
Q 1144 563 1211 522 
Q 1278 481 1403 481 
Q 1497 481 1650 503 
z
" transform="scale(0.015625)"/>
       <path id="ArialMT-6e" d="M 422 0 
L 422 3319 
L 928 3319 
L 928 2847 
Q 1294 3394 1984 3394 
Q 2284 3394 2536 3286 
Q 2788 3178 2913 3003 
Q 3038 2828 3088 2588 
Q 3119 2431 3119 2041 
L 3119 0 
L 2556 0 
L 2556 2019 
Q 2556 2363 2490 2533 
Q 2425 2703 2258 2804 
Q 2091 2906 1866 2906 
Q 1506 2906 1245 2678 
Q 984 2450 984 1813 
L 984 0 
L 422 0 
z
" transform="scale(0.015625)"/>
       <path id="ArialMT-73" d="M 197 991 
L 753 1078 
Q 800 744 1014 566 
Q 1228 388 1613 388 
Q 2000 388 2187 545 
Q 2375 703 2375 916 
Q 2375 1106 2209 1216 
Q 2094 1291 1634 1406 
Q 1016 1563 777 1677 
Q 538 1791 414 1992 
Q 291 2194 291 2438 
Q 291 2659 392 2848 
Q 494 3038 669 3163 
Q 800 3259 1026 3326 
Q 1253 3394 1513 3394 
Q 1903 3394 2198 3281 
Q 2494 3169 2634 2976 
Q 2775 2784 2828 2463 
L 2278 2388 
Q 2241 2644 2061 2787 
Q 1881 2931 1553 2931 
Q 1166 2931 1000 2803 
Q 834 2675 834 2503 
Q 834 2394 903 2306 
Q 972 2216 1119 2156 
Q 1203 2125 1616 2013 
Q 2213 1853 2448 1751 
Q 2684 1650 2818 1456 
Q 2953 1263 2953 975 
Q 2953 694 2789 445 
Q 2625 197 2315 61 
Q 2006 -75 1616 -75 
Q 969 -75 630 194 
Q 291 463 197 991 
z
" transform="scale(0.015625)"/>
      </defs>
      <use xlink:href="#ArialMT-63"/>
      <use xlink:href="#ArialMT-6f" x="50"/>
      <use xlink:href="#ArialMT-6d" x="105.615234"/>
      <use xlink:href="#ArialMT-70" x="188.916016"/>
      <use xlink:href="#ArialMT-6c" x="244.53125"/>
      <use xlink:href="#ArialMT-65" x="266.748047"/>
      <use xlink:href="#ArialMT-74" x="322.363281"/>
      <use xlink:href="#ArialMT-65" x="350.146484"/>
      <use xlink:href="#ArialMT-6e" x="405.761719"/>
      <use xlink:href="#ArialMT-65" x="461.376953"/>
      <use xlink:href="#ArialMT-73" x="516.992188"/>
      <use xlink:href="#ArialMT-73" x="566.992188"/>
     </g>
    </g>
   </g>
   <g id="matplotlib.axis_2">
    <g id="ytick_1">
     <g id="text_10">
      <!-- Methanomassiliicoccales -->
      <g style="fill: #262626" transform="translate(7.2 80.436797) scale(0.11 -0.11)">
       <defs>
        <path id="ArialMT-4d" d="M 475 0 
L 475 4581 
L 1388 4581 
L 2472 1338 
Q 2622 884 2691 659 
Q 2769 909 2934 1394 
L 4031 4581 
L 4847 4581 
L 4847 0 
L 4263 0 
L 4263 3834 
L 2931 0 
L 2384 0 
L 1059 3900 
L 1059 0 
L 475 0 
z
" transform="scale(0.015625)"/>
        <path id="ArialMT-68" d="M 422 0 
L 422 4581 
L 984 4581 
L 984 2938 
Q 1378 3394 1978 3394 
Q 2347 3394 2619 3248 
Q 2891 3103 3008 2847 
Q 3125 2591 3125 2103 
L 3125 0 
L 2563 0 
L 2563 2103 
Q 2563 2525 2380 2717 
Q 2197 2909 1863 2909 
Q 1613 2909 1392 2779 
Q 1172 2650 1078 2428 
Q 984 2206 984 1816 
L 984 0 
L 422 0 
z
" transform="scale(0.015625)"/>
        <path id="ArialMT-61" d="M 2588 409 
Q 2275 144 1986 34 
Q 1697 -75 1366 -75 
Q 819 -75 525 192 
Q 231 459 231 875 
Q 231 1119 342 1320 
Q 453 1522 633 1644 
Q 813 1766 1038 1828 
Q 1203 1872 1538 1913 
Q 2219 1994 2541 2106 
Q 2544 2222 2544 2253 
Q 2544 2597 2384 2738 
Q 2169 2928 1744 2928 
Q 1347 2928 1158 2789 
Q 969 2650 878 2297 
L 328 2372 
Q 403 2725 575 2942 
Q 747 3159 1072 3276 
Q 1397 3394 1825 3394 
Q 2250 3394 2515 3294 
Q 2781 3194 2906 3042 
Q 3031 2891 3081 2659 
Q 3109 2516 3109 2141 
L 3109 1391 
Q 3109 606 3145 398 
Q 3181 191 3288 0 
L 2700 0 
Q 2613 175 2588 409 
z
M 2541 1666 
Q 2234 1541 1622 1453 
Q 1275 1403 1131 1340 
Q 988 1278 909 1158 
Q 831 1038 831 891 
Q 831 666 1001 516 
Q 1172 366 1500 366 
Q 1825 366 2078 508 
Q 2331 650 2450 897 
Q 2541 1088 2541 1459 
L 2541 1666 
z
" transform="scale(0.015625)"/>
        <path id="ArialMT-69" d="M 425 3934 
L 425 4581 
L 988 4581 
L 988 3934 
L 425 3934 
z
M 425 0 
L 425 3319 
L 988 3319 
L 988 0 
L 425 0 
z
" transform="scale(0.015625)"/>
       </defs>
       <use xlink:href="#ArialMT-4d"/>
       <use xlink:href="#ArialMT-65" x="83.300781"/>
       <use xlink:href="#ArialMT-74" x="138.916016"/>
       <use xlink:href="#ArialMT-68" x="166.699219"/>
       <use xlink:href="#ArialMT-61" x="222.314453"/>
       <use xlink:href="#ArialMT-6e" x="277.929688"/>
       <use xlink:href="#ArialMT-6f" x="333.544922"/>
       <use xlink:href="#ArialMT-6d" x="389.160156"/>
       <use xlink:href="#ArialMT-61" x="472.460938"/>
       <use xlink:href="#ArialMT-73" x="528.076172"/>
       <use xlink:href="#ArialMT-73" x="578.076172"/>
       <use xlink:href="#ArialMT-69" x="628.076172"/>
       <use xlink:href="#ArialMT-6c" x="650.292969"/>
       <use xlink:href="#ArialMT-69" x="672.509766"/>
       <use xlink:href="#ArialMT-69" x="694.726562"/>
       <use xlink:href="#ArialMT-63" x="716.943359"/>
       <use xlink:href="#ArialMT-6f" x="766.943359"/>
       <use xlink:href="#ArialMT-63" x="822.558594"/>
       <use xlink:href="#ArialMT-63" x="872.558594"/>
       <use xlink:href="#ArialMT-61" x="922.558594"/>
       <use xlink:href="#ArialMT-6c" x="978.173828"/>
       <use xlink:href="#ArialMT-65" x="1000.390625"/>
       <use xlink:href="#ArialMT-73" x="1056.005859"/>
      </g>
     </g>
    </g>
    <g id="ytick_2">
     <g id="text_11">
      <!-- Methanobacteriales -->
      <g style="fill: #262626" transform="translate(32.859219 219.036797) scale(0.11 -0.11)">
       <defs>
        <path id="ArialMT-62" d="M 941 0 
L 419 0 
L 419 4581 
L 981 4581 
L 981 2947 
Q 1338 3394 1891 3394 
Q 2197 3394 2470 3270 
Q 2744 3147 2920 2923 
Q 3097 2700 3197 2384 
Q 3297 2069 3297 1709 
Q 3297 856 2875 390 
Q 2453 -75 1863 -75 
Q 1275 -75 941 416 
L 941 0 
z
M 934 1684 
Q 934 1088 1097 822 
Q 1363 388 1816 388 
Q 2184 388 2453 708 
Q 2722 1028 2722 1663 
Q 2722 2313 2464 2622 
Q 2206 2931 1841 2931 
Q 1472 2931 1203 2611 
Q 934 2291 934 1684 
z
" transform="scale(0.015625)"/>
        <path id="ArialMT-72" d="M 416 0 
L 416 3319 
L 922 3319 
L 922 2816 
Q 1116 3169 1280 3281 
Q 1444 3394 1641 3394 
Q 1925 3394 2219 3213 
L 2025 2691 
Q 1819 2813 1613 2813 
Q 1428 2813 1281 2702 
Q 1134 2591 1072 2394 
Q 978 2094 978 1738 
L 978 0 
L 416 0 
z
" transform="scale(0.015625)"/>
       </defs>
       <use xlink:href="#ArialMT-4d"/>
       <use xlink:href="#ArialMT-65" x="83.300781"/>
       <use xlink:href="#ArialMT-74" x="138.916016"/>
       <use xlink:href="#ArialMT-68" x="166.699219"/>
       <use xlink:href="#ArialMT-61" x="222.314453"/>
       <use xlink:href="#ArialMT-6e" x="277.929688"/>
       <use xlink:href="#ArialMT-6f" x="333.544922"/>
       <use xlink:href="#ArialMT-62" x="389.160156"/>
       <use xlink:href="#ArialMT-61" x="444.775391"/>
       <use xlink:href="#ArialMT-63" x="500.390625"/>
       <use xlink:href="#ArialMT-74" x="550.390625"/>
       <use xlink:href="#ArialMT-65" x="578.173828"/>
       <use xlink:href="#ArialMT-72" x="633.789062"/>
       <use xlink:href="#ArialMT-69" x="667.089844"/>
       <use xlink:href="#ArialMT-61" x="689.306641"/>
       <use xlink:href="#ArialMT-6c" x="744.921875"/>
       <use xlink:href="#ArialMT-65" x="767.138672"/>
       <use xlink:href="#ArialMT-73" x="822.753906"/>
      </g>
     </g>
    </g>
   </g>
   <g id="PolyCollection_1">
    <defs>
     <path id="madc02ba8a2" d="M 170.073714 -249.56346 
L 170.073714 -249.704977 
L 174.85093 -249.737631 
L 179.628146 -249.780721 
L 184.405362 -249.835498 
L 189.182578 -249.902562 
L 193.959794 -249.981615 
L 198.73701 -250.071321 
L 203.514226 -250.169314 
L 208.291442 -250.272406 
L 213.068658 -250.376959 
L 217.845874 -250.479391 
L 222.62309 -250.576685 
L 227.400306 -250.666801 
L 232.177522 -250.748869 
L 236.954738 -250.823104 
L 241.731954 -250.890452 
L 246.50917 -250.952042 
L 251.286386 -251.0086 
L 256.063603 -251.059952 
L 260.840819 -251.104791 
L 265.618035 -251.140748 
L 270.395251 -251.164781 
L 275.172467 -251.17379 
L 279.949683 -251.165338 
L 284.726899 -251.138325 
L 289.504115 -251.093509 
L 294.281331 -251.033797 
L 299.058547 -250.964284 
L 303.835763 -250.89206 
L 308.612979 -250.825798 
L 313.390195 -250.775173 
L 318.167411 -250.750107 
L 322.944627 -250.759899 
L 327.721843 -250.812258 
L 332.499059 -250.912355 
L 337.276275 -251.061976 
L 342.053491 -251.258935 
L 346.830707 -251.496871 
L 351.607923 -251.765494 
L 356.385139 -252.051314 
L 361.162355 -252.338767 
L 365.939571 -252.611626 
L 370.716787 -252.854488 
L 375.494003 -253.054193 
L 380.271219 -253.201005 
L 385.048435 -253.289468 
L 389.825652 -253.318907 
L 394.602868 -253.293576 
L 399.380084 -253.222477 
L 404.1573 -253.118863 
L 408.934516 -252.999439 
L 413.711732 -252.883244 
L 418.488948 -252.790261 
L 423.266164 -252.739823 
L 428.04338 -252.748987 
L 432.820596 -252.83108 
L 437.597812 -252.994625 
L 442.375028 -253.242806 
L 447.152244 -253.573512 
L 451.92946 -253.979876 
L 456.706676 -254.451138 
L 461.483892 -254.973675 
L 466.261108 -255.532091 
L 471.038324 -256.110415 
L 475.81554 -256.693537 
L 480.592756 -257.269069 
L 485.369972 -257.829702 
L 490.147188 -258.375965 
L 494.924404 -258.919094 
L 499.70162 -259.483533 
L 504.478836 -260.108588 
L 509.256052 -260.848796 
L 514.033268 -261.772697 
L 518.810484 -262.959796 
L 523.587701 -264.495477 
L 528.364917 -266.463583 
L 533.142133 -268.936349 
L 537.919349 -271.961604 
L 542.696565 -275.547803 
L 547.473781 -279.64848 
L 552.250997 -284.148943 
L 557.028213 -288.859042 
L 561.805429 -293.516052 
L 566.582645 -297.800662 
L 571.359861 -301.366716 
L 576.137077 -303.882035 
L 580.914293 -305.074219 
L 585.691509 -304.772956 
L 590.468725 -302.939915 
L 595.245941 -299.679246 
L 600.023157 -295.225699 
L 604.800373 -289.912332 
L 609.577589 -284.12431 
L 614.354805 -278.248088 
L 619.132021 -272.625609 
L 623.909237 -267.521141 
L 628.686453 -263.104727 
L 633.463669 -259.452228 
L 638.240885 -256.5586 
L 643.018101 -254.359141 
L 643.018101 -244.909296 
L 643.018101 -244.909296 
L 638.240885 -242.709837 
L 633.463669 -239.816209 
L 628.686453 -236.163711 
L 623.909237 -231.747296 
L 619.132021 -226.642828 
L 614.354805 -221.02035 
L 609.577589 -215.144128 
L 604.800373 -209.356106 
L 600.023157 -204.042739 
L 595.245941 -199.589191 
L 590.468725 -196.328522 
L 585.691509 -194.495482 
L 580.914293 -194.194219 
L 576.137077 -195.386402 
L 571.359861 -197.901721 
L 566.582645 -201.467776 
L 561.805429 -205.752386 
L 557.028213 -210.409396 
L 552.250997 -215.119495 
L 547.473781 -219.619957 
L 542.696565 -223.720634 
L 537.919349 -227.306834 
L 533.142133 -230.332088 
L 528.364917 -232.804854 
L 523.587701 -234.77296 
L 518.810484 -236.308641 
L 514.033268 -237.49574 
L 509.256052 -238.419642 
L 504.478836 -239.15985 
L 499.70162 -239.784905 
L 494.924404 -240.349344 
L 490.147188 -240.892473 
L 485.369972 -241.438736 
L 480.592756 -241.999368 
L 475.81554 -242.5749 
L 471.038324 -243.158022 
L 466.261108 -243.736346 
L 461.483892 -244.294763 
L 456.706676 -244.8173 
L 451.92946 -245.288562 
L 447.152244 -245.694925 
L 442.375028 -246.025632 
L 437.597812 -246.273812 
L 432.820596 -246.437357 
L 428.04338 -246.51945 
L 423.266164 -246.528614 
L 418.488948 -246.478176 
L 413.711732 -246.385193 
L 408.934516 -246.268999 
L 404.1573 -246.149575 
L 399.380084 -246.045961 
L 394.602868 -245.974861 
L 389.825652 -245.94953 
L 385.048435 -245.978969 
L 380.271219 -246.067432 
L 375.494003 -246.214244 
L 370.716787 -246.41395 
L 365.939571 -246.656812 
L 361.162355 -246.92967 
L 356.385139 -247.217124 
L 351.607923 -247.502943 
L 346.830707 -247.771566 
L 342.053491 -248.009502 
L 337.276275 -248.206462 
L 332.499059 -248.356082 
L 327.721843 -248.456179 
L 322.944627 -248.508539 
L 318.167411 -248.51833 
L 313.390195 -248.493264 
L 308.612979 -248.442639 
L 303.835763 -248.376378 
L 299.058547 -248.304153 
L 294.281331 -248.234641 
L 289.504115 -248.174928 
L 284.726899 -248.130112 
L 279.949683 -248.103099 
L 275.172467 -248.094647 
L 270.395251 -248.103657 
L 265.618035 -248.127689 
L 260.840819 -248.163646 
L 256.063603 -248.208485 
L 251.286386 -248.259838 
L 246.50917 -248.316395 
L 241.731954 -248.377986 
L 236.954738 -248.445333 
L 232.177522 -248.519568 
L 227.400306 -248.601636 
L 222.62309 -248.691752 
L 217.845874 -248.789046 
L 213.068658 -248.891478 
L 208.291442 -248.996032 
L 203.514226 -249.099123 
L 198.73701 -249.197117 
L 193.959794 -249.286822 
L 189.182578 -249.365876 
L 184.405362 -249.43294 
L 179.628146 -249.487717 
L 174.85093 -249.530807 
L 170.073714 -249.56346 
z
" style="stroke: #959595; stroke-width: 0.5"/>
    </defs>
    <g clip-path="url(#p72e5d645ad)">
     <use xlink:href="#madc02ba8a2" x="0" y="326.134219" style="fill: #f6fbfa; stroke: #959595; stroke-width: 0.5"/>
    </g>
   </g>
   <g id="PolyCollection_2">
    <defs>
     <path id="m70d358703f" d="M 163.71848 -110.860276 
L 163.71848 -111.208161 
L 168.842447 -111.263937 
L 173.966414 -111.333147 
L 179.090381 -111.417565 
L 184.214348 -111.518774 
L 189.338315 -111.638041 
L 194.462282 -111.776178 
L 199.586249 -111.933421 
L 204.710216 -112.109326 
L 209.834183 -112.3027 
L 214.95815 -112.511579 
L 220.082116 -112.733255 
L 225.206083 -112.964358 
L 230.33005 -113.200993 
L 235.454017 -113.43892 
L 240.577984 -113.673761 
L 245.701951 -113.901229 
L 250.825918 -114.117353 
L 255.949885 -114.318681 
L 261.073852 -114.502464 
L 266.197819 -114.666789 
L 271.321786 -114.810676 
L 276.445753 -114.934125 
L 281.56972 -115.038135 
L 286.693687 -115.124675 
L 291.817654 -115.196641 
L 296.941621 -115.257785 
L 302.065588 -115.312626 
L 307.189554 -115.366339 
L 312.313521 -115.424622 
L 317.437488 -115.493534 
L 322.561455 -115.579289 
L 327.685422 -115.688022 
L 332.809389 -115.82551 
L 337.933356 -115.996868 
L 343.057323 -116.206233 
L 348.18129 -116.45646 
L 353.305257 -116.748855 
L 358.429224 -117.082983 
L 363.553191 -117.456576 
L 368.677158 -117.865567 
L 373.801125 -118.304255 
L 378.925092 -118.765612 
L 384.049059 -119.241698 
L 389.173026 -119.724168 
L 394.296993 -120.204816 
L 399.420959 -120.676108 
L 404.544926 -121.131647 
L 409.668893 -121.56654 
L 414.79286 -121.977614 
L 419.916827 -122.363486 
L 425.040794 -122.724485 
L 430.164761 -123.062443 
L 435.288728 -123.380415 
L 440.412695 -123.682353 
L 445.536662 -123.972801 
L 450.660629 -124.25664 
L 455.784596 -124.538914 
L 460.908563 -124.824751 
L 466.03253 -125.119366 
L 471.156497 -125.428112 
L 476.280464 -125.756558 
L 481.404431 -126.110525 
L 486.528397 -126.496047 
L 491.652364 -126.919211 
L 496.776331 -127.385842 
L 501.900298 -127.90103 
L 507.024265 -128.468493 
L 512.148232 -129.089811 
L 517.272199 -129.763585 
L 522.396166 -130.484591 
L 527.520133 -131.243019 
L 532.6441 -132.023919 
L 537.768067 -132.806942 
L 542.892034 -133.566497 
L 548.016001 -134.272391 
L 553.139968 -134.890989 
L 558.263935 -135.386888 
L 563.387902 -135.725011 
L 568.511869 -135.872984 
L 573.635835 -135.803604 
L 578.759802 -135.497154 
L 583.883769 -134.943322 
L 589.007736 -134.142509 
L 594.131703 -133.106352 
L 599.25567 -131.85737 
L 604.379637 -130.427754 
L 609.503604 -128.857389 
L 614.627571 -127.1913 
L 619.751538 -125.476783 
L 624.875505 -123.760488 
L 629.999472 -122.085724 
L 635.123439 -120.490221 
L 640.247406 -119.004509 
L 645.371373 -117.650995 
L 650.49534 -116.443746 
L 655.619307 -115.38889 
L 660.743274 -114.485533 
L 665.86724 -113.727009 
L 670.991207 -113.102315 
L 670.991207 -108.966123 
L 670.991207 -108.966123 
L 665.86724 -108.341429 
L 660.743274 -107.582905 
L 655.619307 -106.679548 
L 650.49534 -105.624692 
L 645.371373 -104.417442 
L 640.247406 -103.063929 
L 635.123439 -101.578216 
L 629.999472 -99.982713 
L 624.875505 -98.307949 
L 619.751538 -96.591654 
L 614.627571 -94.877138 
L 609.503604 -93.211048 
L 604.379637 -91.640683 
L 599.25567 -90.211068 
L 594.131703 -88.962086 
L 589.007736 -87.925928 
L 583.883769 -87.125116 
L 578.759802 -86.571284 
L 573.635835 -86.264834 
L 568.511869 -86.195454 
L 563.387902 -86.343427 
L 558.263935 -86.681549 
L 553.139968 -87.177448 
L 548.016001 -87.796047 
L 542.892034 -88.50194 
L 537.768067 -89.261495 
L 532.6441 -90.044519 
L 527.520133 -90.825419 
L 522.396166 -91.583847 
L 517.272199 -92.304852 
L 512.148232 -92.978626 
L 507.024265 -93.599944 
L 501.900298 -94.167407 
L 496.776331 -94.682596 
L 491.652364 -95.149227 
L 486.528397 -95.57239 
L 481.404431 -95.957912 
L 476.280464 -96.311879 
L 471.156497 -96.640325 
L 466.03253 -96.949072 
L 460.908563 -97.243686 
L 455.784596 -97.529524 
L 450.660629 -97.811797 
L 445.536662 -98.095636 
L 440.412695 -98.386084 
L 435.288728 -98.688023 
L 430.164761 -99.005994 
L 425.040794 -99.343953 
L 419.916827 -99.704951 
L 414.79286 -100.090824 
L 409.668893 -100.501898 
L 404.544926 -100.93679 
L 399.420959 -101.392329 
L 394.296993 -101.863621 
L 389.173026 -102.34427 
L 384.049059 -102.82674 
L 378.925092 -103.302826 
L 373.801125 -103.764182 
L 368.677158 -104.202871 
L 363.553191 -104.611862 
L 358.429224 -104.985455 
L 353.305257 -105.319582 
L 348.18129 -105.611977 
L 343.057323 -105.862204 
L 337.933356 -106.07157 
L 332.809389 -106.242928 
L 327.685422 -106.380415 
L 322.561455 -106.489148 
L 317.437488 -106.574904 
L 312.313521 -106.643815 
L 307.189554 -106.702099 
L 302.065588 -106.755812 
L 296.941621 -106.810652 
L 291.817654 -106.871796 
L 286.693687 -106.943762 
L 281.56972 -107.030302 
L 276.445753 -107.134312 
L 271.321786 -107.257762 
L 266.197819 -107.401648 
L 261.073852 -107.565973 
L 255.949885 -107.749756 
L 250.825918 -107.951085 
L 245.701951 -108.167208 
L 240.577984 -108.394677 
L 235.454017 -108.629518 
L 230.33005 -108.867445 
L 225.206083 -109.10408 
L 220.082116 -109.335183 
L 214.95815 -109.556858 
L 209.834183 -109.765737 
L 204.710216 -109.959112 
L 199.586249 -110.135017 
L 194.462282 -110.29226 
L 189.338315 -110.430397 
L 184.214348 -110.549663 
L 179.090381 -110.650873 
L 173.966414 -110.73529 
L 168.842447 -110.804501 
L 163.71848 -110.860276 
z
" style="stroke: #959595; stroke-width: 0.5"/>
    </defs>
    <g clip-path="url(#p72e5d645ad)">
     <use xlink:href="#m70d358703f" x="0" y="326.134219" style="fill: #f6fbfa; stroke: #959595; stroke-width: 0.5"/>
    </g>
   </g>
   <g id="patch_3">
    <path d="M 138.354844 284.4 
L 138.354844 7.2 
" style="fill: none; stroke: #cccccc; stroke-width: 1.25; stroke-linejoin: miter; stroke-linecap: square"/>
   </g>
   <g id="patch_4">
    <path d="M 696.354844 284.4 
L 696.354844 7.2 
" style="fill: none; stroke: #cccccc; stroke-width: 1.25; stroke-linejoin: miter; stroke-linecap: square"/>
   </g>
   <g id="patch_5">
    <path d="M 138.354844 284.4 
L 696.354844 284.4 
" style="fill: none; stroke: #cccccc; stroke-width: 1.25; stroke-linejoin: miter; stroke-linecap: square"/>
   </g>
   <g id="patch_6">
    <path d="M 138.354844 7.2 
L 696.354844 7.2 
" style="fill: none; stroke: #cccccc; stroke-width: 1.25; stroke-linejoin: miter; stroke-linecap: square"/>
   </g>
   <g id="PathCollection_1">
    <defs>
     <path id="md977dfc42c" d="M 0 1.5 
C 0.397805 1.5 0.77937 1.341951 1.06066 1.06066 
C 1.341951 0.77937 1.5 0.397805 1.5 0 
C 1.5 -0.397805 1.341951 -0.77937 1.06066 -1.06066 
C 0.77937 -1.341951 0.397805 -1.5 0 -1.5 
C -0.397805 -1.5 -0.77937 -1.341951 -1.06066 -1.06066 
C -1.341951 -0.77937 -1.5 -0.397805 -1.5 0 
C -1.5 0.397805 -1.341951 0.77937 -1.06066 1.06066 
C -0.77937 1.341951 -0.397805 1.5 0 1.5 
z
"/>
    </defs>
    <g clip-path="url(#p72e5d645ad)">
     <use xlink:href="#md977dfc42c" x="309.968804" y="76.5" style="fill: #60bdc4"/>
     <use xlink:href="#md977dfc42c" x="499.643422" y="76.5" style="fill: #60bdc4"/>
     <use xlink:href="#md977dfc42c" x="361.052132" y="79.50871" style="fill: #60bdc4"/>
     <use xlink:href="#md977dfc42c" x="517.855739" y="76.5" style="fill: #60bdc4"/>
     <use xlink:href="#md977dfc42c" x="460.109368" y="76.5" style="fill: #60bdc4"/>
     <use xlink:href="#md977dfc42c" x="553.540035" y="76.5" style="fill: #60bdc4"/>
     <use xlink:href="#md977dfc42c" x="287.240425" y="76.5" style="fill: #60bdc4"/>
     <use xlink:href="#md977dfc42c" x="382.670004" y="76.5" style="fill: #60bdc4"/>
     <use xlink:href="#md977dfc42c" x="589.00223" y="118.333978" style="fill: #60bdc4"/>
     <use xlink:href="#md977dfc42c" x="591.371312" y="131.94" style="fill: #60bdc4"/>
     <use xlink:href="#md977dfc42c" x="570.123609" y="76.5" style="fill: #60bdc4"/>
     <use xlink:href="#md977dfc42c" x="264.438011" y="76.5" style="fill: #60bdc4"/>
     <use xlink:href="#md977dfc42c" x="470.696203" y="76.5" style="fill: #60bdc4"/>
     <use xlink:href="#md977dfc42c" x="399.919882" y="76.5" style="fill: #60bdc4"/>
     <use xlink:href="#md977dfc42c" x="591.445346" y="76.9762" style="fill: #60bdc4"/>
     <use xlink:href="#md977dfc42c" x="493.350549" y="79.571324" style="fill: #60bdc4"/>
     <use xlink:href="#md977dfc42c" x="590.112737" y="79.798367" style="fill: #60bdc4"/>
     <use xlink:href="#md977dfc42c" x="537.548733" y="80.489829" style="fill: #60bdc4"/>
     <use xlink:href="#md977dfc42c" x="589.150297" y="31.896788" style="fill: #60bdc4"/>
     <use xlink:href="#md977dfc42c" x="588.409959" y="47.617961" style="fill: #60bdc4"/>
     <use xlink:href="#md977dfc42c" x="557.241726" y="72.232018" style="fill: #60bdc4"/>
     <use xlink:href="#md977dfc42c" x="558.574334" y="79.281038" style="fill: #60bdc4"/>
     <use xlink:href="#md977dfc42c" x="586.48508" y="80.094807" style="fill: #60bdc4"/>
     <use xlink:href="#md977dfc42c" x="588.113824" y="77.449475" style="fill: #60bdc4"/>
     <use xlink:href="#md977dfc42c" x="492.684244" y="76.5" style="fill: #60bdc4"/>
     <use xlink:href="#md977dfc42c" x="582.78339" y="54.26343" style="fill: #60bdc4"/>
     <use xlink:href="#md977dfc42c" x="550.800784" y="78.058691" style="fill: #60bdc4"/>
     <use xlink:href="#md977dfc42c" x="575.380009" y="78.024644" style="fill: #60bdc4"/>
     <use xlink:href="#md977dfc42c" x="575.750178" y="74.549972" style="fill: #60bdc4"/>
     <use xlink:href="#md977dfc42c" x="564.941242" y="76.042467" style="fill: #60bdc4"/>
     <use xlink:href="#md977dfc42c" x="451.817582" y="76.5" style="fill: #60bdc4"/>
     <use xlink:href="#md977dfc42c" x="578.563463" y="76.5" style="fill: #60bdc4"/>
     <use xlink:href="#md977dfc42c" x="591.297278" y="40.037318" style="fill: #60bdc4"/>
     <use xlink:href="#md977dfc42c" x="548.061533" y="76.5" style="fill: #60bdc4"/>
     <use xlink:href="#md977dfc42c" x="589.890636" y="124.514738" style="fill: #60bdc4"/>
     <use xlink:href="#md977dfc42c" x="588.409959" y="105.75512" style="fill: #60bdc4"/>
     <use xlink:href="#md977dfc42c" x="583.079525" y="51.128814" style="fill: #60bdc4"/>
     <use xlink:href="#md977dfc42c" x="579.748004" y="79.385493" style="fill: #60bdc4"/>
     <use xlink:href="#md977dfc42c" x="585.226506" y="93.837809" style="fill: #60bdc4"/>
     <use xlink:href="#md977dfc42c" x="237.637773" y="76.5" style="fill: #60bdc4"/>
     <use xlink:href="#md977dfc42c" x="581.080612" y="70.909346" style="fill: #60bdc4"/>
     <use xlink:href="#md977dfc42c" x="587.299452" y="91.333091" style="fill: #60bdc4"/>
     <use xlink:href="#md977dfc42c" x="495.053326" y="74.567472" style="fill: #60bdc4"/>
     <use xlink:href="#md977dfc42c" x="588.409959" y="44.467961" style="fill: #60bdc4"/>
     <use xlink:href="#md977dfc42c" x="582.78339" y="98.273953" style="fill: #60bdc4"/>
     <use xlink:href="#md977dfc42c" x="588.928196" y="115.184937" style="fill: #60bdc4"/>
     <use xlink:href="#md977dfc42c" x="482.09741" y="76.5" style="fill: #60bdc4"/>
     <use xlink:href="#md977dfc42c" x="586.929283" y="64.391787" style="fill: #60bdc4"/>
     <use xlink:href="#md977dfc42c" x="590.260805" y="92.607653" style="fill: #60bdc4"/>
     <use xlink:href="#md977dfc42c" x="573.084961" y="72.846009" style="fill: #60bdc4"/>
     <use xlink:href="#md977dfc42c" x="591.075176" y="107.201156" style="fill: #60bdc4"/>
     <use xlink:href="#md977dfc42c" x="537.400665" y="74.209052" style="fill: #60bdc4"/>
     <use xlink:href="#md977dfc42c" x="561.387619" y="77.003991" style="fill: #60bdc4"/>
     <use xlink:href="#md977dfc42c" x="582.413221" y="57.389358" style="fill: #60bdc4"/>
     <use xlink:href="#md977dfc42c" x="497.348374" y="72.538837" style="fill: #60bdc4"/>
     <use xlink:href="#md977dfc42c" x="502.234606" y="78.08747" style="fill: #60bdc4"/>
     <use xlink:href="#md977dfc42c" x="555.76105" y="81.767539" style="fill: #60bdc4"/>
     <use xlink:href="#md977dfc42c" x="537.252597" y="77.355213" style="fill: #60bdc4"/>
     <use xlink:href="#md977dfc42c" x="588.558027" y="41.3218" style="fill: #60bdc4"/>
     <use xlink:href="#md977dfc42c" x="587.151385" y="99.657735" style="fill: #60bdc4"/>
     <use xlink:href="#md977dfc42c" x="567.088222" y="70.207617" style="fill: #60bdc4"/>
     <use xlink:href="#md977dfc42c" x="579.229767" y="65.940102" style="fill: #60bdc4"/>
     <use xlink:href="#md977dfc42c" x="572.122521" y="78.848892" style="fill: #60bdc4"/>
     <use xlink:href="#md977dfc42c" x="574.565637" y="70.106414" style="fill: #60bdc4"/>
     <use xlink:href="#md977dfc42c" x="584.264066" y="62.52723" style="fill: #60bdc4"/>
     <use xlink:href="#md977dfc42c" x="584.708269" y="77.556729" style="fill: #60bdc4"/>
     <use xlink:href="#md977dfc42c" x="525.037019" y="76.5" style="fill: #60bdc4"/>
     <use xlink:href="#md977dfc42c" x="528.294506" y="76.5" style="fill: #60bdc4"/>
     <use xlink:href="#md977dfc42c" x="580.340274" y="73.961921" style="fill: #60bdc4"/>
     <use xlink:href="#md977dfc42c" x="581.154646" y="63.523997" style="fill: #60bdc4"/>
     <use xlink:href="#md977dfc42c" x="589.5945" y="97.625738" style="fill: #60bdc4"/>
     <use xlink:href="#md977dfc42c" x="588.03979" y="94.93174" style="fill: #60bdc4"/>
     <use xlink:href="#md977dfc42c" x="590.927109" y="131.94" style="fill: #60bdc4"/>
     <use xlink:href="#md977dfc42c" x="562.424092" y="74.047962" style="fill: #60bdc4"/>
     <use xlink:href="#md977dfc42c" x="417.910097" y="76.5" style="fill: #60bdc4"/>
     <use xlink:href="#md977dfc42c" x="534.365279" y="76.5" style="fill: #60bdc4"/>
     <use xlink:href="#md977dfc42c" x="584.190032" y="65.67627" style="fill: #60bdc4"/>
     <use xlink:href="#md977dfc42c" x="584.560201" y="82.65406" style="fill: #60bdc4"/>
     <use xlink:href="#md977dfc42c" x="589.224331" y="86.435341" style="fill: #60bdc4"/>
     <use xlink:href="#md977dfc42c" x="486.243303" y="76.5" style="fill: #60bdc4"/>
     <use xlink:href="#md977dfc42c" x="587.225418" y="50.512014" style="fill: #60bdc4"/>
     <use xlink:href="#md977dfc42c" x="588.780128" y="67.240064" style="fill: #60bdc4"/>
     <use xlink:href="#md977dfc42c" x="360.163726" y="76.5" style="fill: #60bdc4"/>
     <use xlink:href="#md977dfc42c" x="579.081699" y="86.466618" style="fill: #60bdc4"/>
     <use xlink:href="#md977dfc42c" x="586.411047" y="74.963303" style="fill: #60bdc4"/>
     <use xlink:href="#md977dfc42c" x="587.151385" y="71.910728" style="fill: #60bdc4"/>
     <use xlink:href="#md977dfc42c" x="506.454533" y="79.483499" style="fill: #60bdc4"/>
     <use xlink:href="#md977dfc42c" x="553.540035" y="79.65" style="fill: #60bdc4"/>
     <use xlink:href="#md977dfc42c" x="582.117086" y="67.953316" style="fill: #60bdc4"/>
     <use xlink:href="#md977dfc42c" x="590.779041" y="131.94" style="fill: #60bdc4"/>
     <use xlink:href="#md977dfc42c" x="505.492093" y="76.5" style="fill: #60bdc4"/>
     <use xlink:href="#md977dfc42c" x="548.135567" y="79.649041" style="fill: #60bdc4"/>
     <use xlink:href="#md977dfc42c" x="588.854162" y="38.187185" style="fill: #60bdc4"/>
     <use xlink:href="#md977dfc42c" x="540.732186" y="76.5" style="fill: #60bdc4"/>
     <use xlink:href="#md977dfc42c" x="584.93037" y="59.455905" style="fill: #60bdc4"/>
     <use xlink:href="#md977dfc42c" x="591.001143" y="21.06" style="fill: #60bdc4"/>
     <use xlink:href="#md977dfc42c" x="574.0474" y="81.264997" style="fill: #60bdc4"/>
     <use xlink:href="#md977dfc42c" x="554.502475" y="73.516501" style="fill: #60bdc4"/>
     <use xlink:href="#md977dfc42c" x="589.520466" y="74.667202" style="fill: #60bdc4"/>
     <use xlink:href="#md977dfc42c" x="585.596675" y="96.963738" style="fill: #60bdc4"/>
     <use xlink:href="#md977dfc42c" x="567.384358" y="83.576529" style="fill: #60bdc4"/>
     <use xlink:href="#md977dfc42c" x="538.289071" y="71.200342" style="fill: #60bdc4"/>
     <use xlink:href="#md977dfc42c" x="584.190032" y="71.003608" style="fill: #60bdc4"/>
     <use xlink:href="#md977dfc42c" x="591.075176" y="21.06" style="fill: #60bdc4"/>
     <use xlink:href="#md977dfc42c" x="591.223244" y="110.210695" style="fill: #60bdc4"/>
     <use xlink:href="#md977dfc42c" x="590.630974" y="21.06" style="fill: #60bdc4"/>
     <use xlink:href="#md977dfc42c" x="509.71202" y="79.483499" style="fill: #60bdc4"/>
     <use xlink:href="#md977dfc42c" x="577.230854" y="71.810378" style="fill: #60bdc4"/>
     <use xlink:href="#md977dfc42c" x="590.779041" y="21.06" style="fill: #60bdc4"/>
     <use xlink:href="#md977dfc42c" x="590.927109" y="131.94" style="fill: #60bdc4"/>
     <use xlink:href="#md977dfc42c" x="577.008753" y="80.669976" style="fill: #60bdc4"/>
     <use xlink:href="#md977dfc42c" x="578.637497" y="69.028104" style="fill: #60bdc4"/>
     <use xlink:href="#md977dfc42c" x="588.483993" y="108.904161" style="fill: #60bdc4"/>
     <use xlink:href="#md977dfc42c" x="573.084961" y="75.996009" style="fill: #60bdc4"/>
     <use xlink:href="#md977dfc42c" x="587.373486" y="61.283987" style="fill: #60bdc4"/>
     <use xlink:href="#md977dfc42c" x="588.780128" y="112.038776" style="fill: #60bdc4"/>
     <use xlink:href="#md977dfc42c" x="590.55694" y="130.736062" style="fill: #60bdc4"/>
     <use xlink:href="#md977dfc42c" x="583.597762" y="87.776523" style="fill: #60bdc4"/>
     <use xlink:href="#md977dfc42c" x="589.742568" y="89.505009" style="fill: #60bdc4"/>
     <use xlink:href="#md977dfc42c" x="581.450781" y="92.164525" style="fill: #60bdc4"/>
     <use xlink:href="#md977dfc42c" x="591.075176" y="43.035572" style="fill: #60bdc4"/>
     <use xlink:href="#md977dfc42c" x="391.109858" y="76.5" style="fill: #60bdc4"/>
     <use xlink:href="#md977dfc42c" x="563.756701" y="78.93652" style="fill: #60bdc4"/>
     <use xlink:href="#md977dfc42c" x="584.412134" y="104.230736" style="fill: #60bdc4"/>
     <use xlink:href="#md977dfc42c" x="585.226506" y="56.32129" style="fill: #60bdc4"/>
     <use xlink:href="#md977dfc42c" x="589.742568" y="63.297856" style="fill: #60bdc4"/>
     <use xlink:href="#md977dfc42c" x="589.890636" y="28.844213" style="fill: #60bdc4"/>
     <use xlink:href="#md977dfc42c" x="587.743655" y="58.158058" style="fill: #60bdc4"/>
     <use xlink:href="#md977dfc42c" x="590.705007" y="21.06" style="fill: #60bdc4"/>
     <use xlink:href="#md977dfc42c" x="582.339187" y="84.91713" style="fill: #60bdc4"/>
     <use xlink:href="#md977dfc42c" x="588.409959" y="82.510912" style="fill: #60bdc4"/>
     <use xlink:href="#md977dfc42c" x="565.68158" y="72.989891" style="fill: #60bdc4"/>
     <use xlink:href="#md977dfc42c" x="584.3381" y="90.829099" style="fill: #60bdc4"/>
     <use xlink:href="#md977dfc42c" x="586.781216" y="53.627292" style="fill: #60bdc4"/>
     <use xlink:href="#md977dfc42c" x="580.488342" y="82.438069" style="fill: #60bdc4"/>
     <use xlink:href="#md977dfc42c" x="586.040877" y="68.524547" style="fill: #60bdc4"/>
     <use xlink:href="#md977dfc42c" x="586.707182" y="88.149113" style="fill: #60bdc4"/>
     <use xlink:href="#md977dfc42c" x="497.348374" y="80.358455" style="fill: #60bdc4"/>
     <use xlink:href="#md977dfc42c" x="580.710443" y="89.11195" style="fill: #60bdc4"/>
     <use xlink:href="#md977dfc42c" x="591.001143" y="131.94" style="fill: #60bdc4"/>
     <use xlink:href="#md977dfc42c" x="582.413221" y="95.148024" style="fill: #60bdc4"/>
     <use xlink:href="#md977dfc42c" x="583.079525" y="101.408569" style="fill: #60bdc4"/>
     <use xlink:href="#md977dfc42c" x="591.223244" y="131.94" style="fill: #60bdc4"/>
     <use xlink:href="#md977dfc42c" x="556.501388" y="77.003991" style="fill: #60bdc4"/>
     <use xlink:href="#md977dfc42c" x="583.449694" y="74.056184" style="fill: #60bdc4"/>
     <use xlink:href="#md977dfc42c" x="590.927109" y="103.898247" style="fill: #60bdc4"/>
     <use xlink:href="#md977dfc42c" x="221.64647" y="76.5" style="fill: #60bdc4"/>
     <use xlink:href="#md977dfc42c" x="589.816602" y="121.365697" style="fill: #60bdc4"/>
     <use xlink:href="#md977dfc42c" x="566.27385" y="80.650291" style="fill: #60bdc4"/>
     <use xlink:href="#md977dfc42c" x="588.187858" y="102.613764" style="fill: #60bdc4"/>
     <use xlink:href="#md977dfc42c" x="590.55694" y="21.06" style="fill: #60bdc4"/>
     <use xlink:href="#md977dfc42c" x="591.371312" y="21.06" style="fill: #60bdc4"/>
     <use xlink:href="#md977dfc42c" x="581.524815" y="60.398068" style="fill: #60bdc4"/>
     <use xlink:href="#md977dfc42c" x="577.526989" y="83.77262" style="fill: #60bdc4"/>
     <use xlink:href="#md977dfc42c" x="588.928196" y="35.038144" style="fill: #60bdc4"/>
     <use xlink:href="#md977dfc42c" x="590.408872" y="60.226532" style="fill: #60bdc4"/>
     <use xlink:href="#md977dfc42c" x="590.55694" y="22.622888" style="fill: #60bdc4"/>
     <use xlink:href="#md977dfc42c" x="550.652717" y="74.91253" style="fill: #60bdc4"/>
     <use xlink:href="#md977dfc42c" x="534.58738" y="79.641356" style="fill: #60bdc4"/>
     <use xlink:href="#md977dfc42c" x="559.166605" y="82.36904" style="fill: #60bdc4"/>
     <use xlink:href="#md977dfc42c" x="581.82095" y="76.701516" style="fill: #60bdc4"/>
     <use xlink:href="#md977dfc42c" x="582.635322" y="80.237956" style="fill: #60bdc4"/>
     <use xlink:href="#md977dfc42c" x="590.55694" y="127.586062" style="fill: #60bdc4"/>
     <use xlink:href="#md977dfc42c" x="558.944503" y="75.17591" style="fill: #60bdc4"/>
     <use xlink:href="#md977dfc42c" x="590.55694" y="25.772888" style="fill: #60bdc4"/>
     <use xlink:href="#md977dfc42c" x="590.55694" y="131.94" style="fill: #60bdc4"/>
     <use xlink:href="#md977dfc42c" x="590.705007" y="49.646597" style="fill: #60bdc4"/>
     <use xlink:href="#md977dfc42c" x="496.459969" y="77.349746" style="fill: #60bdc4"/>
     <use xlink:href="#md977dfc42c" x="586.559114" y="85.002952" style="fill: #60bdc4"/>
     <use xlink:href="#md977dfc42c" x="590.482906" y="100.585129" style="fill: #60bdc4"/>
     <use xlink:href="#md977dfc42c" x="591.001143" y="46.055431" style="fill: #60bdc4"/>
     <use xlink:href="#md977dfc42c" x="590.927109" y="21.06" style="fill: #60bdc4"/>
     <use xlink:href="#md977dfc42c" x="589.668534" y="70.248774" style="fill: #60bdc4"/>
     <use xlink:href="#md977dfc42c" x="591.075176" y="83.95628" style="fill: #60bdc4"/>
     <use xlink:href="#md977dfc42c" x="589.5945" y="55.678997" style="fill: #60bdc4"/>
     <use xlink:href="#md977dfc42c" x="408.359736" y="76.5" style="fill: #60bdc4"/>
     <use xlink:href="#md977dfc42c" x="589.742568" y="52.532836" style="fill: #60bdc4"/>
     <use xlink:href="#md977dfc42c" x="590.630974" y="131.94" style="fill: #60bdc4"/>
     <use xlink:href="#md977dfc42c" x="508.749581" y="76.5" style="fill: #60bdc4"/>
    </g>
   </g>
   <g id="PathCollection_2">
    <g clip-path="url(#p72e5d645ad)">
     <use xlink:href="#md977dfc42c" x="445.006471" y="215.1" style="fill: #60bdc4"/>
     <use xlink:href="#md977dfc42c" x="397.106597" y="215.1" style="fill: #60bdc4"/>
     <use xlink:href="#md977dfc42c" x="320.407571" y="215.1" style="fill: #60bdc4"/>
     <use xlink:href="#md977dfc42c" x="415.096813" y="215.1" style="fill: #60bdc4"/>
     <use xlink:href="#md977dfc42c" x="589.520466" y="224.396038" style="fill: #60bdc4"/>
     <use xlink:href="#md977dfc42c" x="405.176282" y="215.1" style="fill: #60bdc4"/>
     <use xlink:href="#md977dfc42c" x="464.773498" y="215.1" style="fill: #60bdc4"/>
     <use xlink:href="#md977dfc42c" x="551.170953" y="215.1" style="fill: #60bdc4"/>
     <use xlink:href="#md977dfc42c" x="488.982554" y="215.1" style="fill: #60bdc4"/>
     <use xlink:href="#md977dfc42c" x="535.475786" y="215.1" style="fill: #60bdc4"/>
     <use xlink:href="#md977dfc42c" x="589.446433" y="209.027601" style="fill: #60bdc4"/>
     <use xlink:href="#md977dfc42c" x="475.138232" y="215.1" style="fill: #60bdc4"/>
     <use xlink:href="#md977dfc42c" x="335.3624" y="215.1" style="fill: #60bdc4"/>
     <use xlink:href="#md977dfc42c" x="524.296681" y="218.083499" style="fill: #60bdc4"/>
     <use xlink:href="#md977dfc42c" x="476.618908" y="209.210406" style="fill: #60bdc4"/>
     <use xlink:href="#md977dfc42c" x="406.730992" y="217.793997" style="fill: #60bdc4"/>
     <use xlink:href="#md977dfc42c" x="589.00223" y="218.131719" style="fill: #60bdc4"/>
     <use xlink:href="#md977dfc42c" x="440.268308" y="217.217539" style="fill: #60bdc4"/>
     <use xlink:href="#md977dfc42c" x="588.335926" y="211.953839" style="fill: #60bdc4"/>
     <use xlink:href="#md977dfc42c" x="590.482906" y="199.672621" style="fill: #60bdc4"/>
     <use xlink:href="#md977dfc42c" x="491.943906" y="214.164964" style="fill: #60bdc4"/>
     <use xlink:href="#md977dfc42c" x="545.544384" y="215.1" style="fill: #60bdc4"/>
     <use xlink:href="#md977dfc42c" x="288.573033" y="215.1" style="fill: #60bdc4"/>
     <use xlink:href="#md977dfc42c" x="378.598145" y="215.1" style="fill: #60bdc4"/>
     <use xlink:href="#md977dfc42c" x="476.618908" y="212.360406" style="fill: #60bdc4"/>
     <use xlink:href="#md977dfc42c" x="537.770834" y="213.071365" style="fill: #60bdc4"/>
     <use xlink:href="#md977dfc42c" x="568.494865" y="215.442438" style="fill: #60bdc4"/>
     <use xlink:href="#md977dfc42c" x="589.520466" y="205.87856" style="fill: #60bdc4"/>
     <use xlink:href="#md977dfc42c" x="524.518782" y="212.205947" style="fill: #60bdc4"/>
     <use xlink:href="#md977dfc42c" x="500.38376" y="215.1" style="fill: #60bdc4"/>
     <use xlink:href="#md977dfc42c" x="515.560691" y="215.1" style="fill: #60bdc4"/>
     <use xlink:href="#md977dfc42c" x="448.263959" y="215.1" style="fill: #60bdc4"/>
     <use xlink:href="#md977dfc42c" x="548.283635" y="216.384483" style="fill: #60bdc4"/>
     <use xlink:href="#md977dfc42c" x="579.525902" y="215.1" style="fill: #60bdc4"/>
     <use xlink:href="#md977dfc42c" x="586.040877" y="217.448892" style="fill: #60bdc4"/>
     <use xlink:href="#md977dfc42c" x="575.00984" y="215.1" style="fill: #60bdc4"/>
     <use xlink:href="#md977dfc42c" x="591.001143" y="187.085097" style="fill: #60bdc4"/>
     <use xlink:href="#md977dfc42c" x="523.334241" y="215.1" style="fill: #60bdc4"/>
     <use xlink:href="#md977dfc42c" x="590.779041" y="236.882291" style="fill: #60bdc4"/>
     <use xlink:href="#md977dfc42c" x="476.100671" y="218.083499" style="fill: #60bdc4"/>
     <use xlink:href="#md977dfc42c" x="577.304888" y="213.071365" style="fill: #60bdc4"/>
     <use xlink:href="#md977dfc42c" x="590.630974" y="233.73613" style="fill: #60bdc4"/>
     <use xlink:href="#md977dfc42c" x="590.853075" y="213.667611" style="fill: #60bdc4"/>
     <use xlink:href="#md977dfc42c" x="590.927109" y="240.028452" style="fill: #60bdc4"/>
     <use xlink:href="#md977dfc42c" x="590.630974" y="196.52646" style="fill: #60bdc4"/>
     <use xlink:href="#md977dfc42c" x="590.779041" y="193.380299" style="fill: #60bdc4"/>
     <use xlink:href="#md977dfc42c" x="591.075176" y="243.174613" style="fill: #60bdc4"/>
     <use xlink:href="#md977dfc42c" x="588.187858" y="215.1" style="fill: #60bdc4"/>
     <use xlink:href="#md977dfc42c" x="589.446433" y="221.246997" style="fill: #60bdc4"/>
     <use xlink:href="#md977dfc42c" x="590.482906" y="230.589969" style="fill: #60bdc4"/>
     <use xlink:href="#md977dfc42c" x="590.927109" y="190.234138" style="fill: #60bdc4"/>
     <use xlink:href="#md977dfc42c" x="584.041965" y="215.1" style="fill: #60bdc4"/>
     <use xlink:href="#md977dfc42c" x="354.759258" y="215.1" style="fill: #60bdc4"/>
     <use xlink:href="#md977dfc42c" x="541.250423" y="215.1" style="fill: #60bdc4"/>
     <use xlink:href="#md977dfc42c" x="590.260805" y="227.448614" style="fill: #60bdc4"/>
     <use xlink:href="#md977dfc42c" x="417.095725" y="212.751108" style="fill: #60bdc4"/>
     <use xlink:href="#md977dfc42c" x="459.294997" y="215.1" style="fill: #60bdc4"/>
     <use xlink:href="#md977dfc42c" x="491.203568" y="217.217539" style="fill: #60bdc4"/>
     <use xlink:href="#md977dfc42c" x="536.512259" y="218.056029" style="fill: #60bdc4"/>
     <use xlink:href="#md977dfc42c" x="562.868295" y="216.384483" style="fill: #60bdc4"/>
     <use xlink:href="#md977dfc42c" x="576.786651" y="217.638079" style="fill: #60bdc4"/>
     <use xlink:href="#md977dfc42c" x="483.281951" y="215.1" style="fill: #60bdc4"/>
     <use xlink:href="#md977dfc42c" x="512.599339" y="217.959393" style="fill: #60bdc4"/>
     <use xlink:href="#md977dfc42c" x="568.716966" y="212.301082" style="fill: #60bdc4"/>
     <use xlink:href="#md977dfc42c" x="438.047293" y="215.1" style="fill: #60bdc4"/>
     <use xlink:href="#md977dfc42c" x="560.129044" y="215.1" style="fill: #60bdc4"/>
     <use xlink:href="#md977dfc42c" x="589.816602" y="202.743945" style="fill: #60bdc4"/>
     <use xlink:href="#md977dfc42c" x="511.340764" y="215.1" style="fill: #60bdc4"/>
     <use xlink:href="#md977dfc42c" x="266.36289" y="215.1" style="fill: #60bdc4"/>
     <use xlink:href="#md977dfc42c" x="420.649348" y="214.509177" style="fill: #60bdc4"/>
     <use xlink:href="#md977dfc42c" x="243.264342" y="215.1" style="fill: #60bdc4"/>
     <use xlink:href="#md977dfc42c" x="415.911184" y="218.131719" style="fill: #60bdc4"/>
     <use xlink:href="#md977dfc42c" x="417.984131" y="215.955213" style="fill: #60bdc4"/>
     <use xlink:href="#md977dfc42c" x="465.439803" y="218.171324" style="fill: #60bdc4"/>
     <use xlink:href="#md977dfc42c" x="527.109966" y="215.1" style="fill: #60bdc4"/>
     <use xlink:href="#md977dfc42c" x="565.533512" y="214.938446" style="fill: #60bdc4"/>
    </g>
   </g>
   <g id="PathCollection_3">
    <defs>
     <path id="m1f62e58023" d="M 0 1.5 
C 0.397805 1.5 0.77937 1.341951 1.06066 1.06066 
C 1.341951 0.77937 1.5 0.397805 1.5 0 
C 1.5 -0.397805 1.341951 -0.77937 1.06066 -1.06066 
C 0.77937 -1.341951 0.397805 -1.5 0 -1.5 
C -0.397805 -1.5 -0.77937 -1.341951 -1.06066 -1.06066 
C -1.341951 -0.77937 -1.5 -0.397805 -1.5 0 
C -1.5 0.397805 -1.341951 0.77937 -1.06066 1.06066 
C -0.77937 1.341951 -0.397805 1.5 0 1.5 
z
"/>
    </defs>
    <g clip-path="url(#p72e5d645ad)">
     <use xlink:href="#m1f62e58023" x="385.853458" y="76.5" style="fill: #f2c96f"/>
     <use xlink:href="#m1f62e58023" x="373.119643" y="76.5" style="fill: #f2c96f"/>
     <use xlink:href="#m1f62e58023" x="278.80057" y="76.5" style="fill: #f2c96f"/>
     <use xlink:href="#m1f62e58023" x="459.146929" y="79.456029" style="fill: #f2c96f"/>
     <use xlink:href="#m1f62e58023" x="486.021202" y="76.5" style="fill: #f2c96f"/>
     <use xlink:href="#m1f62e58023" x="412.727731" y="76.5" style="fill: #f2c96f"/>
     <use xlink:href="#m1f62e58023" x="458.110456" y="76.5" style="fill: #f2c96f"/>
     <use xlink:href="#m1f62e58023" x="377.709739" y="76.5" style="fill: #f2c96f"/>
     <use xlink:href="#m1f62e58023" x="466.994513" y="76.5" style="fill: #f2c96f"/>
     <use xlink:href="#m1f62e58023" x="585.078438" y="76.5" style="fill: #f2c96f"/>
     <use xlink:href="#m1f62e58023" x="553.614069" y="76.5" style="fill: #f2c96f"/>
     <use xlink:href="#m1f62e58023" x="533.180738" y="76.5" style="fill: #f2c96f"/>
    </g>
   </g>
   <g id="PathCollection_4">
    <g clip-path="url(#p72e5d645ad)">
     <use xlink:href="#m1f62e58023" x="397.254665" y="215.1" style="fill: #f2c96f"/>
     <use xlink:href="#m1f62e58023" x="251.334027" y="215.1" style="fill: #f2c96f"/>
     <use xlink:href="#m1f62e58023" x="284.131005" y="215.1" style="fill: #f2c96f"/>
     <use xlink:href="#m1f62e58023" x="311.005277" y="215.1" style="fill: #f2c96f"/>
     <use xlink:href="#m1f62e58023" x="380.967227" y="215.1" style="fill: #f2c96f"/>
     <use xlink:href="#m1f62e58023" x="547.765398" y="215.1" style="fill: #f2c96f"/>
     <use xlink:href="#m1f62e58023" x="591.445346" y="215.1" style="fill: #f2c96f"/>
    </g>
   </g>
   <g id="legend_1">
    <g id="PathCollection_5">
     <g>
      <use xlink:href="#md977dfc42c" x="161.154844" y="23.439375" style="fill: #60bdc4"/>
     </g>
    </g>
    <g id="text_12">
     <!-- cont &lt; 5% -->
     <g style="fill: #262626" transform="translate(182.754844 26.589375) scale(0.12 -0.12)">
      <defs>
       <path id="ArialMT-20" transform="scale(0.015625)"/>
       <path id="ArialMT-3c" d="M 350 2003 
L 350 2528 
L 3384 3809 
L 3384 3250 
L 978 2263 
L 3384 1266 
L 3384 706 
L 350 2003 
z
" transform="scale(0.015625)"/>
       <path id="ArialMT-25" d="M 372 3481 
Q 372 3972 619 4315 
Q 866 4659 1334 4659 
Q 1766 4659 2048 4351 
Q 2331 4044 2331 3447 
Q 2331 2866 2045 2552 
Q 1759 2238 1341 2238 
Q 925 2238 648 2547 
Q 372 2856 372 3481 
z
M 1350 4272 
Q 1141 4272 1002 4090 
Q 863 3909 863 3425 
Q 863 2984 1003 2804 
Q 1144 2625 1350 2625 
Q 1563 2625 1702 2806 
Q 1841 2988 1841 3469 
Q 1841 3913 1700 4092 
Q 1559 4272 1350 4272 
z
M 1353 -169 
L 3859 4659 
L 4316 4659 
L 1819 -169 
L 1353 -169 
z
M 3334 1075 
Q 3334 1569 3581 1911 
Q 3828 2253 4300 2253 
Q 4731 2253 5014 1945 
Q 5297 1638 5297 1041 
Q 5297 459 5011 145 
Q 4725 -169 4303 -169 
Q 3888 -169 3611 142 
Q 3334 453 3334 1075 
z
M 4316 1866 
Q 4103 1866 3964 1684 
Q 3825 1503 3825 1019 
Q 3825 581 3965 400 
Q 4106 219 4313 219 
Q 4528 219 4667 400 
Q 4806 581 4806 1063 
Q 4806 1506 4665 1686 
Q 4525 1866 4316 1866 
z
" transform="scale(0.015625)"/>
      </defs>
      <use xlink:href="#ArialMT-63"/>
      <use xlink:href="#ArialMT-6f" x="50"/>
      <use xlink:href="#ArialMT-6e" x="105.615234"/>
      <use xlink:href="#ArialMT-74" x="161.230469"/>
      <use xlink:href="#ArialMT-20" x="189.013672"/>
      <use xlink:href="#ArialMT-3c" x="216.796875"/>
      <use xlink:href="#ArialMT-20" x="275.195312"/>
      <use xlink:href="#ArialMT-35" x="302.978516"/>
      <use xlink:href="#ArialMT-25" x="358.59375"/>
     </g>
    </g>
    <g id="PathCollection_6">
     <g>
      <use xlink:href="#md977dfc42c" x="161.154844" y="40.41375" style="fill: #60bdc4"/>
     </g>
    </g>
    <g id="text_13">
     <!-- cont &gt; 5% -->
     <g style="fill: #262626" transform="translate(182.754844 43.56375) scale(0.12 -0.12)">
      <defs>
       <path id="ArialMT-3e" d="M 3384 2003 
L 350 706 
L 350 1266 
L 2753 2263 
L 350 3250 
L 350 3809 
L 3384 2528 
L 3384 2003 
z
" transform="scale(0.015625)"/>
      </defs>
      <use xlink:href="#ArialMT-63"/>
      <use xlink:href="#ArialMT-6f" x="50"/>
      <use xlink:href="#ArialMT-6e" x="105.615234"/>
      <use xlink:href="#ArialMT-74" x="161.230469"/>
      <use xlink:href="#ArialMT-20" x="189.013672"/>
      <use xlink:href="#ArialMT-3e" x="216.796875"/>
      <use xlink:href="#ArialMT-20" x="275.195312"/>
      <use xlink:href="#ArialMT-35" x="302.978516"/>
      <use xlink:href="#ArialMT-25" x="358.59375"/>
     </g>
    </g>
   </g>
  </g>
 </g>
 <defs>
  <clipPath id="p72e5d645ad">
   <rect x="138.354844" y="7.2" width="558" height="277.2"/>
  </clipPath>
 </defs>
</svg>
