<svg class="main-svg" xmlns="http://www.w3.org/2000/svg" xmlns:xlink="http://www.w3.org/1999/xlink" width="750" height="750" style="" viewBox="0 0 750 750"><rect x="0" y="0" width="750" height="750" style="fill: rgb(255, 255, 255); fill-opacity: 1;"/><defs id="defs-e301c9"><g class="clips"/><g class="gradients"/><g class="patterns"/></defs><g class="bglayer"/><g class="layer-below"><g class="imagelayer"/><g class="shapelayer"/></g><g class="cartesianlayer"/><g class="polarlayer"/><g class="smithlayer"/><g class="ternarylayer"/><g class="geolayer"/><g class="funnelarealayer"/><g class="pielayer"/><g class="iciclelayer"/><g class="treemaplayer"/><g class="sunburstlayer"><g class="trace sunburst" stroke-linejoin="round" style="opacity: 1;"><g class="slice cursor-pointer"><path class="surface" d="M375,385L422.5,385A47.5,47.5 0,1,0 359.49546734267864,429.8983236555448L375,385A0,0 0,1,1 375,385Z" style="pointer-events: none; stroke-width: 1; fill: rgb(102, 197, 204); fill-opacity: 1; stroke: rgb(255, 255, 255); stroke-opacity: 1;"/><g class="slicetext"><text data-notex="1" class="slicetext" text-anchor="middle" x="0" y="0" style="font-family: 'Open Sans', verdana, arial, sans-serif; font-size: 12px; fill: rgb(68, 68, 68); fill-opacity: 1; white-space: pre;" transform="translate(371.083424361227,379.50398149313827)scale(0.8654510222578615)rotate(-35.474452554744516)">Thermoplasmatota</text></g></g><g class="slice cursor-pointer"><path class="surface" d="M375,385L359.49546734267864,429.8983236555448A47.5,47.5 0,0,0 422.5,385L375,385A0,0 0,0,1 375,385Z" style="pointer-events: none; stroke-width: 1; fill: rgb(246, 207, 113); fill-opacity: 1; stroke: rgb(255, 255, 255); stroke-opacity: 1;"/><g class="slicetext"><text data-notex="1" class="slicetext" text-anchor="middle" x="0" y="0" style="font-family: 'Open Sans', verdana, arial, sans-serif; font-size: 12px; fill: rgb(68, 68, 68); fill-opacity: 1; white-space: pre;" transform="translate(394.14092132920473,411.85990711433084)scale(0.5510075268778655)rotate(-35.474452554744516)">Methanobacteriota</text></g></g><g class="slice cursor-pointer"><path class="surface" d="M422.5,385L470,385A95,95 0,1,0 343.99093468535733,474.79664731108966L359.49546734267864,429.8983236555448A47.5,47.5 0,1,1 422.5,385Z" style="pointer-events: none; stroke-width: 1; fill: rgb(102, 197, 204); fill-opacity: 1; stroke: rgb(255, 255, 255); stroke-opacity: 1;"/><g class="slicetext"><text data-notex="1" class="slicetext" text-anchor="middle" x="0" y="0" style="font-family: 'Open Sans', verdana, arial, sans-serif; font-size: 12px; fill: rgb(68, 68, 68); fill-opacity: 1; white-space: pre;" transform="translate(343.51227517860633,340.8141768936792)rotate(-35.474452554744516)">Thermoplasmata</text></g></g><g class="slice cursor-pointer"><path class="surface" d="M359.49546734267864,429.8983236555448L343.99093468535733,474.79664731108966A95,95 0,0,0 470,385L422.5,385A47.5,47.5 0,0,1 359.49546734267864,429.8983236555448Z" style="pointer-events: none; stroke-width: 1; fill: rgb(246, 207, 113); fill-opacity: 1; stroke: rgb(255, 255, 255); stroke-opacity: 1;"/><g class="slicetext"><text data-notex="1" class="slicetext" text-anchor="middle" x="0" y="0" style="font-family: 'Open Sans', verdana, arial, sans-serif; font-size: 12px; fill: rgb(68, 68, 68); fill-opacity: 1; white-space: pre;" transform="translate(412.9621919264477,438.2712575044658)rotate(-35.474452554744516)">Methanobacteria</text></g></g><g class="slice cursor-pointer"><path class="surface" d="M470,385L517.5,385A142.5,142.5 0,1,0 328.48640202803597,519.6949709666345L343.99093468535733,474.79664731108966A95,95 0,1,1 470,385Z" style="pointer-events: none; stroke-width: 1; fill: rgb(102, 197, 204); fill-opacity: 1; stroke: rgb(255, 255, 255); stroke-opacity: 1;"/><g class="slicetext"><text data-notex="1" class="slicetext" text-anchor="middle" x="0" y="0" style="font-family: 'Open Sans', verdana, arial, sans-serif; font-size: 12px; fill: rgb(68, 68, 68); fill-opacity: 1; white-space: pre;" transform="translate(316.7823121669522,303.3047847743417)rotate(-35.474452554744516)">Methanomassiliicoccales</text></g></g><g class="slice cursor-pointer"><path class="surface" d="M343.99093468535733,474.79664731108966L328.48640202803597,519.6949709666345A142.5,142.5 0,0,0 517.5,385.00000000000006L470,385A95,95 0,0,1 343.99093468535733,474.79664731108966Z" style="pointer-events: none; stroke-width: 1; fill: rgb(246, 207, 113); fill-opacity: 1; stroke: rgb(255, 255, 255); stroke-opacity: 1;"/><g class="slicetext"><text data-notex="1" class="slicetext" text-anchor="middle" x="0" y="0" style="font-family: 'Open Sans', verdana, arial, sans-serif; font-size: 12px; fill: rgb(68, 68, 68); fill-opacity: 1; white-space: pre;" transform="translate(439.55743116238745,475.5915956049531)rotate(-35.474452554744516)">Methanobacteriales</text></g></g><g class="slice cursor-pointer"><path class="surface" d="M517.5,385L565,385A190,190 0,1,0 252.68502999033922,530.3927374786505L283.2637724927544,494.0445531089879A142.5,142.5 0,1,1 517.5,385Z" style="pointer-events: none; stroke-width: 1; fill: rgb(102, 197, 204); fill-opacity: 1; stroke: rgb(255, 255, 255); stroke-opacity: 1;"/><g class="slicetext"><text data-notex="1" class="slicetext" text-anchor="middle" x="0" y="0" style="font-family: 'Open Sans', verdana, arial, sans-serif; font-size: 12px; fill: rgb(68, 68, 68); fill-opacity: 1; white-space: pre;" transform="translate(312.5272697191376,250.80368990607812)rotate(-24.963503649635072)">Methanomethylophilaceae</text></g></g><g class="slice cursor-pointer"><path class="surface" d="M283.2637724927544,494.0445531089879L252.68502999033922,530.3927374786505A190,190 0,0,0 312.98186937071466,564.5932946221793L328.48640202803597,519.6949709666345A142.5,142.5 0,0,1 283.2637724927544,494.0445531089879Z" style="pointer-events: none; stroke-width: 1; fill: rgb(102, 197, 204); fill-opacity: 1; stroke: rgb(255, 255, 255); stroke-opacity: 1;"/><g class="slicetext"><text data-notex="1" class="slicetext" text-anchor="middle" x="0" y="0" style="font-family: 'Open Sans', verdana, arial, sans-serif; font-size: 12px; fill: rgb(68, 68, 68); fill-opacity: 1; white-space: pre;" transform="translate(283.2764345802099,546.7120173891352)scale(0.4132851395490002)rotate(29.56204379562041)">Methanomassiliicoccaceae</text></g></g><g class="slice cursor-pointer"><path class="surface" d="M328.48640202803597,519.6949709666345L312.98186937071466,564.5932946221793A190,190 0,0,0 565,385.00000000000006L517.5,385.00000000000006A142.5,142.5 0,0,1 328.48640202803597,519.6949709666345Z" style="pointer-events: none; stroke-width: 1; fill: rgb(246, 207, 113); fill-opacity: 1; stroke: rgb(255, 255, 255); stroke-opacity: 1;"/><g class="slicetext"><text data-notex="1" class="slicetext" text-anchor="middle" x="0" y="0" style="font-family: 'Open Sans', verdana, arial, sans-serif; font-size: 12px; fill: rgb(68, 68, 68); fill-opacity: 1; white-space: pre;" transform="translate(467.2264880736497,514.4187913180299)rotate(-35.474452554744516)">Methanobacteriaceae</text></g></g><g class="slice cursor-pointer"><path class="surface" d="M565,385L612.5,385A237.5,237.5 0,0,0 157.44630320177575,289.72860340361166L200.95704256142062,308.7828827228893A190,190 0,0,1 565,385Z" style="pointer-events: none; stroke-width: 1; fill: rgb(102, 197, 204); fill-opacity: 1; stroke: rgb(255, 255, 255); stroke-opacity: 1;"/><g class="slicetext"><text data-notex="1" class="slicetext" text-anchor="middle" x="0" y="0" style="font-family: 'Open Sans', verdana, arial, sans-serif; font-size: 12px; fill: rgb(68, 68, 68); fill-opacity: 1; white-space: pre;" transform="translate(418.801655667575,180.53604859909748)">UBA71</text></g></g><g class="slice cursor-pointer"><path class="surface" d="M200.95704256142062,308.7828827228893L157.44630320177575,289.72860340361166A237.5,237.5 0,0,0 169.77431697256412,504.53522085947066L210.8194535780513,480.6281766875765A190,190 0,0,1 200.95704256142062,308.7828827228893Z" style="pointer-events: none; stroke-width: 1; fill: rgb(102, 197, 204); fill-opacity: 1; stroke: rgb(255, 255, 255); stroke-opacity: 1;"/><g class="slicetext"><text data-notex="1" class="slicetext" text-anchor="middle" x="0" y="0" style="font-family: 'Open Sans', verdana, arial, sans-serif; font-size: 12px; fill: rgb(68, 68, 68); fill-opacity: 1; white-space: pre;" transform="translate(164.16717579361818,397.099952929451)rotate(86.71532846715331)">Methanomethylophilus</text></g></g><g class="slice cursor-pointer"><path class="surface" d="M210.8194535780513,480.6281766875765L169.77431697256412,504.53522085947066A237.5,237.5 0,0,0 222.10628748792402,566.7409218483131L252.68502999033922,530.3927374786505A190,190 0,0,1 210.8194535780513,480.6281766875765Z" style="pointer-events: none; stroke-width: 1; fill: rgb(102, 197, 204); fill-opacity: 1; stroke: rgb(255, 255, 255); stroke-opacity: 1;"/><g class="slicetext"><text data-notex="1" class="slicetext" text-anchor="middle" x="0" y="0" style="font-family: 'Open Sans', verdana, arial, sans-serif; font-size: 12px; fill: rgb(68, 68, 68); fill-opacity: 1; white-space: pre;" transform="translate(211.43317033651817,527.3543412608684)">MX-02</text></g></g><g class="slice cursor-pointer"><path class="surface" d="M252.68502999033922,530.3927374786505L222.10628748792402,566.7409218483131A237.5,237.5 0,0,0 282.2292091025586,603.6317231242145L300.7833672820469,559.9053784993716A190,190 0,0,1 252.68502999033922,530.3927374786505Z" style="pointer-events: none; stroke-width: 1; fill: rgb(102, 197, 204); fill-opacity: 1; stroke: rgb(255, 255, 255); stroke-opacity: 1;"/><g class="slicetext"><text data-notex="1" class="slicetext" text-anchor="middle" x="0" y="0" style="font-family: 'Open Sans', verdana, arial, sans-serif; font-size: 12px; fill: rgb(68, 68, 68); fill-opacity: 1; white-space: pre;" transform="translate(252.70302889409024,584.3139469245151)scale(0.4401256432672683)rotate(31.532846715328446)">Methanomassiliicoccus_A</text></g></g><g class="slice cursor-pointer"><path class="surface" d="M300.7833672820469,559.9053784993716L282.2292091025586,603.6317231242145A237.5,237.5 0,0,0 297.4773367133933,609.4916182777241L312.98186937071466,564.5932946221793A190,190 0,0,1 300.7833672820469,559.9053784993716Z" style="pointer-events: none; stroke-width: 1; fill: rgb(102, 197, 204); fill-opacity: 1; stroke: rgb(255, 255, 255); stroke-opacity: 1;"/><g class="slicetext"><text data-notex="1" class="slicetext" text-anchor="middle" x="0" y="0" style="font-family: 'Open Sans', verdana, arial, sans-serif; font-size: 12px; fill: rgb(68, 68, 68); fill-opacity: 1; white-space: pre;" transform="translate(301.74059287297655,587.4601038860325)scale(0.8934601990283326)rotate(-68.97810218978111)">DTU008</text></g></g><g class="slice cursor-pointer"><path class="surface" d="M312.98186937071466,564.5932946221793L297.4773367133933,609.4916182777241A237.5,237.5 0,0,0 612.5,385.00000000000006L565,385.00000000000006A190,190 0,0,1 312.98186937071466,564.5932946221793Z" style="pointer-events: none; stroke-width: 1; fill: rgb(246, 207, 113); fill-opacity: 1; stroke: rgb(255, 255, 255); stroke-opacity: 1;"/><g class="slicetext"><text data-notex="1" class="slicetext" text-anchor="middle" x="0" y="0" style="font-family: 'Open Sans', verdana, arial, sans-serif; font-size: 12px; fill: rgb(68, 68, 68); fill-opacity: 1; white-space: pre;" transform="translate(494.95114842265934,553.3240137440035)rotate(-35.474452554744516)">Methanobrevibacter_A</text></g></g><g class="slice"><path class="surface" d="M612.5,385L660,385A285,285 0,0,0 455.5787668092793,111.62834393541124L442.14897234106604,157.19028661284273A237.5,237.5 0,0,1 612.5,385Z" style="pointer-events: none; stroke-width: 1; fill: rgb(102, 197, 204); fill-opacity: 1; stroke: rgb(255, 255, 255); stroke-opacity: 1; opacity: 0.7;"/><g class="slicetext"><text data-notex="1" class="slicetext" text-anchor="middle" x="0" y="0" style="font-family: 'Open Sans', verdana, arial, sans-serif; font-size: 12px; fill: rgb(68, 68, 68); fill-opacity: 1; white-space: pre;" transform="translate(571.8475001652339,237.80182549437254)rotate(53.21167883211683)">UBA71 sp006954425</text></g></g><g class="slice"><path class="surface" d="M442.14897234106604,157.19028661284273L455.5787668092793,111.62834393541124A285,285 0,0,0 269.7200125579681,120.1583034259794L287.2666771316401,164.29858618831616A237.5,237.5 0,0,1 442.14897234106604,157.19028661284273Z" style="pointer-events: none; stroke-width: 1; fill: rgb(102, 197, 204); fill-opacity: 1; stroke: rgb(255, 255, 255); stroke-opacity: 1; opacity: 0.7;"/><g class="slicetext"><text data-notex="1" class="slicetext" text-anchor="middle" x="0" y="0" style="font-family: 'Open Sans', verdana, arial, sans-serif; font-size: 12px; fill: rgb(68, 68, 68); fill-opacity: 1; white-space: pre;" transform="translate(363.2102663540461,128.11423039995947)rotate(-2.627737226277418)">UBA71 sp006954465</text></g></g><g class="slice"><path class="surface" d="M287.2666771316401,164.29858618831616L269.7200125579681,120.1583034259794A285,285 0,0,0 142.90330587875715,219.60313008406044L181.5860882322976,247.1692750700504A237.5,237.5 0,0,1 287.2666771316401,164.29858618831616Z" style="pointer-events: none; stroke-width: 1; fill: rgb(102, 197, 204); fill-opacity: 1; stroke: rgb(255, 255, 255); stroke-opacity: 1; opacity: 0.7;"/><g class="slicetext"><text data-notex="1" class="slicetext" text-anchor="middle" x="0" y="0" style="font-family: 'Open Sans', verdana, arial, sans-serif; font-size: 12px; fill: rgb(68, 68, 68); fill-opacity: 1; white-space: pre;" transform="translate(218.21416129310268,185.05934559964422)rotate(-38.102189781021934)">undefined</text></g></g><g class="slice"><path class="surface" d="M181.5860882322976,247.1692750700504L142.90330587875715,219.60313008406044A285,285 0,0,0 116.6256110997744,264.7183506912422L159.688009249812,284.76529224270183A237.5,237.5 0,0,1 181.5860882322976,247.1692750700504Z" style="pointer-events: none; stroke-width: 1; fill: rgb(102, 197, 204); fill-opacity: 1; stroke: rgb(255, 255, 255); stroke-opacity: 1; opacity: 0.7;"/><g class="slicetext"><text data-notex="1" class="slicetext" text-anchor="middle" x="0" y="0" style="font-family: 'Open Sans', verdana, arial, sans-serif; font-size: 12px; fill: rgb(68, 68, 68); fill-opacity: 1; white-space: pre;" transform="translate(133.85804895933038,244.54508251154616)scale(0.3939552676253156)rotate(-59.781021897810206)">UBA71 sp905187815</text></g></g><g class="slice"><path class="surface" d="M159.688009249812,284.76529224270183L116.6256110997744,264.7183506912422A285,285 0,0,0 113.93556384213093,270.674324084334L157.44630320177575,289.72860340361166A237.5,237.5 0,0,1 159.688009249812,284.76529224270183Z" style="pointer-events: none; stroke-width: 1; fill: rgb(102, 197, 204); fill-opacity: 1; stroke: rgb(255, 255, 255); stroke-opacity: 1; opacity: 0.7;"/><g class="slicetext"><text data-notex="1" class="slicetext" text-anchor="middle" x="0" y="0" style="font-family: 'Open Sans', verdana, arial, sans-serif; font-size: 12px; fill: rgb(68, 68, 68); fill-opacity: 1; white-space: pre;" transform="translate(136.19893370573013,279.05063147156835)scale(0.3657724891392516)rotate(24.30656934306569)">UBA71 sp016296195</text></g></g><g class="slice"><path class="surface" d="M157.44630320177575,289.72860340361166L113.93556384213093,270.674324084334A285,285 0,0,0 128.72918036707696,528.4422650313647L169.77431697256412,504.53522085947066A237.5,237.5 0,0,1 157.44630320177575,289.72860340361166Z" style="pointer-events: none; stroke-width: 1; fill: rgb(102, 197, 204); fill-opacity: 1; stroke: rgb(255, 255, 255); stroke-opacity: 1; opacity: 0.7;"/><g class="slicetext"><text data-notex="1" class="slicetext" text-anchor="middle" x="0" y="0" style="font-family: 'Open Sans', verdana, arial, sans-serif; font-size: 12px; fill: rgb(68, 68, 68); fill-opacity: 1; white-space: pre;" transform="translate(121.33078359928966,399.5583857241068)rotate(86.71532846715331)">Methanomethylophilus alvus</text></g></g><g class="slice"><path class="surface" d="M169.77431697256412,504.53522085947066L128.72918036707696,528.4422650313647A285,285 0,0,0 191.52754498550883,603.0891062179758L222.10628748792402,566.7409218483131A237.5,237.5 0,0,1 169.77431697256412,504.53522085947066Z" style="pointer-events: none; stroke-width: 1; fill: rgb(102, 197, 204); fill-opacity: 1; stroke: rgb(255, 255, 255); stroke-opacity: 1; opacity: 0.7;"/><g class="slicetext"><text data-notex="1" class="slicetext" text-anchor="middle" x="0" y="0" style="font-family: 'Open Sans', verdana, arial, sans-serif; font-size: 12px; fill: rgb(68, 68, 68); fill-opacity: 1; white-space: pre;" transform="translate(161.35038796732493,564.7376288632686)scale(0.7315579551591159)rotate(49.92700729927003)">MX-02 sp006954405</text></g></g><g class="slice"><path class="surface" d="M222.10628748792402,566.7409218483131L191.52754498550883,603.0891062179758A285,285 0,0,0 240.11189075369785,636.0581565772314L262.5932422947482,594.2151304810262A237.5,237.5 0,0,1 222.10628748792402,566.7409218483131Z" style="pointer-events: none; stroke-width: 1; fill: rgb(102, 197, 204); fill-opacity: 1; stroke: rgb(255, 255, 255); stroke-opacity: 1; opacity: 0.7;"/><g class="slicetext"><text data-notex="1" class="slicetext" text-anchor="middle" x="0" y="0" style="font-family: 'Open Sans', verdana, arial, sans-serif; font-size: 12px; fill: rgb(68, 68, 68); fill-opacity: 1; white-space: pre;" transform="translate(216.17736684137768,619.0465873633054)scale(0.256815367375803)rotate(34.160583941605864)">Methanomassiliicoccus_A intestinalis</text></g></g><g class="slice"><path class="surface" d="M262.5932422947482,594.2151304810262L240.11189075369785,636.0581565772314A285,285 0,0,0 257.6886265070527,644.736485017408L277.2405220892106,601.44707084784A237.5,237.5 0,0,1 262.5932422947482,594.2151304810262Z" style="pointer-events: none; stroke-width: 1; fill: rgb(102, 197, 204); fill-opacity: 1; stroke: rgb(255, 255, 255); stroke-opacity: 1; opacity: 0.7;"/><g class="slicetext"><text data-notex="1" class="slicetext" text-anchor="middle" x="0" y="0" style="font-family: 'Open Sans', verdana, arial, sans-serif; font-size: 12px; fill: rgb(68, 68, 68); fill-opacity: 1; white-space: pre;" transform="translate(260.1710817892911,619.6609984569895)scale(0.19490247504054792)rotate(-63.722627737226276)">Methanomassiliicoccus_A sp905203995</text></g></g><g class="slice"><path class="surface" d="M277.2405220892106,601.44707084784L257.6886265070527,644.736485017408A285,285 0,0,0 263.6750509230701,647.3580677490573L282.22920910255846,603.6317231242144A237.5,237.5 0,0,1 277.2405220892106,601.44707084784Z" style="pointer-events: none; stroke-width: 1; fill: rgb(102, 197, 204); fill-opacity: 1; stroke: rgb(255, 255, 255); stroke-opacity: 1; opacity: 0.7;"/><g class="slicetext"><text data-notex="1" class="slicetext" text-anchor="middle" x="0" y="0" style="font-family: 'Open Sans', verdana, arial, sans-serif; font-size: 12px; fill: rgb(68, 68, 68); fill-opacity: 1; white-space: pre;" transform="translate(267.3560478790378,635.5814534523366)scale(0.40324016369698573)rotate(-66.35036496350358)">undefined</text></g></g><g class="slice"><path class="surface" d="M282.2292091025586,603.6317231242145L263.6750509230704,647.3580677490575A285,285 0,0,0 275.8203328318745,652.186065543134L292.3502773598954,607.6550546192782A237.5,237.5 0,0,1 282.2292091025586,603.6317231242145Z" style="pointer-events: none; stroke-width: 1; fill: rgb(102, 197, 204); fill-opacity: 1; stroke: rgb(255, 255, 255); stroke-opacity: 1; opacity: 0.7;"/><g class="slicetext"><text data-notex="1" class="slicetext" text-anchor="middle" x="0" y="0" style="font-family: 'Open Sans', verdana, arial, sans-serif; font-size: 12px; fill: rgb(68, 68, 68); fill-opacity: 1; white-space: pre;" transform="translate(281.36175075500046,630.1037875900806)scale(0.7425380500176758)rotate(-68.32116788321173)">undefined</text></g></g><g class="slice"><path class="surface" d="M292.3502773598954,607.6550546192782L275.8203328318745,652.186065543134A285,285 0,0,0 281.97280405607194,654.389941933269L297.4773367133933,609.4916182777241A237.5,237.5 0,0,1 292.3502773598954,607.6550546192782Z" style="pointer-events: none; stroke-width: 1; fill: rgb(102, 197, 204); fill-opacity: 1; stroke: rgb(255, 255, 255); stroke-opacity: 1; opacity: 0.7;"/><g class="slicetext"><text data-notex="1" class="slicetext" text-anchor="middle" x="0" y="0" style="font-family: 'Open Sans', verdana, arial, sans-serif; font-size: 12px; fill: rgb(68, 68, 68); fill-opacity: 1; white-space: pre;" transform="translate(288.4419386478383,631.493324115806)scale(0.34452112410085933)rotate(-70.29197080291976)">DTU008 sp001421185</text></g></g><g class="slice"><path class="surface" d="M297.4773367133933,609.4916182777241L281.97280405607194,654.389941933269A285,285 0,0,0 633.3743889002255,505.28164930875784L590.311990750188,485.23470775729817A237.5,237.5 0,0,1 297.4773367133933,609.4916182777241Z" style="pointer-events: none; stroke-width: 1; fill: rgb(246, 207, 113); fill-opacity: 1; stroke: rgb(255, 255, 255); stroke-opacity: 1; opacity: 0.7;"/><g class="slicetext"><text data-notex="1" class="slicetext" text-anchor="middle" x="0" y="0" style="font-family: 'Open Sans', verdana, arial, sans-serif; font-size: 12px; fill: rgb(68, 68, 68); fill-opacity: 1; white-space: pre;" transform="translate(473.7278091720176,617.67055105113)rotate(-22.992700729927037)">Methanobrevibacter_A smithii</text></g></g><g class="slice"><path class="surface" d="M590.311990750188,485.23470775729817L633.3743889002255,505.28164930875784A285,285 0,0,0 659.7003202888702,398.066278254142L612.250266907392,395.888565211785A237.5,237.5 0,0,1 590.311990750188,485.23470775729817Z" style="pointer-events: none; stroke-width: 1; fill: rgb(246, 207, 113); fill-opacity: 1; stroke: rgb(255, 255, 255); stroke-opacity: 1; opacity: 0.7;"/><g class="slicetext"><text data-notex="1" class="slicetext" text-anchor="middle" x="0" y="0" style="font-family: 'Open Sans', verdana, arial, sans-serif; font-size: 12px; fill: rgb(68, 68, 68); fill-opacity: 1; white-space: pre;" transform="translate(645.4952132200004,451.4180737718951)scale(0.537071972472085)rotate(-76.20437956204375)">Methanobrevibacter_A smithii_A</text></g></g><g class="slice"><path class="surface" d="M612.250266907392,395.888565211785L659.7003202888702,398.066278254142A285,285 0,0,0 660,385.00000000000006L612.5,385.00000000000006A237.5,237.5 0,0,1 612.250266907392,395.888565211785Z" style="pointer-events: none; stroke-width: 1; fill: rgb(246, 207, 113); fill-opacity: 1; stroke: rgb(255, 255, 255); stroke-opacity: 1; opacity: 0.7;"/><g class="slicetext"><text data-notex="1" class="slicetext" text-anchor="middle" x="0" y="0" style="font-family: 'Open Sans', verdana, arial, sans-serif; font-size: 12px; fill: rgb(68, 68, 68); fill-opacity: 1; white-space: pre;" transform="translate(636.1501161866037,392.211719467484)scale(0.2572269284767837)rotate(1.313868613138652)">Methanobrevibacter_A woesei</text></g></g></g></g><g class="glimages"/><defs id="topdefs-e301c9"><g class="clips"/></defs><g class="layer-above"><g class="imagelayer"/><g class="shapelayer"/></g><g class="infolayer"><g class="g-gtitle"><text class="gtitle" x="37.5" y="50" text-anchor="start" dy="0em" style="font-family: 'Open Sans', verdana, arial, sans-serif; font-size: 17px; fill: rgb(42, 63, 95); opacity: 1; font-weight: normal; white-space: pre;">All species,   GTDB, release214</text></g></g></svg>